<svg xmlns="http://www.w3.org/2000/svg" xmlns:xlink="http://www.w3.org/1999/xlink" width="216" height="245" viewBox="0 0 216 245"><defs><style>.a{fill:none;}.b{clip-path:url(#a);}.c{opacity:0.1;}.d{fill:#003844;}</style><clipPath id="a"><rect class="a" width="216" height="245" transform="translate(1563 205)"/></clipPath></defs><g class="b" transform="translate(-1563 -205)"><g class="c" transform="translate(1566.724 -72.343)"><path class="d" d="M12.359,280.6A11.879,11.879,0,0,0,.529,292.418V505.483a11.912,11.912,0,0,0,11.83,11.86h213.1a11.906,11.906,0,0,0,11.822-11.86V292.418A11.873,11.873,0,0,0,225.455,280.6Zm0,7.892h213.1a3.828,3.828,0,0,1,3.93,3.931v35.5H8.43v-35.5a3.828,3.828,0,0,1,3.93-3.931Zm15.783,7.892A11.826,11.826,0,1,0,40,308.209,11.878,11.878,0,0,0,28.142,296.379Zm31.574,0a11.826,11.826,0,1,0,11.83,11.83A11.878,11.878,0,0,0,59.716,296.379Zm31.574,0a11.826,11.826,0,1,0,11.83,11.83A11.9,11.9,0,0,0,91.29,296.379Zm47.149,0a3.971,3.971,0,0,0-3.745,3.93V316.1a3.946,3.946,0,0,0,3.93,3.93h78.939a3.946,3.946,0,0,0,3.93-3.93V300.31a3.946,3.946,0,0,0-3.93-3.93Zm-110.3,7.9a3.946,3.946,0,1,1-3.93,3.93A3.887,3.887,0,0,1,28.142,304.279Zm31.574,0a3.946,3.946,0,0,1,0,7.892,3.946,3.946,0,1,1,0-7.892Zm31.574,0a3.946,3.946,0,0,1,0,7.892,3.946,3.946,0,1,1,0-7.892Zm51.3,0h71.009v7.892H142.585ZM8.428,335.822H229.384V505.483a3.86,3.86,0,0,1-3.93,3.969H12.357a3.86,3.86,0,0,1-3.93-3.969Zm98.652,15.8c-5.146.119-5.146,7.777,0,7.892H127.9L133.383,376a3.945,3.945,0,0,0,2.358,2.451,47.309,47.309,0,0,1,13.047,7.514,3.947,3.947,0,0,0,3.291.817l17.009-3.5,8.97,15.583-11.5,12.993a3.946,3.946,0,0,0-.933,3.26c.977,5.162.553,10.224-.031,15.028a3.947,3.947,0,0,0,.933,3.268l11.529,13.016-8.971,15.583-17.009-3.491a3.951,3.951,0,0,0-3.291.81A47.4,47.4,0,0,1,135.71,466.9a3.945,3.945,0,0,0-2.327,2.42L127.9,485.777h-18l-5.5-16.484a3.948,3.948,0,0,0-2.327-2.443,47.382,47.382,0,0,1-13.055-7.522,3.949,3.949,0,0,0-3.291-.81L68.717,462.01l-9-15.583,11.537-12.993a3.946,3.946,0,0,0,.932-3.26c-1-5.124-.57-10.088.031-15.028a3.946,3.946,0,0,0-.932-3.26L59.716,398.862l9-15.583,17.009,3.5a3.932,3.932,0,0,0,3.291-.817,47.4,47.4,0,0,1,13.078-7.575,3.945,3.945,0,0,0,2.335-2.42l1.133-3.407c2.016-5.167-6.022-7.824-7.483-2.474l-.671,2.012A55.146,55.146,0,0,0,85.9,378.732l-18.38-3.753a3.945,3.945,0,0,0-4.223,1.9l-11.822,20.5a3.946,3.946,0,0,0,.462,4.609L64.262,415.87c-.921,4.646-.547,9.114-.031,13.6L51.94,443.313a3.946,3.946,0,0,0-.462,4.6L63.3,468.421a3.946,3.946,0,0,0,4.223,1.888l18.442-3.753a55.059,55.059,0,0,0,11.383,6.551l5.973,17.856a3.946,3.946,0,0,0,3.761,2.705h23.652a3.945,3.945,0,0,0,3.753-2.705l5.919-17.771a54.979,54.979,0,0,0,11.475-6.635l18.4,3.753a3.945,3.945,0,0,0,4.2-1.888l11.853-20.507a3.946,3.946,0,0,0-.47-4.6l-12.315-13.9c.872-4.627.514-9.105.024-13.571l12.292-13.864a3.946,3.946,0,0,0,.47-4.608l-11.853-20.5a3.945,3.945,0,0,0-4.2-1.9l-18.434,3.753A55.1,55.1,0,0,0,140.4,372.15l-5.919-17.825a3.947,3.947,0,0,0-3.753-2.7ZM118.9,391.086a31.559,31.559,0,1,0,31.574,31.543A31.613,31.613,0,0,0,118.9,391.086Zm0,7.892A23.667,23.667,0,1,1,95.22,422.629,23.6,23.6,0,0,1,118.9,398.977Z" transform="translate(0 0)"/></g></g></svg>