<svg xmlns="http://www.w3.org/2000/svg" width="17.394" height="25.329" viewBox="0 0 17.394 25.329"><defs><style>.a{fill:#003844;stroke:#003844;stroke-width:0.1px;}</style></defs><g transform="translate(-19.45 0.05)"><path class="a" d="M31.838,9.026a5.266,5.266,0,1,0-7.382,0A8.351,8.351,0,0,0,19.5,16.649v2.474a.407.407,0,0,0,.407.407H21.8v.132a.369.369,0,0,0,0,.043.824.824,0,0,0,.8.741h.551a4.668,4.668,0,0,0,.5,1.167l-.383.353a.777.777,0,0,0-.039,1.1l.019.019.752.716a.824.824,0,0,0,1.095.037l.015-.013.409-.377a5.008,5.008,0,0,0,1.245.5v.5a.37.37,0,0,0,0,.043.823.823,0,0,0,.8.741h1.069l.039,0a.82.82,0,0,0,.764-.782v-.5a5.146,5.146,0,0,0,1.256-.494l.393.386a.824.824,0,0,0,1.1.037l.02-.018.752-.716a.781.781,0,0,0,.029-1.108l-.362-.367A4.555,4.555,0,0,0,33.14,20.5h.55l.038,0a.821.821,0,0,0,.764-.782V19.53h1.894a.407.407,0,0,0,.407-.407V16.649a8.351,8.351,0,0,0-4.956-7.623ZM23.694,5.271a4.453,4.453,0,1,1,4.453,4.457A4.46,4.46,0,0,1,23.694,5.271Zm9.984,14.411-.017.007h-.843a.407.407,0,0,0-.4.328,3.758,3.758,0,0,1-.644,1.462.407.407,0,0,0,.041.522l.562.57-.719.681-.614-.6a.407.407,0,0,0-.509-.05,4.287,4.287,0,0,1-1.572.618.407.407,0,0,0-.333.4v.792l-.018.007-1.021.005a.043.043,0,0,1-.009-.012v-.792a.407.407,0,0,0-.335-.4A4.213,4.213,0,0,1,25.7,22.6a.407.407,0,0,0-.5.042l-.632.569-.709-.675.605-.558a.407.407,0,0,0,.053-.539,3.825,3.825,0,0,1-.643-1.48.407.407,0,0,0-.4-.326l-.852.005a.043.043,0,0,1-.009-.012v-.943l.017-.007h.843a.407.407,0,0,0,.4-.328,3.759,3.759,0,0,1,.644-1.462.407.407,0,0,0-.046-.527l-.576-.566.719-.68.614.6a.407.407,0,0,0,.509.05,4.291,4.291,0,0,1,1.572-.618.407.407,0,0,0,.333-.409l-.019-.821.018-.007L28.67,13.9v.829a.407.407,0,0,0,.336.4,4.217,4.217,0,0,1,1.553.619.407.407,0,0,0,.5-.042l.632-.569.729.693-.606.558a.407.407,0,0,0-.053.539,3.826,3.826,0,0,1,.643,1.48.407.407,0,0,0,.4.326h.88v.949Zm2.3-.965H34.493V18.7a.786.786,0,0,0-.823-.784h-.551a4.66,4.66,0,0,0-.5-1.167L33,16.4a.778.778,0,0,0,.039-1.1l-.019-.019-.772-.734a.824.824,0,0,0-1.1-.037l-.015.013-.409.377a5.011,5.011,0,0,0-1.245-.5v-.5a.813.813,0,0,0-.8-.8H27.612l-.038,0a.822.822,0,0,0-.764.791l.012.531a5.134,5.134,0,0,0-1.248.492l-.393-.386a.824.824,0,0,0-1.1-.037l-.02.018-.752.716a.777.777,0,0,0-.039,1.1l.014.015.374.367a4.546,4.546,0,0,0-.509,1.157H22.6l-.038,0a.821.821,0,0,0-.764.782v.071H20.314V16.649a7.535,7.535,0,0,1,4.853-7.036,5.249,5.249,0,0,0,5.959,0,7.535,7.535,0,0,1,4.853,7.036Z" transform="translate(0)"/><path class="a" d="M51.041,81.047a2.685,2.685,0,1,0,2.8,2.683A2.746,2.746,0,0,0,51.041,81.047Zm0,4.551a1.872,1.872,0,1,1,1.985-1.869A1.932,1.932,0,0,1,51.041,85.6Z" transform="translate(-22.894 -64.557)"/></g></svg>