<svg xmlns="http://www.w3.org/2000/svg" width="49.927" height="49.927" viewBox="0 0 49.927 49.927"><defs><style>.a{fill:#fff;}.b{fill:#5caebf;}</style></defs><g transform="translate(0)"><path class="a" d="M32.448,9.354A24.428,24.428,0,0,0,1.471,40.776a.966.966,0,1,0,1.814-.662A22.5,22.5,0,0,1,31.812,11.177a.965.965,0,1,0,.636-1.823Zm0,0" transform="translate(0 -6.897)"/><path class="a" d="M45.244,140.958l3.057-4.149a.965.965,0,0,0-.9-1.53l-7.578.984a.966.966,0,0,0-.828,1.122l1.305,7.53a.966.966,0,0,0,1.728.408l2.069-2.808a24.186,24.186,0,0,0,13.919,4.354A24.423,24.423,0,0,0,80.549,113.05a.966.966,0,1,0-1.782.745,22.486,22.486,0,0,1-33.524,27.163Zm0,0" transform="translate(-33.604 -96.94)"/><path class="b" d="M265.316,0a.965.965,0,0,0-.966.965v5.1h-5.385a.965.965,0,1,0,0,1.931h5.385v5.385a.965.965,0,0,0,1.931,0V7.993h5.1a.965.965,0,0,0,0-1.931h-5.1V.965A.965.965,0,0,0,265.316,0Zm0,0" transform="translate(-222.416)"/><path class="b" d="M139.174,106.174l-.048,0-.048,0A4.133,4.133,0,0,1,135,102.046a.965.965,0,1,0-1.931,0,6.069,6.069,0,0,0,5.094,5.981v2.143a.965.965,0,1,0,1.931,0v-2.143a6.059,6.059,0,0,0-.965-12.041,4.128,4.128,0,1,1,4.128-4.128.965.965,0,0,0,1.931,0,6.068,6.068,0,0,0-5.094-5.982V83.966a.965.965,0,1,0-1.931,0v1.911a6.059,6.059,0,0,0,.965,12.041,4.128,4.128,0,0,1,.048,8.256Zm0,0" transform="translate(-114.714 -71.553)"/></g></svg>