<svg xmlns="http://www.w3.org/2000/svg" width="29.727" height="29.947" viewBox="0 0 29.727 29.947"><defs><style>.a{fill:red;}</style></defs><g transform="translate(-86.673 774.613)"><g transform="translate(86.673 -774.613)"><g transform="translate(7.366 0)"><path class="a" d="M275.232-774.588a1.643,1.643,0,0,1-.3.037,9.987,9.987,0,0,0-2.307.579c-.045.021-.172.074-.287.119a11.1,11.1,0,0,0-1.215.583.769.769,0,0,1-.213.1c-.062.016-.111.045-.111.062s-.033.041-.07.057a1.082,1.082,0,0,0-.2.107,1.786,1.786,0,0,1-.217.123,1.188,1.188,0,0,0-.23.144.713.713,0,0,1-.16.1,14.685,14.685,0,0,0-1.79,1.3,7.581,7.581,0,0,0-.866.924.409.409,0,0,1-.086.123,7.421,7.421,0,0,0-.6.94c-.045.1-.135.283-.193.406a2.8,2.8,0,0,0-.263,1.379,1.472,1.472,0,0,0,.488,1.133,1.886,1.886,0,0,0,1.371.558,3.244,3.244,0,0,0,1.149-.131c.135-.037.316-.082.4-.107a1.008,1.008,0,0,0,.226-.078c.094-.049.624-.287.648-.287a16.143,16.143,0,0,0,1.74-1.063c.529-.353.993-.661,1.034-.681s.287-.172.554-.332.6-.345.731-.415.328-.172.431-.226.3-.14.431-.189.3-.123.369-.152.168-.074.226-.1a3.472,3.472,0,0,1,.874-.156,1.45,1.45,0,0,1,1.572.993,2.055,2.055,0,0,1,.078.8,3.075,3.075,0,0,1-.213,1.313c-.033.078-.078.189-.1.246a9.429,9.429,0,0,1-1.112,1.839,15.836,15.836,0,0,1-2.1,2.175c-.226.189-.476.394-.554.46a7.055,7.055,0,0,1-.6.435c-.09.057-.238.156-.328.222a11,11,0,0,1-1.313.7l-.337.148a.623.623,0,0,1-.209.057.877.877,0,0,0-.209.045.392.392,0,0,1-.538-.361c0-.336.16-.55,1.17-1.551,1.092-1.084,1.211-1.244,1.211-1.654a1,1,0,0,0-.653-.94,1.023,1.023,0,0,0-.616-.115,1.573,1.573,0,0,0-.928.234c-.066.041-.168.094-.226.123a.708.708,0,0,0-.123.074c-.012.012-.094.074-.185.144a5.484,5.484,0,0,0-.817.837,5.716,5.716,0,0,0-.521.866,4.19,4.19,0,0,0-.406,1.584,1.752,1.752,0,0,0,1.17,1.79,5.363,5.363,0,0,0,1.383,0,7.834,7.834,0,0,0,1.116-.345.17.17,0,0,1,.1-.037,12.579,12.579,0,0,0,1.744-.891c.094-.062.2-.131.242-.156s.23-.14.431-.263.369-.238.382-.25a3.573,3.573,0,0,1,.308-.226l.41-.283c.07-.049.263-.2.431-.333a16.392,16.392,0,0,0,2.561-2.463c.09-.111.172-.213.185-.226.033-.025.312-.427.5-.731a5.338,5.338,0,0,0,.291-.5c.078-.148.185-.349.238-.451s.168-.37.259-.6.172-.447.189-.492a9.451,9.451,0,0,0,.369-1.58,6.079,6.079,0,0,0-.148-2.155,3.525,3.525,0,0,0-.238-.6,4.494,4.494,0,0,0-1.457-1.765,2.142,2.142,0,0,1-.23-.181,5.767,5.767,0,0,0-1.338-.6,6.754,6.754,0,0,0-.776-.172A8.852,8.852,0,0,0,275.232-774.588Z" transform="translate(-266.125 774.613)"/></g><g transform="translate(0 19.4)"><g transform="translate(26.713 0.908)"><path class="a" d="M739.157-279.831c-.012.008-.2.045-.427.082s-.6.094-.821.135l-.41.07v3.776c0,4.1-.008,3.928.234,4.441a1.5,1.5,0,0,0,.374.488,2.178,2.178,0,0,0,1.707.525c.739,0,.71.029.694-.653l-.012-.493-.316-.029c-.562-.049-.833-.275-.895-.743-.016-.14-.029-1.9-.025-3.9C739.264-279.6,739.256-279.929,739.157-279.831Z" transform="translate(-737.499 279.845)"/></g><g transform="translate(15.727 0.943)"><path class="a" d="M471.12-278.938a5.352,5.352,0,0,0-1.252.238c-.029.033-.033,1.342-.021,3.846a25.925,25.925,0,0,0,.094,3.981,1.774,1.774,0,0,0,.447.747,2.427,2.427,0,0,0,1.884.607c.5,0,.571-.008.6-.074a3.988,3.988,0,0,0,.029-.956c-.025-.1-.041-.107-.349-.131a.851.851,0,0,1-.78-.439l-.1-.185-.012-2.126a16.22,16.22,0,0,1,.037-2.188c.037-.045.177-.057.616-.057.677,0,.62.066.6-.718l-.012-.534-.575-.02a3.986,3.986,0,0,1-.624-.053,3.212,3.212,0,0,1-.053-1.018V-279l-.09,0C471.509-278.992,471.312-278.967,471.12-278.938Z" transform="translate(-469.841 279)"/></g><g transform="translate(0 2.844)"><path class="a" d="M89.457-232.674a6.568,6.568,0,0,0-1.272.3,1.6,1.6,0,0,1-.185.066,3.4,3.4,0,0,0-.78.39,1.342,1.342,0,0,0,.078.213,5.391,5.391,0,0,0,.394.809.372.372,0,0,0,.094-.037,4.445,4.445,0,0,1,.665-.271c.123-.037.271-.086.328-.107a3.265,3.265,0,0,1,1.125-.078c.558.09.763.349.8,1.01.016.365.016.374-.078.4a7.4,7.4,0,0,1-.837.029,3.459,3.459,0,0,0-1.909.365,2.224,2.224,0,0,0-1.137,1.4,2.787,2.787,0,0,0,.025,1.313,2.587,2.587,0,0,0,2.471,1.835,4.547,4.547,0,0,0,2.992-.862l.267-.218.012-2.171c.012-2.516.008-2.6-.3-3.218a2.336,2.336,0,0,0-.874-.846c-.131-.062-.275-.123-.32-.144A4.162,4.162,0,0,0,89.457-232.674Zm1.211,3.957a7.864,7.864,0,0,1,.041,1.112c0,1.166.016,1.092-.287,1.252a1.386,1.386,0,0,1-.64.078h-.5l-.205-.14a1.226,1.226,0,0,1-.287-.267,1.527,1.527,0,0,1,.037-1.625,1.686,1.686,0,0,1,.521-.369.188.188,0,0,0,.111-.037c.057-.062.246-.078.726-.07C90.532-228.779,90.639-228.767,90.667-228.718Z" transform="translate(-86.673 232.686)"/></g><g transform="translate(10.726 2.876)"><path class="a" d="M350.3-231.825a4.555,4.555,0,0,0-2.126,1.141l-.172.156v6.062c0,.066.062.07.895.062l.891-.012.012-2.861.008-2.857.156-.123a1.374,1.374,0,0,1,.513-.275,2.809,2.809,0,0,1,1.059-.1,1.522,1.522,0,0,0,.345.012.909.909,0,0,0,.168-.312c.062-.164.16-.378.209-.476.135-.259.123-.324-.057-.365-.086-.021-.242-.057-.353-.082A5.061,5.061,0,0,0,350.3-231.825Z" transform="translate(-348 231.903)"/></g><g transform="translate(19.566 2.917)"><path class="a" d="M565.749-230.851a.876.876,0,0,0-.283.078.171.171,0,0,1-.1.037,1.4,1.4,0,0,0-.324.131,3.109,3.109,0,0,0-1.006.936,4.2,4.2,0,0,0-.423.882,1.545,1.545,0,0,1-.062.205c-.016.045-.066.222-.107.39a8,8,0,0,0,0,2.278,4.106,4.106,0,0,0,.361.965.042.042,0,0,1,.037.045,3.048,3.048,0,0,0,.833,1.055,2.949,2.949,0,0,0,.747.386,4.956,4.956,0,0,0,1.153.2,5.16,5.16,0,0,0,1.982-.472,1.382,1.382,0,0,1,.25-.123,1.292,1.292,0,0,0,.427-.263,3.572,3.572,0,0,0-.484-.989.389.389,0,0,0-.16.082.367.367,0,0,1-.16.082.3.3,0,0,0-.135.057,3.925,3.925,0,0,1-.472.189,2.159,2.159,0,0,1-.965.14c-.509,0-.6-.008-.759-.086a1.972,1.972,0,0,1-.9-1.9,2.688,2.688,0,0,1,.012-.373c0-.008.915-.021,2.019-.033l2.011-.021-.012-.41a5.811,5.811,0,0,0-.423-2.134c-.016-.025-.074-.127-.127-.23a2.162,2.162,0,0,0-1.244-1A4.106,4.106,0,0,0,565.749-230.851Zm.882,1.305c.172.045.534.337.534.427a.545.545,0,0,0,.062.16,1.755,1.755,0,0,1,.1.87c-.041.053-.2.062-1.03.062h-.981l-.025-.1a1.7,1.7,0,0,1,.255-.989,1.043,1.043,0,0,1,.579-.435,1.027,1.027,0,0,1,.287-.053C566.438-229.6,566.537-229.57,566.631-229.546Z" transform="translate(-563.362 230.896)"/></g><g transform="translate(7.135 0)"><path class="a" d="M261.177-301.9a1.145,1.145,0,0,0-.542.439c-.131.2-.135.218-.135.636v.435l.156.213a1.023,1.023,0,0,0,.579.435,1.145,1.145,0,0,0,1.047-.156,1.221,1.221,0,0,0,.324-1.519.953.953,0,0,0-.423-.427A1.339,1.339,0,0,0,261.177-301.9Z" transform="translate(-260.5 301.97)"/><path class="a" d="M267.416-228.69a3.212,3.212,0,0,1-.41.078c-.156.021-.443.062-.636.09a2.178,2.178,0,0,0-.382.074c-.037.033-.041,7.006-.008,7.068a5.164,5.164,0,0,0,.862.037c.837,0,.841,0,.862-.094.012-.049.016-1.707.012-3.682-.012-3.559-.012-3.591-.094-3.6A.679.679,0,0,0,267.416-228.69Z" transform="translate(-265.734 231.726)"/></g></g></g></g></svg>