<svg xmlns="http://www.w3.org/2000/svg" width="234" height="72" viewBox="0 0 234 72"><defs><style>.a{fill:#fff;opacity:0.9;}.b{font-size:12px;font-family:SFProDisplay-Bold, SF Pro Display;font-weight:700;}.b,.d,.e{opacity:0.84;}.c{letter-spacing:0.08em;}.d{font-size:26px;font-family:SFProDisplay-Regular, SF Pro Display;}</style></defs><rect class="a" width="234" height="72" rx="36"/><text class="b" transform="translate(70 25)"><tspan class="c" x="0" y="0">Download on th</tspan><tspan y="0">e</tspan></text><text class="d" transform="translate(70 53)"><tspan x="0" y="0">App Store</tspan></text><path class="e" d="M3.982,32.942c-3.253-4.679-5.736-13.232-2.4-19A9.264,9.264,0,0,1,9.413,9.21c2.445-.045,4.756,1.641,6.249,1.641s4.3-2.024,7.247-1.727a8.849,8.849,0,0,1,6.921,3.735,8.54,8.54,0,0,0-4.085,7.183,8.327,8.327,0,0,0,5.079,7.627A20.7,20.7,0,0,1,28.2,33.034c-1.579,2.3-3.213,4.585-5.792,4.632-2.539.048-3.353-1.5-6.249-1.5s-3.806,1.449-6.2,1.545l-.13,0C7.4,37.717,5.547,35.191,3.982,32.942ZM15.363,8.693a7.878,7.878,0,0,1,2.01-5.836A8.51,8.51,0,0,1,22.948,0a8.3,8.3,0,0,1-1.971,6.024,7.184,7.184,0,0,1-5.231,2.684Q15.555,8.708,15.363,8.693Z" transform="translate(22.341 15.3)"/></svg>