<svg xmlns="http://www.w3.org/2000/svg" xmlns:xlink="http://www.w3.org/1999/xlink" width="1920.945" height="900" viewBox="0 0 1920.945 900"><defs><style>.a,.aj{fill:#003844;}.b{fill:#4bb396;opacity:0.06;}.c{opacity:0.1;}.d{fill:#e6e7e8;}.as,.e,.h,.j,.l{opacity:0.2;}.ap,.f{opacity:0.3;}.ab,.am,.ar,.as,.g,.r{fill:#fff;}.h{fill:url(#a);}.i{fill:#6fa38f;opacity:0.24;}.ak,.j{fill:#73ad60;}.al,.ay,.k{opacity:0.7;}.k{fill:url(#b);}.l{fill:#2e745c;}.m{fill:#14757f;}.n{fill:#1f7a89;}.o{fill:#3faeba;}.p{fill:#d7eace;}.q{fill:#77859a;}.q,.r{opacity:0.8;}.ay,.s{fill:url(#c);}.t{fill:url(#f);}.u{fill:url(#g);}.v{fill:url(#h);}.w{fill:url(#i);}.x{opacity:0.6;}.y{fill:#0e5e66;}.aa,.ah,.ar,.z{opacity:0.5;}.aa,.af,.am,.z{mix-blend-mode:soft-light;}.aa,.af,.am,.ap,.z{isolation:isolate;}.z{fill:url(#j);}.aa{fill:url(#k);}.ab{opacity:0.12;}.ac{fill:#f7c961;}.ad,.ap{fill:#f7b320;}.ae{fill:#f7b523;}.af{fill:#edd9b2;}.af,.am{opacity:0.35;}.ag{fill:#ffe2a9;}.ah{fill:url(#l);}.ai{fill:#f7f8fa;}.aj{opacity:0.9;}.an{fill:#fed978;}.ao{fill:#ffc532;}.ap{mix-blend-mode:multiply;}.aq{fill:url(#m);}.at{fill:#fcb088;}.au{fill:#192953;}.av{fill:#e4efd8;}.aw{fill:#f3ab9c;}.ax{fill:#efe6dc;}.az{fill:url(#o);}.ba{fill:url(#p);}.bb{fill:#f69982;}.bc{fill:#231f20;opacity:0.15;}.bd{fill:#efa17f;}.be{fill:none;stroke:#fff;stroke-miterlimit:10;stroke-dasharray:5;}</style><linearGradient id="a" x1="-31.918" y1="-8.427" x2="-35.548" y2="-6.474" gradientUnits="objectBoundingBox"><stop offset="0" stop-color="#99ec97"/><stop offset="0.772" stop-color="#3e9077"/></linearGradient><linearGradient id="b" x1="-1.073" y1="0.16" x2="-4.403" y2="2.361" xlink:href="#a"/><linearGradient id="c" x1="0" y1="0.5" x2="1" y2="0.5" xlink:href="#a"/><linearGradient id="f" x1="-2.314" y1="-1.572" x2="3.151" y2="2.452" xlink:href="#a"/><linearGradient id="g" x1="-3.298" y1="-2.319" x2="2.146" y2="1.722" xlink:href="#a"/><linearGradient id="h" x1="-4.275" y1="-3.072" x2="1.148" y2="0.985" xlink:href="#a"/><linearGradient id="i" x1="0.5" y1="-1.542" x2="0.5" y2="4.115" xlink:href="#a"/><linearGradient id="j" x1="0.5" y1="-0.077" x2="0.5" y2="1.328" gradientUnits="objectBoundingBox"><stop offset="0" stop-color="#9ed8ff" stop-opacity="0"/><stop offset="0.434" stop-color="#fff"/><stop offset="0.987" stop-color="#fff" stop-opacity="0"/></linearGradient><linearGradient id="k" x1="-172.545" y1="-0.077" x2="-172.545" y2="1.328" xlink:href="#j"/><linearGradient id="l" x1="-0.291" y1="0.27" x2="1.051" y2="0.659" xlink:href="#a"/><linearGradient id="m" x1="0.297" y1="-0.615" x2="1.56" y2="0.561" gradientUnits="objectBoundingBox"><stop offset="0" stop-color="#99ec97"/><stop offset="1" stop-color="#3e9077"/></linearGradient><linearGradient id="o" x1="0" y1="0.5" x2="1" y2="0.5" xlink:href="#m"/><radialGradient id="p" cx="-0.907" cy="-0.234" r="2.287" gradientTransform="translate(-0.386) scale(1.772 1)" gradientUnits="objectBoundingBox"><stop offset="0.009" stop-color="#4bb396"/><stop offset="0.178" stop-color="#4bae95"/><stop offset="0.356" stop-color="#4ba294"/><stop offset="0.537" stop-color="#4d8d93"/><stop offset="0.72" stop-color="#4e6f91"/><stop offset="0.904" stop-color="#504a8e"/><stop offset="1" stop-color="#52348d"/></radialGradient></defs><rect class="a" width="1920.945" height="900"/><path class="b" d="M1920.945,0H1626.5c28.685,57.614,100.779,97.129,92.917,168.6-12.306,111.88-135.474,173.505-229.288,206.128-123.98,43.113-252.025,73.279-377.451,111.943C866.551,562.539,791,761.7,813.278,900H1920.945Z"/><g class="c"><path class="d" d="M149.4,226.711a3.327,3.327,0,1,0-3.324,3.324A3.334,3.334,0,0,0,149.4,226.711Z"/><path class="d" d="M149.4,193.381a3.327,3.327,0,1,0-3.324,3.319A3.332,3.332,0,0,0,149.4,193.381Z"/><path class="d" d="M149.4,160.051a3.327,3.327,0,1,0-3.324,3.319A3.332,3.332,0,0,0,149.4,160.051Z"/><path class="d" d="M182.728,226.711a3.327,3.327,0,1,0-3.324,3.324A3.334,3.334,0,0,0,182.728,226.711Z"/><path class="d" d="M182.728,193.381A3.327,3.327,0,1,0,179.4,196.7,3.33,3.33,0,0,0,182.728,193.381Z"/><path class="d" d="M182.728,160.051a3.327,3.327,0,1,0-3.324,3.319A3.33,3.33,0,0,0,182.728,160.051Z"/><path class="d" d="M216.058,226.711a3.327,3.327,0,1,0-3.323,3.324A3.334,3.334,0,0,0,216.058,226.711Z"/><path class="d" d="M216.058,193.381a3.327,3.327,0,1,0-3.324,3.319A3.33,3.33,0,0,0,216.058,193.381Z"/><path class="d" d="M216.058,160.051a3.327,3.327,0,1,0-3.323,3.319A3.33,3.33,0,0,0,216.058,160.051Z"/><path class="d" d="M249.591,193.381a3.327,3.327,0,1,0-3.324,3.319A3.33,3.33,0,0,0,249.591,193.381Z"/><path class="d" d="M249.591,160.051a3.327,3.327,0,1,0-3.324,3.319A3.33,3.33,0,0,0,249.591,160.051Z"/><path class="d" d="M282.921,193.381A3.327,3.327,0,1,0,279.6,196.7,3.33,3.33,0,0,0,282.921,193.381Z"/><path class="d" d="M282.921,160.051a3.327,3.327,0,1,0-3.324,3.319A3.33,3.33,0,0,0,282.921,160.051Z"/><path class="d" d="M316.967,193.381a3.327,3.327,0,1,0-3.323,3.319A3.33,3.33,0,0,0,316.967,193.381Z"/><path class="d" d="M316.967,160.051a3.327,3.327,0,1,0-3.323,3.319A3.33,3.33,0,0,0,316.967,160.051Z"/><path class="d" d="M249.388,226.711a3.326,3.326,0,1,0-3.324,3.324A3.334,3.334,0,0,0,249.388,226.711Z"/><path class="d" d="M349.377,193.381a3.327,3.327,0,1,0-3.323,3.319A3.328,3.328,0,0,0,349.377,193.381Z"/><path class="d" d="M349.377,160.051a3.327,3.327,0,1,0-3.323,3.319A3.328,3.328,0,0,0,349.377,160.051Z"/></g><g class="e"><path class="d" d="M1658.948,878.611a3.326,3.326,0,1,0-3.324,3.319A3.332,3.332,0,0,0,1658.948,878.611Z"/><path class="d" d="M1658.948,851.282a3.326,3.326,0,1,0-3.324,3.318A3.332,3.332,0,0,0,1658.948,851.282Z"/><path class="d" d="M1692.278,878.611a3.327,3.327,0,1,0-3.324,3.319A3.331,3.331,0,0,0,1692.278,878.611Z"/><path class="d" d="M1692.278,851.282a3.326,3.326,0,1,0-3.324,3.318A3.331,3.331,0,0,0,1692.278,851.282Z"/><path class="d" d="M1725.607,878.611a3.327,3.327,0,1,0-3.323,3.319A3.331,3.331,0,0,0,1725.607,878.611Z"/><path class="d" d="M1725.607,851.281a3.327,3.327,0,1,0-3.323,3.319A3.331,3.331,0,0,0,1725.607,851.281Z"/><path class="d" d="M1759.14,878.611a3.326,3.326,0,1,0-3.324,3.319A3.331,3.331,0,0,0,1759.14,878.611Z"/><path class="d" d="M1759.14,851.282a3.326,3.326,0,1,0-3.324,3.318A3.331,3.331,0,0,0,1759.14,851.282Z"/><path class="d" d="M1792.47,878.611a3.326,3.326,0,1,0-3.324,3.319A3.331,3.331,0,0,0,1792.47,878.611Z"/><path class="d" d="M1792.47,851.281a3.326,3.326,0,1,0-3.323,3.319A3.331,3.331,0,0,0,1792.47,851.281Z"/><path class="d" d="M1826.517,878.611a3.326,3.326,0,1,0-3.324,3.319A3.332,3.332,0,0,0,1826.517,878.611Z"/><path class="d" d="M1826.517,851.281a3.326,3.326,0,1,0-3.324,3.319A3.332,3.332,0,0,0,1826.517,851.281Z"/><path class="d" d="M1858.927,878.611a3.326,3.326,0,1,0-3.324,3.319A3.329,3.329,0,0,0,1858.927,878.611Z"/><path class="d" d="M1858.927,851.281a3.326,3.326,0,1,0-3.324,3.319A3.329,3.329,0,0,0,1858.927,851.281Z"/></g><g class="c" transform="translate(0 90)"><path class="d" d="M1266.531,105.611a3.326,3.326,0,1,0-3.324,3.324A3.334,3.334,0,0,0,1266.531,105.611Z"/><path class="d" d="M1266.531,72.281a3.327,3.327,0,1,0-3.324,3.319A3.33,3.33,0,0,0,1266.531,72.281Z"/><path class="d" d="M1266.531,38.951a3.326,3.326,0,1,0-3.324,3.319A3.331,3.331,0,0,0,1266.531,38.951Z"/><path class="d" d="M1299.861,105.611a3.327,3.327,0,1,0-3.324,3.324A3.335,3.335,0,0,0,1299.861,105.611Z"/><path class="d" d="M1299.86,72.281a3.326,3.326,0,1,0-3.323,3.319A3.33,3.33,0,0,0,1299.86,72.281Z"/><path class="d" d="M1299.861,38.951a3.326,3.326,0,1,0-3.324,3.318A3.332,3.332,0,0,0,1299.861,38.951Z"/><path class="d" d="M1333.393,72.281a3.326,3.326,0,1,0-3.324,3.319A3.33,3.33,0,0,0,1333.393,72.281Z"/><path class="d" d="M1333.393,38.951a3.326,3.326,0,1,0-3.324,3.319A3.331,3.331,0,0,0,1333.393,38.951Z"/><path class="d" d="M1366.723,72.281A3.327,3.327,0,1,0,1363.4,75.6,3.33,3.33,0,0,0,1366.723,72.281Z"/><path class="d" d="M1366.723,38.951a3.327,3.327,0,1,0-3.323,3.318A3.331,3.331,0,0,0,1366.723,38.951Z"/><path class="d" d="M1333.191,105.611a3.327,3.327,0,1,0-3.324,3.324A3.335,3.335,0,0,0,1333.191,105.611Z"/><path class="d" d="M1366.521,105.611a3.326,3.326,0,1,0-3.325,3.324A3.334,3.334,0,0,0,1366.521,105.611Z"/></g><g transform="translate(22.883 29.34)"><g class="f" transform="translate(1624.196 163.781)"><path class="g" d="M1680.368,173.31a3.076,3.076,0,1,0-3.076-3.076A3.075,3.075,0,0,0,1680.368,173.31Z" transform="translate(-1677.292 -167.159)"/><path class="g" d="M1680.368,192.805a3.076,3.076,0,1,0-3.076-3.076A3.075,3.075,0,0,0,1680.368,192.805Z" transform="translate(-1677.292 -168.814)"/><path class="g" d="M1680.368,212.3a3.076,3.076,0,1,0-3.076-3.076A3.075,3.075,0,0,0,1680.368,212.3Z" transform="translate(-1677.292 -170.47)"/><path class="g" d="M1680.368,231.794a3.075,3.075,0,1,0-3.076-3.075A3.075,3.075,0,0,0,1680.368,231.794Z" transform="translate(-1677.292 -172.125)"/><path class="g" d="M1680.368,251.289a3.075,3.075,0,1,0-3.076-3.075A3.075,3.075,0,0,0,1680.368,251.289Z" transform="translate(-1677.292 -173.78)"/><path class="g" d="M1680.368,270.784a3.075,3.075,0,1,0-3.076-3.076A3.075,3.075,0,0,0,1680.368,270.784Z" transform="translate(-1677.292 -175.435)"/><path class="g" d="M1696.964,198.936a3.076,3.076,0,1,0-3.076-3.076A3.076,3.076,0,0,0,1696.964,198.936Z" transform="translate(-1678.701 -169.335)"/><path class="g" d="M1696.964,218.43a3.075,3.075,0,1,0-3.076-3.075A3.075,3.075,0,0,0,1696.964,218.43Z" transform="translate(-1678.701 -170.99)"/><path class="g" d="M1696.964,237.925a3.075,3.075,0,1,0-3.076-3.076A3.076,3.076,0,0,0,1696.964,237.925Z" transform="translate(-1678.701 -172.645)"/><path class="g" d="M1696.964,257.42a3.076,3.076,0,1,0-3.076-3.076A3.076,3.076,0,0,0,1696.964,257.42Z" transform="translate(-1678.701 -174.301)"/><path class="g" d="M1696.964,276.915a3.076,3.076,0,1,0-3.076-3.076A3.076,3.076,0,0,0,1696.964,276.915Z" transform="translate(-1678.701 -175.956)"/><path class="g" d="M1696.964,296.41a3.076,3.076,0,1,0-3.076-3.076A3.076,3.076,0,0,0,1696.964,296.41Z" transform="translate(-1678.701 -177.611)"/></g><g class="f" transform="translate(1051.955 547.932)"><path class="g" d="M1055.031,593.105a3.076,3.076,0,1,0-3.076-3.076A3.076,3.076,0,0,0,1055.031,593.105Z" transform="translate(-1051.955 -586.954)"/><path class="g" d="M1055.031,612.6a3.075,3.075,0,1,0-3.076-3.076A3.076,3.076,0,0,0,1055.031,612.6Z" transform="translate(-1051.955 -588.609)"/><path class="g" d="M1055.031,632.1a3.076,3.076,0,1,0-3.076-3.076A3.076,3.076,0,0,0,1055.031,632.1Z" transform="translate(-1051.955 -590.265)"/><path class="g" d="M1055.031,651.59a3.076,3.076,0,1,0-3.076-3.076A3.076,3.076,0,0,0,1055.031,651.59Z" transform="translate(-1051.955 -591.92)"/><path class="g" d="M1055.031,671.084a3.075,3.075,0,1,0-3.076-3.075A3.075,3.075,0,0,0,1055.031,671.084Z" transform="translate(-1051.955 -593.575)"/><path class="g" d="M1055.031,690.579a3.075,3.075,0,1,0-3.076-3.075A3.075,3.075,0,0,0,1055.031,690.579Z" transform="translate(-1051.955 -595.23)"/><path class="g" d="M1071.627,618.731a3.076,3.076,0,1,0-3.077-3.076A3.076,3.076,0,0,0,1071.627,618.731Z" transform="translate(-1053.364 -589.13)"/><path class="g" d="M1071.627,638.225a3.075,3.075,0,1,0-3.077-3.075A3.075,3.075,0,0,0,1071.627,638.225Z" transform="translate(-1053.364 -590.785)"/><path class="g" d="M1071.627,657.72a3.075,3.075,0,1,0-3.077-3.076A3.075,3.075,0,0,0,1071.627,657.72Z" transform="translate(-1053.364 -592.44)"/><path class="g" d="M1071.627,677.215a3.075,3.075,0,1,0-3.077-3.075A3.076,3.076,0,0,0,1071.627,677.215Z" transform="translate(-1053.364 -594.096)"/><path class="g" d="M1071.627,696.71a3.075,3.075,0,1,0-3.077-3.076A3.076,3.076,0,0,0,1071.627,696.71Z" transform="translate(-1053.364 -595.751)"/><path class="g" d="M1071.627,716.205a3.076,3.076,0,1,0-3.077-3.076A3.076,3.076,0,0,0,1071.627,716.205Z" transform="translate(-1053.364 -597.406)"/></g><g transform="translate(1055.808 127.377)"><g transform="translate(176.825 176.224)"><g transform="translate(0 167.792)"><path class="h" d="M1271.409,684.839c2.321-5.307,5.762-10.125,7.51-15.647a10.273,10.273,0,0,0,.384-6.208c-1.335-4.112-6.191-5.62-9.955-7.734-11.547-6.483-14.854-21.283-17-34.349-.6-3.628-1.113-7.66.943-10.711,2.988-4.431,9.421-4.275,14.754-3.892s11.975-.278,14.028-5.213c2.032-4.89-2.26-10.214-6.972-12.626-5.342-2.731-11.5-3.551-16.856-6.248s-10.091-8.447-8.553-14.246c1.829-6.892,10.485-8.822,17.553-9.791s15.738-3.907,16.37-11.01c.365-4.031-2.346-7.825-5.758-10s-7.462-3.063-11.387-4.043c-2.162-.539-4.491-1.23-5.792-3.037-1.2-1.66-1.239-3.877-.974-5.906,1.516-11.5,12.428-20.974,24.022-20.862s22.325,9.791,23.622,21.309c.49,4.372.773,10.214,5.066,11.158,5.64,1.239,7.452-7.615,12.142-10.974,3.943-2.82,9.863-1.03,12.865,2.769s3.671,8.942,3.543,13.781c-.247,9.314-3,18.351-4.97,27.45a8,8,0,0,0-.1,4.4c.848,2.337,3.586,3.384,6.062,3.6,5.583.49,10.982-1.762,16.427-3.077s11.864-1.459,15.923,2.406c4.375,4.161,4.161,11.351,1.848,16.931s-6.3,10.324-8.8,15.823c-.735,1.612-1.343,3.427-.835,5.123.789,2.62,3.784,3.759,6.408,4.544q21.2,6.331,42.4,12.663c1.946.582,4.072,1.3,5.11,3.047a6.989,6.989,0,0,1,.788,2.868c1.085,10.567-5.425,20.71-13.88,27.14s-18.706,9.923-28.584,13.829c-2.735,1.084-5.521,2.244-7.668,4.252-3.014,2.817-4.389,6.919-5.7,10.832q-4.273,12.767-9.153,25.322c-1.686,4.327-3.768,9.019-7.969,11.006a7.714,7.714,0,0,1-8.464-1.76c-.119-.422-.266-.829-.414-1.236l.314,1.131a4.458,4.458,0,0,1-1.17-3.119c-3.685-7.279-12.095-12.041-20.386-13.65-10.029-1.945-20.393-.576-30.575-1.426-6.354-.533-13.349-2.425-16.613-7.906C1268,696.578,1269.087,690.146,1271.409,684.839Z" transform="translate(-1249.397 -503.313)"/><path class="i" d="M1315.824,696.652a28.239,28.239,0,0,1,23.433-4.085c-1.936-10.17-2.861-20.357-3.95-30.63a.857.857,0,0,1-.2-.022,282.145,282.145,0,0,1-28.619-11.04c-1.019-.463-.434-2.1.591-1.641a281.448,281.448,0,0,0,28.022,10.839c-.115-1.047-.224-2.093-.346-3.142-1.385-12.073-5.188-23.561-9.133-34.993a.9.9,0,0,1-.21-.056,117.336,117.336,0,0,1-22.9-14.539c-.864-.7.133-2.134,1.006-1.425a115.209,115.209,0,0,0,21.313,13.737c-.27-.776-.538-1.558-.807-2.333q-7.091-20.559-14.9-40.866c-.4-1.042,1.174-1.791,1.576-.741q5.334,13.916,10.319,27.955,2.668-2.743,5.338-5.487c1.692-1.742,6.97-5.756,6.375-8.431-.243-1.1,1.471-1.409,1.715-.318.566,2.544-1.241,4.189-2.892,5.89q-4.942,5.091-9.889,10.169c1.312,3.7,2.653,7.38,3.933,11.088,2.7,7.83,5.538,15.7,7.694,23.727q10.308-7.449,20.612-14.9c.905-.654,2.03.676,1.118,1.337l-21.154,15.29a.729.729,0,0,1-.12.054,106.019,106.019,0,0,1,2.4,11.961c1.194,8.8,1.87,17.586,2.965,26.345a66.683,66.683,0,0,1,25.363-20.1.872.872,0,0,1,.741,1.579,64.824,64.824,0,0,0-25.522,20.59.865.865,0,0,1-.277.245c.534,3.964,1.166,7.926,2,11.879,2.889,13.677,6.875,27.086,10.851,40.478.322,1.074-1.4,1.383-1.711.316-3.859-12.987-7.729-25.988-10.59-39.235-.123-.565-.224-1.128-.338-1.695a.357.357,0,0,1-.054,0,26.406,26.406,0,0,0-22.637,3.537C1316.025,698.618,1314.9,697.286,1315.824,696.652Z" transform="translate(-1253.879 -509.418)"/></g><path class="j" d="M1561.106,602.543h131.717s32.005-14,18.465-65.705-28.313-80.015,19.7-93.555,104.634-56.626,51.7-48.008-74.153,40.861-87.4,14.771c-13.493-26.573,48.435-94.557,3.693-89.862-45.561,4.78-86.17,59.088-64.011,82.476s-14.772,29.544-27.082-3.693-28.313-78.783-38.161-34.468,27.082,68.936,32.006,107.1S1561.106,602.543,1561.106,602.543Z" transform="translate(-1275.864 -319.952)"/><g transform="translate(263.91 109.573)"><path class="k" d="M1559.669,553.853c7.526-.6,15.179.389,22.6-1,2.7-.506,5.465-1.4,7.367-3.38,3.9-4.065,2.646-10.57,2.758-16.2.343-17.256,15.31-30.164,29-40.669,3.8-2.918,8.115-5.993,12.885-5.508,6.93.7,10.71,8.191,13.551,14.554s7.691,13.586,14.624,12.908c6.87-.674,10.344-8.883,10.214-15.78-.151-7.819-3-15.395-3.2-23.211s3.494-16.791,11.1-18.595c9.045-2.139,16.588,6.617,22.051,14.141s14.176,15.676,22.723,12.033c4.857-2.062,7.547-7.513,7.948-12.771s-1.074-10.458-2.364-15.572c-.712-2.815-1.352-5.915-.076-8.522,1.17-2.4,3.692-3.81,6.186-4.754,14.141-5.333,31.745,1.37,38.752,14.758s2.491,31.676-9.943,40.254c-4.721,3.254-11.259,7.174-9.7,12.687,2.047,7.242,13.335,3.874,20.08,7.2,5.666,2.794,7.252,10.7,4.737,16.484s-8.015,9.72-13.653,12.552c-10.853,5.448-22.927,7.851-34.595,11.183-1.87.534-3.822,1.151-5.115,2.592-2.162,2.413-1.68,6.2-.406,9.18,2.873,6.716,8.782,11.533,13.644,16.979s8.978,12.733,7.036,19.774c-2.087,7.587-10.48,11.766-18.315,12.542s-15.736-.879-23.594-.372c-2.3.149-4.764.567-6.4,2.194-2.524,2.519-1.99,6.661-1.276,10.16q5.773,28.25,11.546,56.5c.529,2.6,1.014,5.479-.356,7.747a9.119,9.119,0,0,1-2.811,2.67c-11.472,7.751-27.132,6.514-39.722.757s-22.913-15.384-33.479-24.328c-2.929-2.476-5.976-4.962-9.6-6.193-5.091-1.73-10.65-.784-15.952.119q-17.3,2.947-34.726,5.07c-6.01.727-12.681,1.222-17.548-2.381a10.054,10.054,0,0,1-3.187-10.807c.411-.4.789-.816,1.165-1.236l-1.105,1.056a5.81,5.81,0,0,1,2.862-3.262c6.095-8.714,6.39-21.305,3.135-31.821-3.937-12.72-11.89-23.783-17.179-36-3.3-7.628-5.43-16.829-1.142-23.953C1544.084,557.159,1552.144,554.453,1559.669,553.853Z" transform="translate(-1537.794 -439.691)"/><path class="l" d="M1579.212,610.8a36.8,36.8,0,0,1,19.113,24.408c10.493-8.485,21.628-15.816,32.759-23.391a1.106,1.106,0,0,1-.1-.245,367.493,367.493,0,0,1-4.93-39.673c-.1-1.454,2.149-1.793,2.247-.33a366.926,366.926,0,0,0,4.793,38.864c1.132-.776,2.267-1.546,3.4-2.331,13.017-9.022,23.875-20.461,34.58-32.029a1.226,1.226,0,0,1-.065-.275,152.92,152.92,0,0,1,2.612-35.255c.276-1.426,2.534-1.16,2.256.278a150.244,150.244,0,0,0-2.666,32.942c.727-.788,1.46-1.578,2.184-2.364q19.256-20.8,37.781-42.266c.952-1.1,2.78.246,1.821,1.354q-12.7,14.693-25.766,29.06,4.795,1.377,9.589,2.755c3.042.871,10.9,4.464,13.609,2.135,1.111-.954,2.525.823,1.422,1.774-2.574,2.216-5.577,1.152-8.547.3q-8.891-2.544-17.768-5.1c-3.438,3.782-6.848,7.591-10.318,11.343-7.332,7.924-14.629,16.026-22.525,23.444l29.8,14.511c1.31.637.472,2.747-.847,2.107l-30.585-14.893a.932.932,0,0,1-.136-.1,138.267,138.267,0,0,1-12.266,10.116c-9.379,6.791-19.054,12.972-28.442,19.621a86.912,86.912,0,0,1,38.7,16.768,1.137,1.137,0,0,1-1.357,1.823A84.478,84.478,0,0,0,1610.2,629.5a1.157,1.157,0,0,1-.452-.168c-4.226,3.053-8.389,6.216-12.417,9.607-13.935,11.736-26.887,24.568-39.827,37.379-1.035,1.031-2.447-.753-1.415-1.772,12.545-12.426,25.1-24.874,38.558-36.315.572-.489,1.158-.952,1.74-1.431a.445.445,0,0,1-.031-.063,34.416,34.416,0,0,0-18-23.831C1577.076,612.246,1577.911,610.129,1579.212,610.8Z" transform="translate(-1539.317 -447.251)"/></g></g><g transform="translate(255.65)"><path class="m" d="M1579.531,127.562s42.944-7.4,43.866,71.5c1.7,145.313,1.383,335.06.922,493.441-.04,13.8-9.218,41.167-41.938,46.885Z" transform="translate(-1356.253 -127.377)"/><g transform="translate(0 0.17)"><path class="n" d="M1589.664,166.152v534.3c0,24.72-17.775,41.752-39.171,38.067L1365.71,706.7c-11.119-1.914-20.743-11.135-25.972-23.282a52.018,52.018,0,0,1-4.195-20.44V203.624c0-.661,0-1.32.028-1.985q.021-.719.084-1.443c.015-.2.028-.407.043-.593.014-.167.028-.317.042-.484.042-.464.084-.929.141-1.415.056-.523.126-1.028.211-1.573.014-.148.042-.337.07-.506.1-.583.2-1.186.31-1.753.113-.641.254-1.268.394-1.9.156-.611.311-1.241.466-1.871.17-.614.353-1.231.537-1.828.127-.424.268-.85.41-1.258.028-.078.056-.156.084-.253.1-.291.2-.582.311-.857.142-.408.3-.819.453-1.212.2-.49.4-1,.608-1.493.028-.079.071-.158.1-.237.3-.673.609-1.331.921-1.969a.329.329,0,0,1,.071-.122c.3-.637.624-1.242.95-1.848.086-.161.171-.3.256-.465.255-.466.512-.912.8-1.364.584-.961,1.181-1.889,1.822-2.769.3-.456.613-.895.942-1.3.171-.231.357-.483.557-.72.214-.257.428-.533.642-.79.229-.279.472-.559.716-.84.557-.648,1.145-1.245,1.732-1.843.316-.331.617-.622.932-.9.344-.336.689-.653,1.019-.932.489-.416.977-.833,1.467-1.212a11.186,11.186,0,0,1,.965-.72,29.539,29.539,0,0,1,4.611-2.812c.436-.224.87-.411,1.306-.616a.088.088,0,0,0,.059-.028c.465-.21.944-.385,1.425-.561l.043-.008c.408-.163.815-.289,1.224-.415a5.158,5.158,0,0,1,.511-.163c.423-.129.845-.239,1.269-.35l.1-.017q.767-.188,1.536-.32l184.783-31.82C1571.889,124.379,1589.664,141.432,1589.664,166.152Z" transform="translate(-1335.537 -127.563)"/><path class="o" d="M1589.657,166.156v485c0,24.732-17.776,42.248-39.164,39.147L1365.71,663.512c-11.12-1.612-20.739-10.579-25.967-22.582a51.163,51.163,0,0,1-4.208-20.331V203.626a51.91,51.91,0,0,1,4.208-20.429c5.228-12.144,14.847-21.39,25.967-23.3l184.783-31.818C1571.881,124.392,1589.657,141.444,1589.657,166.156Z" transform="translate(-1335.536 -127.564)"/><path class="p" d="M1584.636,167.51V651.069c0,21.32-15.3,36.491-33.774,33.873L1366.08,658.767c-14.525-2.057-26.167-18.7-26.167-37.126V203.594c0-18.432,11.642-35.386,26.167-37.838l184.782-31.2C1569.34,131.436,1584.636,146.191,1584.636,167.51Z" transform="translate(-1335.908 -128.121)"/><g transform="translate(3.822 337.812)"><g class="e"><path class="q" d="M1584.446,534.594l-.151,143.039c-2.538,18.18-16.664,30.37-33.4,27.986l-185.009-26.346c-14.086-2.006-25.474-17.714-26.169-35.459v-.331l.1-120.19c.015-15,9.455-26.909,21.236-26.567l195.835,5.637C1572.016,502.8,1584.465,517.242,1584.446,534.594Z" transform="translate(-1339.713 -496.719)"/></g><g transform="translate(0 11.435)"><path class="r" d="M1584.446,547.091l-.151,143.038c-2.538,18.181-16.664,30.37-33.4,27.986L1365.882,691.77c-14.086-2.006-25.474-17.715-26.169-35.46v-.33l.1-120.19c.015-15,9.455-26.91,21.236-26.568l195.835,5.638C1572.016,515.3,1584.465,529.739,1584.446,547.091Z" transform="translate(-1339.713 -509.215)"/></g><g class="f" transform="translate(25.573 33.589)"><g transform="translate(0 24.506)"><path class="s" d="M1548.112,583.8,1372.466,572.5c-2.658-.171-4.807-3.051-4.807-6.433h0c0-3.382,2.149-6,4.807-5.852l175.646,9.952c3.289.187,5.964,3.4,5.964,7.181h0C1554.076,581.122,1551.4,584.014,1548.112,583.8Z" transform="translate(-1367.659 -560.204)"/><path class="s" d="M1548.112,615.209l-175.646-14.188c-2.658-.214-4.807-3.13-4.807-6.512h0c0-3.382,2.149-5.966,4.807-5.773l175.646,12.831c3.289.241,5.964,3.5,5.964,7.279h0C1554.076,612.626,1551.4,615.474,1548.112,615.209Z" transform="translate(-1367.659 -562.626)"/><path class="s" d="M1548.112,646.615l-175.646-17.067c-2.658-.259-4.807-3.209-4.807-6.591h0c0-3.382,2.149-5.932,4.807-5.694l175.646,15.712c3.289.294,5.964,3.6,5.964,7.377h0C1554.076,644.132,1551.4,646.935,1548.112,646.615Z" transform="translate(-1367.659 -565.048)"/></g><g transform="translate(136.762)"><path class="t" d="M1521.417,533.428c-2.381-.091-4.307,2.1-4.307,4.889s1.925,5.137,4.307,5.242,4.327-2.084,4.327-4.889S1523.8,533.518,1521.417,533.428Z" transform="translate(-1517.111 -533.425)"/><path class="u" d="M1536.549,534c-2.418-.092-4.375,2.114-4.375,4.927s1.957,5.178,4.375,5.285,4.4-2.1,4.4-4.926S1538.975,534.1,1536.549,534Z" transform="translate(-1518.39 -533.474)"/><path class="v" d="M1551.927,534.588c-2.458-.093-4.446,2.13-4.446,4.965s1.988,5.222,4.446,5.33,4.468-2.115,4.468-4.964S1554.391,534.682,1551.927,534.588Z" transform="translate(-1519.69 -533.523)"/></g></g></g><path class="w" d="M1584.636,167.51v47.327c-3.326-3.01-7.121-5.448-13.532-4.648-15.312,1.91-15.312,18.535-30.431,20.28-14.8,1.708-14.8-14.638-29.365-12.82-14.31,1.785-14.31,17.861-28.45,19.492-13.846,1.6-13.846-14.215-27.469-12.516-13.405,1.673-13.405,17.233-26.658,18.762-12.984,1.5-12.984-13.817-25.78-12.22-12.583,1.569-12.583,16.648-25.015,18.082-12.215,1.41-12.215-13.438-24.23-11.939-7.23.9-10.034,6.69-13.792,11.372V203.594c0-18.432,11.642-35.386,26.167-37.838l184.782-31.2C1569.34,131.436,1584.636,146.191,1584.636,167.51Z" transform="translate(-1335.908 -128.121)"/><g class="x" transform="translate(26.42 28.56)"><path class="g" d="M1571.859,161.415l-1.11.172v-1.808a.905.905,0,0,0-1.008-.995l-22.227,3.473a1.291,1.291,0,0,0-.983,1.29v8.776a.9.9,0,0,0,.983.988l22.227-3.332a1.311,1.311,0,0,0,1.008-1.3V165.8l1.11-.168a1.144,1.144,0,0,0,.878-1.137v-2.214A.792.792,0,0,0,1571.859,161.415Zm-20.123,9.532-3.676.555v-7.844l3.676-.571Zm4.337-.654-3.694.558v-7.863l3.694-.575Zm4.358-.657-3.713.56v-7.883l3.713-.577Zm4.38-.662-3.731.564v-7.9l3.731-.579Zm4.4-.663-3.75.566v-7.922l3.75-.583Z" transform="translate(-1379.872 -158.773)"/><g transform="translate(0 23.882)"><path class="g" d="M1377.731,198.415l-3.488.524V185.424l3.488-.554Z" transform="translate(-1365.243 -184.871)"/><path class="g" d="M1372.78,199.573l-3.469.521v-9.058l3.469-.541Z" transform="translate(-1364.824 -185.348)"/><path class="g" d="M1367.857,200.725l-3.449.518v-4.626l3.449-.528Z" transform="translate(-1364.408 -185.823)"/><g transform="translate(14.143 4.635)"><path class="g" d="M1384.527,195.668l-1.078.164v1.793l-.554.083v-1.793l-3.033.46v-.506l2.848-4.952.615-.1-2.75,4.822,2.334-.355v-1.578l.539-.082v1.579l1.078-.164Z" transform="translate(-1379.863 -190.011)"/><path class="g" d="M1389.892,193.229l.551-.084v2.613a3.217,3.217,0,0,1-.9.781,3.042,3.042,0,0,1-1.093.389,2.278,2.278,0,0,1-1.461-.229,2.433,2.433,0,0,1-1.02-1.091,3.8,3.8,0,0,1-.37-1.724,4.549,4.549,0,0,1,.37-1.837,3.768,3.768,0,0,1,1.02-1.4,2.936,2.936,0,0,1,1.469-.676,2.449,2.449,0,0,1,1.139.073,1.862,1.862,0,0,1,.876.6l-.357.514a1.728,1.728,0,0,0-1.634-.549,2.371,2.371,0,0,0-1.188.549,3.059,3.059,0,0,0-.83,1.144,3.7,3.7,0,0,0-.3,1.494,3.061,3.061,0,0,0,.3,1.4,2.017,2.017,0,0,0,.826.89,1.814,1.814,0,0,0,1.183.193,2.389,2.389,0,0,0,1.418-.742Z" transform="translate(-1380.35 -189.936)"/></g></g></g><path class="y" d="M1481.54,738.715l-40.065-6c-4.852-.727-8.766,3.495-8.766,9.425h0c0,5.931,3.914,11.376,8.766,12.166l40.065,6.526c5.121.834,9.294-3.464,9.294-9.6h0C1490.835,745.085,1486.661,739.482,1481.54,738.715Z" transform="translate(-1343.787 -178.938)"/><path class="z" d="M1368.18,162.5V710.027l-2.079-.358c-11.12-1.915-20.739-11.144-25.967-23.288V186.163c.027-.073.067-.149.093-.223q.443-1.01.925-1.976a.721.721,0,0,1,.067-.133c.3-.622.618-1.231.954-1.843.08-.152.161-.3.255-.459.254-.459.51-.92.792-1.366.578-.966,1.184-1.885,1.817-2.775.31-.453.62-.888.944-1.291.176-.238.364-.479.554-.72.216-.263.432-.544.648-.789.23-.283.473-.568.716-.836.556-.652,1.138-1.257,1.734-1.847a12.435,12.435,0,0,1,.935-.911c.34-.319.679-.64,1.019-.925.476-.414.965-.829,1.455-1.211.314-.246.641-.5.967-.726a30.96,30.96,0,0,1,4.622-2.81c.425-.213.864-.412,1.3-.61a.083.083,0,0,0,.055-.027c.468-.2.949-.392,1.43-.563l.041-.007c.4-.156.813-.3,1.212-.42.179-.066.345-.112.524-.161.414-.124.842-.232,1.256-.339l.111-.019q.766-.185,1.535-.318Z" transform="translate(-1335.926 -130.53)"/><path class="aa" d="M1567.619,128.52V738.079l2.584.445c14.068,2.422,26.583-4.117,33.523-15.987V144.082c-.036-.074-.09-.146-.125-.221q-.59-.991-1.234-1.912a.518.518,0,0,0-.09-.126c-.393-.6-.823-1.172-1.269-1.743-.107-.143-.213-.286-.339-.426-.34-.426-.678-.853-1.053-1.253a30.291,30.291,0,0,0-2.4-2.452,15.774,15.774,0,0,0-1.245-1.1c-.231-.2-.479-.4-.728-.6-.284-.212-.567-.446-.851-.639-.3-.23-.621-.456-.939-.663a22.746,22.746,0,0,0-2.264-1.4,9.883,9.883,0,0,0-1.218-.653c-.441-.225-.881-.449-1.322-.634-.616-.275-1.249-.546-1.882-.778-.4-.15-.826-.3-1.247-.425a29.763,29.763,0,0,0-5.913-1.276c-.541-.066-1.1-.11-1.655-.153-.018,0-.052.009-.069-.008-.591-.037-1.2-.051-1.808-.046l-.052.009c-.5-.013-1.024,0-1.526.025-.225,0-.434.016-.659.034-.52.031-1.056.083-1.575.134l-.138.024q-.959.106-1.917.271Z" transform="translate(-1355.242 -127.564)"/></g></g><g transform="translate(166.409 138.509)"><path class="ab" d="M1432.608,423.262V323.8a9.4,9.4,0,0,0-6.632-16.055H1296.615a9.4,9.4,0,1,0,0,18.8h9.954v0h17.13a9.4,9.4,0,0,1,.038,18.792h-76.325a9.4,9.4,0,0,0-9.4,9.4h0a9.4,9.4,0,0,0,9.4,9.4h59.711a9.4,9.4,0,1,1,0,18.8h-.555v0h-25.986a9.4,9.4,0,1,0,0,18.8H1328.2a9.4,9.4,0,0,1-.072,18.79h-21.555v.005h-9.954a9.4,9.4,0,1,0,0,18.8h129.362a9.4,9.4,0,0,0,6.632-16.055Z" transform="translate(-1238.015 -281.2)"/><g transform="translate(88.998)"><g transform="translate(0)"><circle class="ac" cx="76.29" cy="76.29" r="76.29" transform="translate(0 148.499) rotate(-76.717)"/><path class="ad" d="M1497.75,372.673a68.53,68.53,0,0,1-63.193,68.341c-1.767.142-3.547.206-5.352.206a68.6,68.6,0,0,1-7.327-.386c-1.007-.1-1.987-.232-2.967-.387a68.557,68.557,0,1,1,40.375-129.394c.89.439,1.78.89,2.645,1.368a66.9,66.9,0,0,1,10.538,7.082A68.406,68.406,0,0,1,1497.75,372.673Z" transform="translate(-1337.426 -280.892)"/><path class="ae" d="M1493.88,378.707a68.194,68.194,0,0,1-10.525,36.519,68.556,68.556,0,0,1-112.173-78.557,68.553,68.553,0,0,1,122.7,42.038Z" transform="translate(-1337.426 -281.405)"/></g><g transform="translate(41.689 23.221)"><path class="af" d="M1461,311.052l-40.375,129.394a68.375,68.375,0,0,1-39.795-20.974l35.512-113.8A68.734,68.734,0,0,1,1461,311.052Z" transform="translate(-1380.828 -304.113)"/><path class="af" d="M1478.148,320.273l-37.911,121.511c-1.767.142-3.547.206-5.352.206a68.6,68.6,0,0,1-7.327-.386l40.053-128.413A66.9,66.9,0,0,1,1478.148,320.273Z" transform="translate(-1384.796 -304.884)"/></g><g transform="translate(7 1)"><g transform="translate(56.496 57.43)"><path class="ad" d="M2154.5,466.315h5.921V446.737h9.189L2180,466.315h20.657V446.737h7.12v19.578h5.879v7.606h-5.879v11.336h5.879v7.6h-5.879v23.014h-9.521l-12.213-23.014h-18.587v23.014h-7.037V492.861H2154.5v-7.6h5.921V473.921H2154.5Zm12.875,0h4.6l-4.926-9.323Zm.083,18.941h14.572l-6-11.336h-8.57Zm22.645,0h10.556V473.921h-16.6Zm10.556,7.6h-6.5l7,13.151Z" transform="translate(-2154.498 -446.737)"/></g><g transform="translate(54.496 55.43)"><path class="ag" d="M2154.5,466.315h5.921V446.737h9.189L2180,466.315h20.657V446.737h7.12v19.578h5.879v7.606h-5.879v11.336h5.879v7.6h-5.879v23.014h-9.521l-12.213-23.014h-18.587v23.014h-7.037V492.861H2154.5v-7.6h5.921V473.921H2154.5Zm12.875,0h4.6l-4.926-9.323Zm.083,18.941h14.572l-6-11.336h-8.57Zm22.645,0h10.556V473.921h-16.6Zm10.556,7.6h-6.5l7,13.151Z" transform="translate(-2154.498 -446.737)"/></g></g></g></g><g transform="translate(267.979 374.297)"><path class="r" d="M1437.581,586.269c0,31-23.71,52.959-49.509,49.509-22.643-3.028-39.063-25.051-39.063-49.509s16.42-46.482,39.063-49.509C1413.871,533.31,1437.581,555.27,1437.581,586.269Z" transform="translate(-1349.009 -536.403)"/><path class="ah" d="M1430.838,587.046c0,25.8-19.731,44.07-41.2,41.2-18.843-2.519-32.506-20.846-32.506-41.2s13.663-38.68,32.506-41.2C1411.107,542.976,1430.838,561.249,1430.838,587.046Z" transform="translate(-1349.699 -537.18)"/><path class="ai" d="M1427.49,587.346c0,23.569-17.931,40.463-37.643,38.03-17.476-2.157-30.251-19.089-30.251-38.03s12.776-35.873,30.251-38.03C1409.559,546.882,1427.49,563.777,1427.49,587.346Z" transform="translate(-1349.908 -537.48)"/><path class="aj" d="M1384.974,594.491l-8.964-12.886a3.426,3.426,0,0,0-3.912-1.45h0c-2.6.853-3.662,4.551-2.046,7.067l11.053,17.2c1.867,2.906,5.567,3.191,7.61.53l29.4-38.292Z" transform="translate(-1350.731 -538.973)"/></g><g transform="translate(414.826 390.541)"><path class="ak" d="M1517.2,647.566l-1.5-2.883s6.827-4.331,10.6-4.661,6.535-.275,6.535-.275l-7.427,3.917Z" transform="translate(-1510.01 -561.422)"/><g transform="translate(11.198 70.726)"><path class="ak" d="M1692.537,674.414l.135,83.017c.041,25.052-18.277,41.727-39.566,37.483l-106.017-21.1-20.068-4c-2.395-.49-4.417-3.255-4.967-6.557a10.234,10.234,0,0,1-.15-1.783l-.187-114.524c-.006-4.036,2.27-7.446,5.091-7.632l6-.364,120.032-7.446C1674.119,630.183,1692.5,649.361,1692.537,674.414Z" transform="translate(-1521.718 -631.443)"/><path class="a" d="M1688.444,674.8l.135,82.483c.036,22.274-16.255,37.268-35.257,33.62l-126.08-24.212c-1.483-.285-2.679-2.231-2.683-4.351l-.188-115.091c0-2.119,1.188-3.919,2.669-4l126.029-6.93a28.02,28.02,0,0,1,4.561.1C1674.615,638.123,1688.41,654.369,1688.444,674.8Z" transform="translate(-1521.943 -631.853)"/></g><g class="al" transform="translate(11.719 72.732)"><path class="am" d="M1625.112,635.8,1553.17,772.3l-27.678-4.51c-1.49-.242-2.742-2.154-2.8-4.273l-.4-13.378,53.247-110.214Z" transform="translate(-1522.288 -633.819)"/><path class="am" d="M1655.49,633.717l-78.122,141.8-15.8-2.574,73.469-137.881,15.889-1.324A28.04,28.04,0,0,1,1655.49,633.717Z" transform="translate(-1525.623 -633.636)"/></g><g transform="translate(30.109 0.733)"><path class="an" d="M1655.626,588.216s-20.919,14.286-39.319,59.81c-17.38,43-33.837,58.945-33.837,58.945l-3.686-3.532-29.164-27.963-7.237-6.924s13.985-9.476,28.379-46.373c.59-1.454,1.15-2.971,1.728-4.514a290.406,290.406,0,0,1,20.766-44.988c6.937-11.988,11.76-17.72,11.76-17.72l4,2.645,36.23,23.8Z" transform="translate(-1542.384 -554.956)"/><g transform="translate(8.229 8.938)"><path class="ao" d="M1594.417,678.552a150.012,150.012,0,0,1-11.614,17.742L1554.2,669.447a120.131,120.131,0,0,0,14.146-21.612l0,0a221.163,221.163,0,0,0,11.378-25.718,298.04,298.04,0,0,1,14.958-33.812,196.815,196.815,0,0,1,12.062-20.256l34.635,23.45a153.818,153.818,0,0,0-18.02,25.967,231.537,231.537,0,0,0-13.162,27.779A270.548,270.548,0,0,1,1594.417,678.552Z" transform="translate(-1551.616 -565.005)"/><path class="ad" d="M1595.7,679.618a152.618,152.618,0,0,1-11.846,18.019l-1.067,1.371-31.408-29.635,1.529-1.815c8.811-10.448,17.573-26.593,25.007-46.569a301.234,301.234,0,0,1,15.022-34.067,200.554,200.554,0,0,1,12.181-20.526l1.147-1.673,38.4,25.806-2.089,2.374c-11.551,13.124-22.272,31.571-30.852,53.023A272.976,272.976,0,0,1,1595.7,679.618Zm-13.367,13.391a154.716,154.716,0,0,0,10.335-16.081A268.024,268.024,0,0,0,1608.207,644c8.222-20.7,18.413-38.712,29.487-52.088l-30.935-21.1a200.945,200.945,0,0,0-10.8,18.306,295.182,295.182,0,0,0-14.893,33.557c-7.3,19.482-15.846,35.433-24.529,46.252Z" transform="translate(-1551.377 -564.723)"/></g><g transform="translate(39.455 68.763)"><g transform="translate(1.237)"><path class="ad" d="M1601.465,641.047a1.915,1.915,0,0,0-1.569-.515,4.543,4.543,0,0,0-1.872,1.114q-1.12.966-2.137,1.72a7.5,7.5,0,0,1-1.99,1.093,3.726,3.726,0,0,1-1.915.168,4.327,4.327,0,0,1-1.948-1,5.536,5.536,0,0,1-1.965-3.771,9.56,9.56,0,0,1,.871-5.016l-2.087-1.7,1.112-2.088,2.135,1.724a5.845,5.845,0,0,1,3.552-2.6,4.7,4.7,0,0,1,3.939,1.142l-2.439,4.5a2.771,2.771,0,0,0-1.905-.774,1.742,1.742,0,0,0-1.374,1.051,2.5,2.5,0,0,0-.312,1.688,2.386,2.386,0,0,0,.891,1.418,1.625,1.625,0,0,0,1.484.412,5.125,5.125,0,0,0,1.811-1.1q1.074-.909,2.106-1.657a8.266,8.266,0,0,1,2.03-1.107,4.155,4.155,0,0,1,1.994-.22,4.317,4.317,0,0,1,2.055.977,5.662,5.662,0,0,1,2.125,3.8,9.083,9.083,0,0,1-.874,5.034l2.122,1.715-1.189,2.129-2.124-1.728a6.849,6.849,0,0,1-4.016,3.165,4.915,4.915,0,0,1-4.265-1.293l2.438-4.441a2.739,2.739,0,0,0,2.155.79,2.454,2.454,0,0,0,1.67-1.406,2.73,2.73,0,0,0,.366-1.768A2.278,2.278,0,0,0,1601.465,641.047Z" transform="translate(-1586.852 -630.099)"/></g><g transform="translate(0 0.43)"><path class="an" d="M1600.049,641.5a1.9,1.9,0,0,0-1.563-.514,4.482,4.482,0,0,0-1.863,1.11q-1.116.962-2.128,1.715a7.464,7.464,0,0,1-1.982,1.089,3.712,3.712,0,0,1-1.907.167,4.307,4.307,0,0,1-1.939-1,5.534,5.534,0,0,1-1.956-3.765,9.564,9.564,0,0,1,.868-5L1585.5,633.6l1.107-2.083,2.127,1.722a5.815,5.815,0,0,1,3.536-2.588,4.682,4.682,0,0,1,3.922,1.144l-2.429,4.491a2.755,2.755,0,0,0-1.9-.774,1.733,1.733,0,0,0-1.369,1.047,2.5,2.5,0,0,0-.31,1.685,2.385,2.385,0,0,0,.886,1.415,1.617,1.617,0,0,0,1.478.412,5.063,5.063,0,0,0,1.8-1.1q1.069-.906,2.1-1.652a8.209,8.209,0,0,1,2.021-1.1,4.12,4.12,0,0,1,1.985-.219,4.3,4.3,0,0,1,2.046.977,5.651,5.651,0,0,1,2.116,3.789,9.084,9.084,0,0,1-.87,5.022l2.112,1.712-1.183,2.124-2.114-1.726a6.825,6.825,0,0,1-4,3.156,4.89,4.89,0,0,1-4.245-1.293l2.427-4.43a2.724,2.724,0,0,0,2.145.79,2.445,2.445,0,0,0,1.663-1.4,2.726,2.726,0,0,0,.364-1.764A2.277,2.277,0,0,0,1600.049,641.5Z" transform="translate(-1585.5 -630.57)"/></g></g><path class="ad" d="M1584.612,668.083a4.229,4.229,0,0,1,.674,5.015c-.9,1.645-2.665,2.06-3.929.936a4.238,4.238,0,0,1-.663-4.982C1581.584,667.409,1583.339,666.971,1584.612,668.083Z" transform="translate(-1545.593 -564.509)"/><path class="ad" d="M1615.811,603.028c1.411,1.027,1.748,3.347.748,5.175s-2.935,2.451-4.329,1.415-1.716-3.327-.737-5.139S1614.407,602.008,1615.811,603.028Z" transform="translate(-1548.204 -558.997)"/></g><path class="ap" d="M1600.524,641.152c-12.064,2.554-22.77-5.012-27.128-17.388.59-1.454,1.15-2.971,1.728-4.514a290.408,290.408,0,0,1,20.766-44.988,20.343,20.343,0,0,1,2.965-.5c13.234-1.4,24.939,9.339,26.721,26.371C1627.581,619.4,1616.029,637.893,1600.524,641.152Z" transform="translate(-1514.908 -555.809)"/><g transform="translate(57.739 25.793)"><path class="an" d="M1601.993,650.066a21.7,21.7,0,0,1-14.417-2.05c-7.971-4.179-13.761-13.335-14.83-24.89a35.488,35.488,0,0,1-.167-3.688c-.012-1.017.024-2.037.092-3.039,1.017-15.035,10.125-29.008,22.758-32.99a21.836,21.836,0,0,1,4.88-.975c13.308-1.221,25.082,9.716,26.877,26.83C1629.2,628.621,1617.586,647.016,1601.993,650.066Z" transform="translate(-1572.578 -582.342)"/><path class="ad" d="M1624.394,610.35a38.315,38.315,0,0,1-3.58,20.462c-3.7,7.672-9.8,13.521-17.009,15.679-.633.192-1.273.351-1.924.481a20.518,20.518,0,0,1-2.643.36c-.363.027-.718.041-1.073.044a20.055,20.055,0,0,1-14.659-6.192c-4.324-4.36-7.294-10.764-8-18.371a38.347,38.347,0,0,1,2.024-16.255c2.59-7.357,7.357-13.658,13.441-17.246a23.425,23.425,0,0,1,5.021-2.234,19.788,19.788,0,0,1,11.1-.272c.345.094.691.195,1.029.309a19.526,19.526,0,0,1,4.213,1.968C1618.709,593.005,1623.383,600.6,1624.394,610.35Z" transform="translate(-1572.812 -582.664)"/><path class="ao" d="M1623.156,613.5a38.248,38.248,0,0,1-2.342,17.571c-4.033,8.351-10.9,14.539-18.933,16.161-13.318,2.688-24.889-8.219-26.379-24.159a38.347,38.347,0,0,1,2.024-16.255c3.521-7.984,9.717-14.364,17.337-16.678C1608.454,586.017,1621.382,596.345,1623.156,613.5Z" transform="translate(-1572.812 -582.927)"/><g transform="translate(10.695 3.478)"><path class="af" d="M1607.842,586.807l-8.919,60.569a20.055,20.055,0,0,1-14.659-6.192l7.461-51.872a23.425,23.425,0,0,1,5.021-2.234A19.788,19.788,0,0,1,1607.842,586.807Z" transform="translate(-1584.265 -586.142)"/><path class="af" d="M1614.545,589.175l-8.521,57.406c-.633.192-1.273.351-1.924.481a20.508,20.508,0,0,1-2.643.36l8.875-60.216A19.529,19.529,0,0,1,1614.545,589.175Z" transform="translate(-1585.725 -586.232)"/></g><g transform="matrix(0.999, -0.035, 0.035, 0.999, -43.082, -36.068)"><g transform="translate(55.351 56.286)"><path class="ad" d="M2154.5,455.11h2.532v-8.374h3.93l4.444,8.374h8.835v-8.374h3.045v8.374h2.515v3.253h-2.515v4.848h2.515v3.253h-2.515v9.843h-4.072l-5.223-9.843h-7.95v9.843h-3.01v-9.843H2154.5v-3.253h2.532v-4.848H2154.5Zm5.506,0h1.966l-2.107-3.987Zm.036,8.1h6.232l-2.567-4.848h-3.666Zm9.685,0h4.515v-4.848h-7.1Zm4.515,3.253h-2.779l2.992,5.624Z" transform="translate(-2154.498 -446.737)"/></g><g transform="translate(54.496 55.43)"><path class="an" d="M2154.5,455.11h2.532v-8.374h3.93l4.444,8.374h8.835v-8.374h3.045v8.374h2.515v3.253h-2.515v4.848h2.515v3.253h-2.515v9.843h-4.072l-5.223-9.843h-7.95v9.843h-3.01v-9.843H2154.5v-3.253h2.532v-4.848H2154.5Zm5.506,0h1.966l-2.107-3.987Zm.036,8.1h6.232l-2.567-4.848h-3.666Zm9.685,0h4.515v-4.848h-7.1Zm4.515,3.253h-2.779l2.992,5.624Z" transform="translate(-2154.498 -446.737)"/></g></g></g><path class="ap" d="M1600.248,590.028c-1.813,17.2-14.109,30.366-26.918,29.49-.255-.023-.5-.047-.75-.07-.078-16.205,9.387-31.793,22.85-36.029a21.834,21.834,0,0,1,4.88-.975A37.494,37.494,0,0,1,1600.248,590.028Z" transform="translate(-1514.839 -556.557)"/><path class="ap" d="M1587.576,651.176c-7.971-4.179-13.761-13.335-14.83-24.89a35.487,35.487,0,0,1-.167-3.688c-.012-1.017.024-2.037.092-3.039,7.256,1.219,13.457,7.883,15.33,17.853A32.541,32.541,0,0,1,1587.576,651.176Z" transform="translate(-1514.839 -559.709)"/><g transform="translate(31.167 61.143)"><path class="an" d="M1580.953,638.955c2.552,13.795-4.228,27.954-14.793,31.379-10.174,3.3-19.957-4.708-22.167-17.661-2.189-12.832,3.773-26.376,13.618-30.492C1567.828,617.908,1578.426,625.3,1580.953,638.955Z" transform="translate(-1543.54 -620.971)"/><path class="ad" d="M1579.12,639.936a29.4,29.4,0,0,1-1.189,15c-2.061,5.825-5.892,10.529-10.74,12.65q-.641.283-1.306.5a13.89,13.89,0,0,1-1.816.467c-.251.047-.5.085-.744.113a13.453,13.453,0,0,1-10.651-3.436,21.948,21.948,0,0,1-6.757-12.973,29.432,29.432,0,0,1,.48-12.1c1.4-5.562,4.386-10.458,8.438-13.427a16.1,16.1,0,0,1,3.368-1.909,13.164,13.164,0,0,1,7.662-.82c.243.049.487.1.726.166a13.257,13.257,0,0,1,3.012,1.182C1574.2,627.8,1577.84,632.987,1579.12,639.936Z" transform="translate(-1543.707 -621.208)"/><path class="ao" d="M1578.455,642.292a29.378,29.378,0,0,1-.524,12.841c-2.246,6.342-6.584,11.354-12.045,13.15-9.145,3.007-17.969-4.16-19.968-15.829a29.432,29.432,0,0,1,.48-12.1c2.02-6.077,6-11.111,11.19-13.238C1566.744,623.358,1576.206,630.057,1578.455,642.292Z" transform="translate(-1543.707 -621.404)"/><g transform="translate(8.968 2.548)"><path class="af" d="M1566.53,624l-2.539,44.669a13.454,13.454,0,0,1-10.651-3.436l2.161-38.5a16.1,16.1,0,0,1,3.367-1.909A13.164,13.164,0,0,1,1566.53,624Z" transform="translate(-1553.34 -623.755)"/><path class="af" d="M1571.326,625.383l-2.411,42.242q-.641.283-1.306.5a13.9,13.9,0,0,1-1.816.467l2.522-44.39A13.254,13.254,0,0,1,1571.326,625.383Z" transform="translate(-1554.397 -623.793)"/></g><g transform="matrix(0.999, -0.035, 0.035, 0.999, -44.464, -40.779)"><g transform="translate(54.908 55.843)"><path class="ad" d="M2154.5,450.773h1.22v-4.036h1.894l2.143,4.036h4.258v-4.036h1.468v4.036h1.212v1.568h-1.212v2.337h1.212v1.568h-1.212v4.745h-1.963L2161,456.246h-3.832v4.745h-1.451v-4.745h-1.22v-1.568h1.22v-2.337h-1.22Zm2.654,0h.948l-1.016-1.922Zm.017,3.9h3l-1.237-2.337h-1.767Zm4.668,0h2.176v-2.337h-3.422Zm2.176,1.568h-1.34l1.442,2.711Z" transform="translate(-2154.498 -446.737)"/></g><g transform="translate(54.496 55.43)"><path class="an" d="M2154.5,450.773h1.22v-4.036h1.894l2.143,4.036h4.258v-4.036h1.468v4.036h1.212v1.568h-1.212v2.337h1.212v1.568h-1.212v4.745h-1.963L2161,456.246h-3.832v4.745h-1.451v-4.745h-1.22v-1.568h1.22v-2.337h-1.22Zm2.654,0h.948l-1.016-1.922Zm.017,3.9h3l-1.237-2.337h-1.767Zm4.668,0h2.176v-2.337h-3.422Zm2.176,1.568h-1.34l1.442,2.711Z" transform="translate(-2154.498 -446.737)"/></g></g></g><g transform="translate(58.112 8.897)"><path class="ap" d="M1624.372,594.761l-2.166-2.9s-15.193,37.888-22.348,45.252l4.721-.192S1623.706,607.905,1624.372,594.761Z" transform="translate(-1575.267 -566.254)"/><path class="an" d="M1604.792,630.711c-15.339,43.205-31.807,54.352-31.807,54.352l8.254,7.15,33.5,29.018,4.248,3.68s17.929-17.287,35.922-63.323c19.02-48.663,42.1-64.417,42.1-64.417L1685.02,590.3l-41.543-23.8-4.582-2.625S1620.934,585.243,1604.792,630.711Z" transform="translate(-1572.985 -563.878)"/><g transform="translate(9.142 9.355)"><path class="ao" d="M1631.358,694.484a155.991,155.991,0,0,1-12.408,19.077L1586.1,685.754a124.784,124.784,0,0,0,15.041-23.14l0-.005a224.483,224.483,0,0,0,11.819-27.394,302.373,302.373,0,0,1,15.524-35.99,203.372,203.372,0,0,1,12.758-21.65l39.737,23.536a160.873,160.873,0,0,0-19.315,27.961,235.953,235.953,0,0,0-13.78,29.736A275.8,275.8,0,0,1,1631.358,694.484Z" transform="translate(-1583.241 -574.396)"/><path class="ad" d="M1632.847,695.587a158.694,158.694,0,0,1-12.661,19.38l-1.149,1.477-36.061-30.705,1.643-1.951c9.464-11.232,18.689-28.475,26.3-49.711a305.582,305.582,0,0,1,15.583-36.251,206.943,206.943,0,0,1,12.879-21.933l1.222-1.792,44.058,25.882-2.265,2.57c-12.518,14.212-23.9,34.011-32.758,56.936A278.38,278.38,0,0,1,1632.847,695.587Zm-14.526,14.5a160.683,160.683,0,0,0,11.03-17.283,273.536,273.536,0,0,0,16.273-35.255c8.485-22.106,19.277-41.426,31.239-55.881l-35.486-21.191a207.194,207.194,0,0,0-11.421,19.567,299.381,299.381,0,0,0-15.462,35.727c-7.482,20.722-16.475,37.761-25.791,49.387Z" transform="translate(-1582.975 -574.101)"/></g><path class="ad" d="M1619.682,683.69a4.313,4.313,0,0,1,.927,5.288,2.833,2.833,0,0,1-4.363,1.083,4.323,4.323,0,0,1-.912-5.253A2.835,2.835,0,0,1,1619.682,683.69Z" transform="translate(-1576.538 -573.999)"/><path class="ad" d="M1655.353,607.041a4.137,4.137,0,0,1,1.035,5.439c-1.06,1.968-3.229,2.714-4.843,1.676a4.145,4.145,0,0,1-1.019-5.4C1651.57,606.794,1653.729,606.022,1655.353,607.041Z" transform="translate(-1579.522 -567.505)"/><g transform="matrix(0.999, -0.035, 0.035, 0.999, -71.409, 11.467)"><g transform="translate(54.908 55.843)"><path class="ad" d="M2154.5,450.773h1.22v-4.036h1.894l2.143,4.036h4.258v-4.036h1.468v4.036h1.212v1.568h-1.212v2.337h1.212v1.568h-1.212v4.745h-1.963L2161,456.246h-3.832v4.745h-1.451v-4.745h-1.22v-1.568h1.22v-2.337h-1.22Zm2.654,0h.948l-1.016-1.922Zm.017,3.9h3l-1.237-2.337h-1.767Zm4.668,0h2.176v-2.337h-3.422Zm2.176,1.568h-1.34l1.442,2.711Z" transform="translate(-2154.498 -446.737)"/></g><g transform="translate(54.496 55.43)"><path class="an" d="M2154.5,450.773h1.22v-4.036h1.894l2.143,4.036h4.258v-4.036h1.468v4.036h1.212v1.568h-1.212v2.337h1.212v1.568h-1.212v4.745h-1.963L2161,456.246h-3.832v4.745h-1.451v-4.745h-1.22v-1.568h1.22v-2.337h-1.22Zm2.654,0h.948l-1.016-1.922Zm.017,3.9h3l-1.237-2.337h-1.767Zm4.668,0h2.176v-2.337h-3.422Zm2.176,1.568h-1.34l1.442,2.711Z" transform="translate(-2154.498 -446.737)"/></g></g><g transform="matrix(0.53, -0.848, 0.848, 0.53, -31.175, 83.941)"><g transform="translate(55.351 56.286)"><path class="ad" d="M2154.5,455.11h2.532v-8.374h3.93l4.444,8.374h8.835v-8.374h3.045v8.374h2.515v3.253h-2.515v4.848h2.515v3.253h-2.515v9.843h-4.072l-5.223-9.843h-7.95v9.843h-3.01v-9.843H2154.5v-3.253h2.532v-4.848H2154.5Zm5.506,0h1.966l-2.107-3.987Zm.036,8.1h6.232l-2.567-4.848h-3.666Zm9.685,0h4.515v-4.848h-7.1Zm4.515,3.253h-2.779l2.992,5.624Z" transform="translate(-2154.498 -446.737)"/></g><g transform="translate(54.496 55.43)"><path class="an" d="M2154.5,455.11h2.532v-8.374h3.93l4.444,8.374h8.835v-8.374h3.045v8.374h2.515v3.253h-2.515v4.848h2.515v3.253h-2.515v9.843h-4.072l-5.223-9.843h-7.95v9.843h-3.01v-9.843H2154.5v-3.253h2.532v-4.848H2154.5Zm5.506,0h1.966l-2.107-3.987Zm.036,8.1h6.232l-2.567-4.848h-3.666Zm9.685,0h4.515v-4.848h-7.1Zm4.515,3.253h-2.779l2.992,5.624Z" transform="translate(-2154.498 -446.737)"/></g></g></g><g transform="translate(0 77.662)"><path class="ak" d="M1681.941,682.8l-1.643,83c-.495,25.047-19.167,41.326-40.359,36.627L1534.4,779.06l-19.978-4.428c-2.384-.542-4.347-3.349-4.825-6.663a10.193,10.193,0,0,1-.111-1.785l2.265-114.5c.08-4.035,2.429-7.395,5.253-7.52l6.007-.236,120.164-4.875C1664.475,638.183,1682.436,657.75,1681.941,682.8Z" transform="translate(-1509.481 -639.024)"/><path class="aq" d="M1677.848,683.094l-1.632,82.466c-.441,22.27-17.048,36.912-35.969,32.857l-125.532-26.906c-1.476-.317-2.631-2.289-2.59-4.407l2.277-115.069c.042-2.119,1.271-3.893,2.754-3.943l126.149-4.23a28.115,28.115,0,0,1,4.557.2C1664.808,646.126,1678.252,662.664,1677.848,683.094Z" transform="translate(-1509.706 -639.433)"/></g><g class="al" transform="translate(2.419 82.073)"><path class="am" d="M1620.759,644.69l-78.624,132.77-27.42-5.877c-1.476-.317-2.631-2.289-2.59-4.407l.266-13.381,58.647-107.437Z" transform="translate(-1512.125 -643.916)"/><path class="am" d="M1651.114,644.064l-85.059,137.754-15.65-3.355L1630.621,644.4l15.935-.534A28.114,28.114,0,0,1,1651.114,644.064Z" transform="translate(-1515.375 -643.844)"/></g><g transform="translate(36.596)"><path class="an" d="M1594.987,584.3c-1.807,17.124-13.965,30.273-26.622,29.483-12.1-.755-20.259-14.075-18.7-29.849,1.565-15.848,12.444-29.194,24.782-29.763C1587.361,553.578,1596.8,567.093,1594.987,584.3Z" transform="translate(-1549.473 -554.155)"/><path class="ad" d="M1592.7,584.569a34.953,34.953,0,0,1-6.33,16.839c-4.189,5.751-9.927,9.407-15.913,9.674a15.011,15.011,0,0,1-1.586-.009,15.259,15.259,0,0,1-2.13-.272c-.289-.057-.57-.123-.849-.2a17.419,17.419,0,0,1-10.536-8.566,30,30,0,0,1-3.366-17.8,35.644,35.644,0,0,1,4.3-13.84c3.3-5.908,8.181-10.372,13.658-12.11a16.685,16.685,0,0,1,4.39-.785,15.073,15.073,0,0,1,8.863,2.406c.257.165.513.337.761.518a17.426,17.426,0,0,1,2.987,2.738C1591.285,568.12,1593.614,575.855,1592.7,584.569Z" transform="translate(-1549.672 -554.438)"/><path class="ao" d="M1591.229,587a35.28,35.28,0,0,1-4.86,14.614c-4.562,6.257-10.95,10.038-17.5,9.665-10.9-.62-18.291-12.6-16.881-26.832a35.644,35.644,0,0,1,4.3-13.84c4.153-6.244,10.191-10.437,16.67-10.675C1584.466,559.509,1592.841,571.648,1591.229,587Z" transform="translate(-1549.672 -554.645)"/><g transform="translate(5.683 3.053)"><path class="af" d="M1583.526,559.911,1566.219,610.6a17.419,17.419,0,0,1-10.536-8.566l14.589-43.747a16.683,16.683,0,0,1,4.39-.785A15.073,15.073,0,0,1,1583.526,559.911Z" transform="translate(-1555.684 -557.491)"/><path class="af" d="M1588.33,563.439l-16.49,47.915a15.028,15.028,0,0,1-1.586-.009,15.261,15.261,0,0,1-2.13-.272l17.218-50.372A17.423,17.423,0,0,1,1588.33,563.439Z" transform="translate(-1556.74 -557.764)"/></g><g transform="translate(-29.163 -49.411) rotate(11)"><g transform="translate(55.211 56.145)"><path class="ad" d="M2154.5,453.736h2.116v-7h3.285l3.715,7H2171v-7h2.545v7h2.1v2.719h-2.1v4.052h2.1v2.719h-2.1v8.227h-3.4l-4.366-8.227h-6.645v8.227h-2.516v-8.227H2154.5v-2.719h2.116v-4.052H2154.5Zm4.6,0h1.643l-1.761-3.333Zm.03,6.771h5.209l-2.146-4.052h-3.063Zm8.095,0H2171v-4.052h-5.935Zm3.774,2.719h-2.323l2.5,4.7Z" transform="translate(-2154.498 -446.737)"/></g><g transform="translate(54.496 55.43)"><path class="an" d="M2154.5,453.736h2.116v-7h3.285l3.715,7H2171v-7h2.545v7h2.1v2.719h-2.1v4.052h2.1v2.719h-2.1v8.227h-3.4l-4.366-8.227h-6.645v8.227h-2.516v-8.227H2154.5v-2.719h2.116v-4.052H2154.5Zm4.6,0h1.643l-1.761-3.333Zm.03,6.771h5.209l-2.146-4.052h-3.063Zm8.095,0H2171v-4.052h-5.935Zm3.774,2.719h-2.323l2.5,4.7Z" transform="translate(-2154.498 -446.737)"/></g></g></g><g transform="translate(31.91 118.477)"><path class="a" d="M1563.751,697.155c-.145,7.312-4.725,12.895-10.131,12.475-5.3-.41-9.4-6.454-9.264-13.506s4.476-12.648,9.78-12.495C1559.545,683.785,1563.9,689.841,1563.751,697.155Z" transform="translate(-1544.352 -683.626)"/><path class="a" d="M1635.739,700.848c-.162,8.2-5.906,14.42-12.688,13.894-6.632-.514-11.775-7.308-11.618-15.185s5.556-14.111,12.194-13.919C1630.415,685.833,1635.9,692.645,1635.739,700.848Z" transform="translate(-1550.048 -683.796)"/><g transform="translate(5.208 4.648)"><path class="r" d="M1555.2,692.289c-.038,1.924-1.232,3.426-2.659,3.354s-2.535-1.675-2.5-3.582,1.214-3.409,2.635-3.356S1555.239,690.364,1555.2,692.289Z" transform="translate(-1550.043 -688.705)"/><path class="ar" d="M1556.164,695.681c-.015.747-.479,1.328-1.034,1.3a1.262,1.262,0,0,1-.978-1.4c.015-.743.476-1.324,1.031-1.3A1.258,1.258,0,0,1,1556.164,695.681Z" transform="translate(-1550.392 -689.178)"/></g><g transform="translate(67.939 7.034)"><path class="r" d="M1625.053,695.337c-.043,2.156-1.535,3.829-3.323,3.738s-3.176-1.891-3.134-4.023,1.51-3.807,3.288-3.739S1625.1,693.182,1625.053,695.337Z" transform="translate(-1618.595 -691.312)"/><path class="ar" d="M1626.269,699.142a1.353,1.353,0,0,1-1.294,1.447,1.454,1.454,0,0,1-1.228-1.572,1.354,1.354,0,0,1,1.289-1.447A1.453,1.453,0,0,1,1626.269,699.142Z" transform="translate(-1619.032 -691.843)"/></g><path class="a" d="M1613.5,749.583c-7.161,10.245-18,15.715-29.589,13.857-11.13-1.784-20.518-9.966-26.141-21.04Z" transform="translate(-1545.491 -688.616)"/><path class="as" d="M1549.68,704.5s8.432,3.054,12.082-4.86C1561.762,699.64,1558.389,712.573,1549.68,704.5Z" transform="translate(-1544.805 -684.985)"/><path class="as" d="M1617.853,708.949s10.564,3.494,15.124-5.342C1632.977,703.607,1628.776,718.068,1617.853,708.949Z" transform="translate(-1550.593 -685.322)"/></g></g><g transform="translate(0 127.751)"><g transform="translate(0 79.613)"><path class="at" d="M1101.692,402.248,1077.3,389.49s-1.765-13.5-6.706-14.613-6.213,2.236-6.213,2.236-7.254-4.1-8,4.429.534,17.25,3.363,17.366,3.745,1.232,3.745,1.232l30.451,11.758Z" transform="translate(-1056.166 -355.737)"/><g transform="translate(0.9 2.285)"><path class="au" d="M1072.7,390.354l-7.541,4.45a1.968,1.968,0,0,1-2.947-1.406l-5.042-33.845a1.968,1.968,0,0,1,2.409-2.2l8.51,2.059a1.966,1.966,0,0,1,1.484,1.622l4.072,27.337A1.967,1.967,0,0,1,1072.7,390.354Z" transform="translate(-1057.149 -356.548)"/><path class="av" d="M1074.241,389.527l-8.488,5.009a1.459,1.459,0,0,1-2.183-1.042l-5.264-35.341a1.459,1.459,0,0,1,1.785-1.633l9.58,2.317a1.459,1.459,0,0,1,1.1,1.2l4.173,28.016A1.455,1.455,0,0,1,1074.241,389.527Z" transform="translate(-1057.246 -356.478)"/><path class="aw" d="M1068.352,373.84s-2.4,3.772,1.066,3.98,6.88,4.981,6.88,4.981,1.985-7.712-.754-9.181S1068.352,373.84,1068.352,373.84Z" transform="translate(-1058.031 -357.883)"/></g><path class="ax" d="M1082.4,387.169l-8.576,16.582s70.682,40.931,77.45,36.225,34.4-42.873,36.538-57.576,4.431-26.424-7.8-28.007-22.55.609-33.765,21.055-13.486,32.6-13.486,32.6Z" transform="translate(-1057.664 -353.982)"/></g><g transform="translate(35.58 201.514)"><path class="at" d="M1146.439,781.588l-.861,10.267s-3.191,5.285-6.655,2.642a63.9,63.9,0,0,0-7.9-4.954l.748-8.783Z" transform="translate(-1098.101 -512.119)"/><path class="n" d="M1131.338,789.075s-5.623-4.7-9.226-1.013c-1.343,4.107.385,5.145-7.913,5.375-7.912.22-16.889,4.193-18.978,9.047a2.22,2.22,0,0,0,1.746,3.037c7.635,1.14,33.46,4.811,43.28,3.821,1.623-.163,7.966-2.318,6.877-6.392s-2.21-10.79-2.079-13.275-3.022,1.879-5.977,2.714S1131.338,789.075,1131.338,789.075Z" transform="translate(-1095.047 -512.619)"/><path class="ay" d="M1146.694,487.193s-11.051,27.627-10.625,47.177c.4,18.271-6.947,195.746-7.91,218.918a2.393,2.393,0,0,0,2.4,2.491l18.835,1.063s18.833-175.72,29.034-197.254c0,0,37.119-37.969,26.493-67.72Z" transform="translate(-1097.858 -487.193)"/></g><g transform="translate(89.48 203.631)"><path class="at" d="M1242.977,761.212l6.135,23.428s-1.322,6.031-5.454,4.643a63.776,63.776,0,0,0-9.075-2.151l-6.053-23.2Z" transform="translate(-1160.281 -512.577)"/><path class="n" d="M1235.561,786.937s-6.837-2.643-9.061,2.007c.049,4.322,2.02,4.748-5.765,7.636-6.236,2.312-12.287,6.094-14.3,10.037a3.114,3.114,0,0,0,3.177,4.434c8.794-.98,32.356-3.891,40.9-7.786,1.483-.676,6.8-4.757,4.456-8.264s-5.562-9.506-6.237-11.9-2.257,2.751-4.786,4.492S1235.561,786.937,1235.561,786.937Z" transform="translate(-1158.377 -514.382)"/><path class="az" d="M1154.111,496.256s-1.579,29.713,5.11,48.089c6.251,17.173,56.37,187.582,62.908,209.833a2.394,2.394,0,0,0,3.075,1.586l18.177-5.049s-38.674-172.442-35.939-196.113c0,0,14.7-40.34-4.932-65.094Z" transform="translate(-1153.948 -489.507)"/></g><path class="ba" d="M1184.109,350.542c13.841-2.3,33.351-5.146,34.925,20.2,2.029,32.672,7.2,100.331-17.1,118.739-11.74,8.894-63.037,14.116-64.271-2.859C1134.78,446.981,1140.382,357.8,1184.109,350.542Z" transform="translate(-1063.031 -273.954)"/><g transform="translate(78.01)"><g transform="translate(12.529 28.859)"><path class="bb" d="M1159.947,312.634c-.778.635-4.479,3.163-4.221,5.232s3.018,2.766,3.018,2.766Z" transform="translate(-1155.157 -299.717)"/><path class="at" d="M1161.517,299.787l-6.247,30.5a6.784,6.784,0,0,0,4.94,8.053l16.057.983s.494,11.432,2.93,13.707c4.033,3.767,13.469,4.62,17.162.52,9.1-10.107-2.79-55.034-2.79-55.034Z" transform="translate(-1155.105 -298.518)"/><path class="bb" d="M1177.211,347.4s12.208-4.468,12.7-9.047c-5.069-1.526-27.408,3.574-27.408,3.574l14.389.751Z" transform="translate(-1155.733 -301.876)"/></g><path class="bb" d="M1162.032,299.514l-.866,4.29s11.118,1.417,17.331-.544c0,0,.763,6.431,2.616,6.758s3.924-14.715,3.924-14.715Z" transform="translate(-1143.091 -269.386)"/><path class="ab" d="M1198.947,278.392c-35.363-28.689-63.441,4.578-56.462,14.405,6.979,9.807,37.5,6.1,37.5,6.1-.977,4.192-1.18,6.755-.915,8.2-.114,2.239,2.306,1.836,3.886.3a34.987,34.987,0,0,0,5.086-5.453c-3.052,18.089,8.872,34.365,8.872,34.365s9.014-8.647,10.316-21.3C1208.042,307.1,1213.984,290.6,1198.947,278.392Z" transform="translate(-1141.413 -266.982)"/></g><path class="bc" d="M1095.232,395.455l-2.668,5.146,38.881,36.212,3.431,1.906,1.334-9.53-37.737-32.4Z" transform="translate(-1059.256 -277.89)"/><path class="bd" d="M1089.541,386.138s-11.166-1.22-11.166-3.379,3.55-5.216,3.55-5.216Z" transform="translate(-1058.051 -276.369)"/><path class="at" d="M1063.995,375.5a2.169,2.169,0,0,0-.1,2.287c1.4,1.342,17.249,1.144,17.249,1.144s6.787,13.335,15.09,14.123l2.838,3.119,5.324-9.249s-8.452-15.791-15.914-16.473c-7.462-.666-10.291,1.525-10.291,1.525S1066.338,372,1063.995,375.5Z" transform="translate(-1056.798 -275.756)"/><path class="g" d="M1106.848,381.15l-9.91,14.1s51.928,50.348,59.273,47.033,54.022-40.144,58.7-53.894,5.754-26.115-1.143-33.163c-7.391-7.552-12.008-6.289-23.443,4.575-16.53,15.7-46.209,48.483-46.209,48.483Z" transform="translate(-1059.627 -274.068)"/></g><path class="be" d="M1082.859,332.237a144.872,144.872,0,0,1,283.926-40.621" transform="translate(-1058.432 -132.473)"/></g></g></svg>