<svg xmlns="http://www.w3.org/2000/svg" width="24.246" height="29.853" viewBox="0 0 24.246 29.853"><defs><style>.a{fill:#ff5656;}</style></defs><g transform="translate(0.003 0.002)"><path class="a" d="M223.1,154.7a.7.7,0,0,0-.7.7v13.214a.7.7,0,1,0,1.4,0V155.4A.7.7,0,0,0,223.1,154.7Zm0,0" transform="translate(-206.853 -143.889)"/><path class="a" d="M105.1,154.7a.7.7,0,0,0-.7.7v13.214a.7.7,0,0,0,1.4,0V155.4A.7.7,0,0,0,105.1,154.7Zm0,0" transform="translate(-97.102 -143.889)"/><path class="a" d="M1.982,8.886V26.111a3.857,3.857,0,0,0,1.025,2.66,3.443,3.443,0,0,0,2.5,1.08H18.734a3.442,3.442,0,0,0,2.5-1.08,3.857,3.857,0,0,0,1.025-2.66V8.886a2.671,2.671,0,0,0-.685-5.252H17.992V2.76A2.746,2.746,0,0,0,15.224,0H9.016A2.746,2.746,0,0,0,6.247,2.76v.874H2.668a2.671,2.671,0,0,0-.685,5.252ZM18.734,28.453H5.506a2.214,2.214,0,0,1-2.125-2.342V8.947H20.859V26.111a2.214,2.214,0,0,1-2.125,2.342ZM7.645,2.76A1.347,1.347,0,0,1,9.016,1.4h6.208a1.347,1.347,0,0,1,1.37,1.363v.874H7.645ZM2.668,5.032h18.9a1.258,1.258,0,0,1,0,2.517H2.668a1.258,1.258,0,1,1,0-2.517Zm0,0" transform="translate(0)"/><path class="a" d="M164.1,154.7a.7.7,0,0,0-.7.7v13.214a.7.7,0,1,0,1.4,0V155.4A.7.7,0,0,0,164.1,154.7Zm0,0" transform="translate(-151.977 -143.889)"/></g></svg>