<svg xmlns="http://www.w3.org/2000/svg" width="554.826" height="693" viewBox="0 0 554.826 693"><defs><style>.a{opacity:0.37;}.ab,.ae,.b,.m,.w{fill:none;}.b{stroke:#545966;stroke-width:0.5px;}.b,.w{stroke-linecap:round;}.b,.m,.w{stroke-miterlimit:10;}.c{opacity:0.5;}.d{fill:#267c9a;}.e{fill:#f28f7e;}.f{fill:#ffd0bf;}.g{fill:#5c85ff;}.h{fill:#436ce8;}.i{fill:#291c9c;}.j{fill:#3e424d;}.k{fill:#fff;}.l{fill:#2b7787;opacity:0.45;}.m{stroke:#b0bbd6;stroke-width:0.25px;}.n{fill:#545966;}.o{fill:rgba(62,66,77,0.12);stroke:rgba(92,133,255,0.24);stroke-width:0.2px;}.p{fill:#3d405c;}.q{fill:#de725f;}.r{fill:#3424c7;}.s{fill:#a0b2e8;mix-blend-mode:multiply;isolation:isolate;}.t{fill:#2f3247;}.u{fill:#74b34b;}.v{fill:#8ccc62;}.w{stroke:#ff5962;stroke-width:2px;}.x{fill:rgba(116,179,75,0.09);stroke:rgba(116,179,75,0.26);}.y{fill:rgba(239,126,41,0.05);stroke:rgba(239,126,41,0.26);}.z{fill:rgba(92,133,255,0.05);stroke:rgba(92,133,255,0.26);}.aa{fill:rgba(242,143,126,0.05);stroke:rgba(242,143,126,0.26);}.ab{stroke:#ef7e29;stroke-width:1.4px;}.ac{fill:#ef7e29;}.ad{stroke:none;}</style></defs><g transform="translate(-140 -1824.333)"><g transform="translate(140 1958.993)"><g class="a" transform="translate(446.436 208.065)"><path class="b" d="M447.939,226.314c15.4,26.676,33.8-5.192,2.994-5.192,30.811,0,12.41-31.866-2.994-5.19,15.4-26.676-21.4-26.676-5.991,0-15.4-26.676-33.807,5.19-2.994,5.19-30.813,0-12.41,31.869,2.994,5.192C426.544,252.991,463.344,252.991,447.939,226.314Z" transform="translate(-422.26 -195.925)"/><path class="b" d="M429.7,210.677a6.178,6.178,0,1,0,6.175-6.177A6.179,6.179,0,0,0,429.7,210.677Z" transform="translate(-413.192 -185.48)"/><path class="b" d="M431.449,208.548a2.3,2.3,0,1,0,2.3-2.3A2.3,2.3,0,0,0,431.449,208.548Z" transform="translate(-411.066 -183.351)"/><line class="b" y1="10.237" transform="translate(22.683 8.783)"/><line class="b" y1="5.121" x2="8.863" transform="translate(28.037 16.988)"/><line class="b" x2="8.863" y2="5.123" transform="translate(28.037 28.284)"/><line class="b" x2="0.004" y2="10.237" transform="translate(22.683 31.375)"/><line class="b" x1="8.863" y2="5.123" transform="translate(8.469 28.284)"/><line class="b" x1="8.863" y1="5.116" transform="translate(8.469 16.993)"/></g><g class="c" transform="translate(24.253 136.412)"><ellipse class="d" cx="3.024" cy="3.024" rx="3.024" ry="3.024" transform="translate(54.043)"/><path class="d" d="M605.55,205.4a3.023,3.023,0,1,0,3.023-3.023A3.025,3.025,0,0,0,605.55,205.4Z" transform="translate(-551.505 -177.051)"/><path class="d" d="M605.55,216.816a3.023,3.023,0,1,0,3.023-3.023A3.026,3.026,0,0,0,605.55,216.816Z" transform="translate(-551.505 -163.144)"/><ellipse class="d" cx="3.024" cy="3.024" rx="3.024" ry="3.024" transform="translate(54.043 75.974)"/><ellipse class="d" cx="3.024" cy="3.024" rx="3.024" ry="3.024" transform="translate(54.043 101.297)"/><ellipse class="d" cx="3.024" cy="3.024" rx="3.024" ry="3.024" transform="translate(54.043 126.62)"/><ellipse class="d" cx="3.024" cy="3.024" rx="3.024" ry="3.024" transform="translate(54.043 151.945)"/><ellipse class="d" cx="3.024" cy="3.024" rx="3.024" ry="3.024" transform="translate(27.022)"/><path class="d" d="M617.732,205.4a3.024,3.024,0,1,0,3.023-3.023A3.024,3.024,0,0,0,617.732,205.4Z" transform="translate(-590.71 -177.051)"/><path class="d" d="M617.732,216.816a3.024,3.024,0,1,0,3.023-3.023A3.024,3.024,0,0,0,617.732,216.816Z" transform="translate(-590.71 -163.144)"/><ellipse class="d" cx="3.024" cy="3.024" rx="3.024" ry="3.024" transform="translate(27.022 75.974)"/><ellipse class="d" cx="3.024" cy="3.024" rx="3.024" ry="3.024" transform="translate(27.022 101.297)"/><ellipse class="d" cx="3.024" cy="3.024" rx="3.024" ry="3.024" transform="translate(27.022 126.62)"/><ellipse class="d" cx="3.024" cy="3.024" rx="3.024" ry="3.024" transform="translate(27.022 151.945)"/><ellipse class="d" cx="3.024" cy="3.024" rx="3.024" ry="3.024" transform="translate(0.001 0)"/><path class="d" d="M629.915,205.4a3.024,3.024,0,1,0,3.025-3.023A3.026,3.026,0,0,0,629.915,205.4Z" transform="translate(-629.915 -177.051)"/><path class="d" d="M629.915,216.816a3.024,3.024,0,1,0,3.025-3.023A3.026,3.026,0,0,0,629.915,216.816Z" transform="translate(-629.915 -163.144)"/><ellipse class="d" cx="3.024" cy="3.024" rx="3.024" ry="3.024" transform="translate(0.001 75.974)"/><ellipse class="d" cx="3.024" cy="3.024" rx="3.024" ry="3.024" transform="translate(0.001 101.297)"/><ellipse class="d" cx="3.024" cy="3.024" rx="3.024" ry="3.024" transform="translate(0.001 126.62)"/><ellipse class="d" cx="3.024" cy="3.024" rx="3.024" ry="3.024" transform="translate(0.001 151.945)"/></g><g transform="translate(91.75 0)"><path class="e" d="M532.769,483.559H512.35l-62.78-186.422h39.922Z" transform="translate(-194.208 74.782)"/><path class="e" d="M486.259,483.559H465.84L403.058,297.137h39.924Z" transform="translate(-44.534 74.782)"/><path class="f" d="M488.224,483.559h20.419l62.783-186.422H531.5Z" transform="translate(-318.603 74.782)"/><path class="e" d="M534.736,483.559h20.419l62.78-186.422H578.013Z" transform="translate(-468.277 74.782)"/><path class="g" d="M603.946,178.191c-21.333.164-38.4-5.953-54.856-13.84s-43.584-15.65-54.554,3.62-6.705,31.769,1.828,56.149,63.415,162.816,63.415,162.816H741.368s-46.4-162.568-51.884-180.219-16.054-36.917-41.45-33.479S617.764,178.085,603.946,178.191Z" transform="translate(-487.962 -97.227)"/><path class="h" d="M487.775,250.846H441.451c-13.208,0-22.351,8.1-16.256,22.93s28.852,60.137,34.335,70.7,19.3,33.275,52.013,33.275H610.9s-76.428-99.583-84.52-111.291S504.638,250.846,487.775,250.846Z" transform="translate(-213.994 18.399)"/><g transform="translate(89.101)"><g transform="translate(106.833 77.393)"><path class="f" d="M579.777,185.66s-.577,10.367-1.111,14.566-.528,6.253-4.569,13.111-52.8,80.306-58.44,87.162-11.276,5.334-14.781,4.421S457.6,268.8,457.6,268.8l21.965-33.142,25.427,27.656,44.462-49.433.208-28.224Z" transform="translate(-454.958 -138.392)"/><path class="i" d="M546.694,217.513a72.782,72.782,0,0,0,19.323,15.3,4.041,4.041,0,0,1,0,3.156c-.752,1.524-8.979,13.816-8.979,13.816s1,2.34-.519,6.2-7.408,8.431-12.079,14.118-12.754,17.576-16.181,19.3-9.781,1.566-14.4-.707-43.074-37.385-43.074-37.385l11.631-51.66,38.554,43.227a6.231,6.231,0,0,1,2.03-3.2,21.815,21.815,0,0,1,4.724-2.693c1.424-.761,3.76-4.569,4.318-5.689s2.693-1.322,2.693-1.322a1.425,1.425,0,0,1,.2-1.522c.608-.763,9.651-10.36,10.312-10.871A1.382,1.382,0,0,1,546.694,217.513Z" transform="translate(-470.789 -121.353)"/><g transform="translate(64.559)"><path class="j" d="M517.539,216.818a2.483,2.483,0,0,1-.92,3.4l-25.924,14.876a2.5,2.5,0,0,1-3.4-.918l-29.375-51.221a2.487,2.487,0,0,1,.92-3.4l25.922-14.874a2.5,2.5,0,0,1,3.4.925Z" transform="translate(-457.586 -164.349)"/><path class="k" d="M458.949,180.008l25.929-14.874a1.066,1.066,0,0,1,1.437.39l28.958,50.489a1.059,1.059,0,0,1-.386,1.439l-25.931,14.87a1.054,1.054,0,0,1-1.433-.386l-28.961-50.491A1.056,1.056,0,0,1,458.949,180.008Z" transform="translate(-456.983 -163.557)"/><path class="j" d="M487.481,167.107a.434.434,0,0,0-.16.586l.1.182a.84.84,0,0,1-.315,1.147l-9.715,5.572a.835.835,0,0,1-1.144-.311l-.1-.177a.429.429,0,0,0-.592-.157l-.233-.424,11.922-6.84Z" transform="translate(-466.589 -161.506)"/><path class="l" d="M483.906,167.486a.254.254,0,0,1-.1.348l-7.107,4.072a.255.255,0,0,1-.344-.089h0a.251.251,0,0,1,.1-.344l7.1-4.077a.251.251,0,0,1,.344.089Z" transform="translate(-465.228 -160.677)"/><path class="k" d="M486.171,186.666l1.7,2.957a1.059,1.059,0,0,1-.386,1.439l-25.931,14.87a1.054,1.054,0,0,1-1.433-.386l-1.7-2.963Z" transform="translate(-429.58 -137.167)"/><line class="m" x1="27.747" y2="15.916" transform="translate(28.844 49.499)"/><g transform="translate(31.815 52.265)"><g transform="translate(22.058)"><g transform="translate(0.421 0.581)"><path class="j" d="M460.045,189.739l1.169-.67a.111.111,0,0,0,.042-.149l-.4-.694a.1.1,0,0,0-.149-.033.1.1,0,0,0-.04.144l.339.594-.976.561-.344-.592a.1.1,0,0,0-.149-.04.107.107,0,0,0-.042.149l.4.692A.105.105,0,0,0,460.045,189.739Z" transform="translate(-459.482 -188.174)"/></g><g transform="translate(0)"><path class="j" d="M461.5,188.3a.1.1,0,0,0,.051-.078.106.106,0,0,0-.091-.129l-1.26-.182a.108.108,0,0,0-.12.064l-.481,1.18a.121.121,0,0,0,.069.146.115.115,0,0,0,.14-.062l.448-1.1,1.176.173A.193.193,0,0,0,461.5,188.3Z" transform="translate(-459.594 -187.913)"/></g></g><g transform="translate(0 12.719)"><g transform="translate(0)"><path class="j" d="M470.787,194.778a.607.607,0,1,0-.61-1.049.6.6,0,0,0-.22.827A.613.613,0,0,0,470.787,194.778Zm-.5-.861a.387.387,0,0,1,.386.67.385.385,0,0,1-.528-.142A.389.389,0,0,1,470.29,193.918Z" transform="translate(-469.875 -193.647)"/></g><g transform="translate(0.253 0.619)"><path class="j" d="M470.664,195.186c.641-.364.574-.7.477-.874a.885.885,0,0,0-.732-.386.108.108,0,0,0-.109.106.11.11,0,0,0,.106.111.707.707,0,0,1,.548.275c.12.215-.149.435-.406.577s-.575.273-.7.053a.674.674,0,0,1,.038-.6.11.11,0,1,0-.191-.109.873.873,0,0,0-.033.821C469.759,195.33,470.021,195.554,470.664,195.186Z" transform="translate(-469.574 -193.926)"/></g></g><g transform="translate(10.78 6.139)"><g transform="translate(0 0.049)"><path class="j" d="M465.681,193.021l1.187-.681a.1.1,0,0,0,.051-.113l-.326-1.437a.1.1,0,0,0-.06-.078.108.108,0,0,0-.1,0l-1.936,1.109a.108.108,0,0,0-.051.082.129.129,0,0,0,.031.1l1.074,1A.114.114,0,0,0,465.681,193.021Zm1-.827-1.045.594-.9-.85,1.672-.956Z" transform="translate(-464.447 -190.703)"/></g><g transform="translate(0.422)"><g transform="translate(0.575)"><path class="j" d="M465.528,191.478l.027-.02a.111.111,0,0,0-.009-.155l-.63-.592a.121.121,0,0,0-.16,0,.117.117,0,0,0,.009.16l.632.592A.115.115,0,0,0,465.528,191.478Z" transform="translate(-464.729 -190.68)"/></g><g transform="translate(0 0.328)"><path class="j" d="M465.549,191.879a.119.119,0,0,0,.051-.12l-.193-.845a.108.108,0,0,0-.135-.082.121.121,0,0,0-.087.133l.2.843a.108.108,0,0,0,.131.082A.1.1,0,0,0,465.549,191.879Z" transform="translate(-465.184 -190.828)"/></g></g></g><g transform="translate(17.004 2.864)"><g transform="translate(0.452 0.451)"><path class="j" d="M462.791,190.152a.4.4,0,0,0,.144-.543.394.394,0,0,0-.546-.146.4.4,0,0,0,.4.69Zm-.286-.5a.176.176,0,1,1,.175.306.174.174,0,0,1-.24-.067A.171.171,0,0,1,462.505,189.653Z" transform="translate(-462.195 -189.407)"/></g><g transform="translate(0)"><path class="j" d="M463.452,191.116a.1.1,0,0,0,.053-.1l-.013-.424a.833.833,0,0,0,.084-.958.848.848,0,1,0-1.473.841.83.83,0,0,0,.872.413l.362.228a.1.1,0,0,0,.115,0Zm-.925-1.606a.627.627,0,0,1,.774.969.132.132,0,0,0-.033.08l.013.26-.222-.14a.126.126,0,0,0-.082-.018.6.6,0,0,1-.681-.3A.625.625,0,0,1,462.527,189.51Z" transform="translate(-461.991 -189.204)"/></g></g><g transform="translate(4.644 9.568)"><g transform="translate(0)"><path class="j" d="M468.016,194.6l1.683-.969a.1.1,0,0,0,.04-.146l-.692-1.2a.1.1,0,0,0-.149-.04l-1.681.963a.119.119,0,0,0-.047.155l.692,1.2A.114.114,0,0,0,468.016,194.6Zm1.475-1.1-1.491.852-.579-1.007,1.493-.858Z" transform="translate(-467.158 -192.226)"/></g><g transform="translate(0.003 0.001)"><path class="j" d="M468.822,193.516a.1.1,0,0,0,.042-.051l.5-1.085a.108.108,0,0,0-.053-.144.115.115,0,0,0-.146.053L468.7,193.3l-1.109-.109a.112.112,0,0,0-.118.1.106.106,0,0,0,.093.12l1.191.12A.086.086,0,0,0,468.822,193.516Z" transform="translate(-467.47 -192.227)"/></g></g></g><path class="n" d="M465.656,192.14a2.645,2.645,0,0,0,3.613.976l10.567-6.062a2.653,2.653,0,0,0,.98-3.62l-.111-.189a2.645,2.645,0,0,0-3.609-.976l-10.569,6.062a2.648,2.648,0,0,0-.98,3.615Z" transform="translate(-437.757 -142.949)"/><path class="o" d="M465.656,191.731a2.645,2.645,0,0,0,3.613.976l17.647-10.688a2.653,2.653,0,0,0,.98-3.62l-.111-.189a2.645,2.645,0,0,0-3.609-.976l-17.649,10.688a2.648,2.648,0,0,0-.98,3.615Z" transform="translate(-450.619 -156.32)"/><path class="o" d="M465.656,191.731a2.645,2.645,0,0,0,3.613.976l17.647-10.688a2.653,2.653,0,0,0,.98-3.62l-.111-.189a2.645,2.645,0,0,0-3.609-.976l-17.649,10.688a2.648,2.648,0,0,0-.98,3.615Z" transform="translate(-446.025 -148.971)"/><g transform="translate(12.127 16.181) rotate(-30)"><path class="n" d="M8.453,8.755c-2.341.074-4.714.03-7.053-.13a.909.909,0,0,1-.842-.8,28.388,28.388,0,0,1,0-6.624A.909.909,0,0,1,1.4.4L2,.364A.182.182,0,1,0,1.975,0l-.6.038A1.274,1.274,0,0,0,.2,1.16a28.752,28.752,0,0,0,0,6.709A1.274,1.274,0,0,0,1.375,8.989q.335.023.671.043h0l.126.544a.182.182,0,0,0,.355-.083l-.1-.441c1.265.068,2.538.1,3.808.1q1.118,0,2.232-.035a.182.182,0,1,0-.012-.365Z" transform="translate(0 2.007)"/><path class="n" d="M9.719,3.166A1.274,1.274,0,0,0,8.54,2.046c-1.275-.087-2.558-.14-3.841-.158L6.064.3A.182.182,0,0,0,5.788.063L4.222,1.882q-.5,0-1.007,0L1.65.063A.182.182,0,0,0,1.374.3L2.738,1.887Q1.452,1.9.173,1.967a.182.182,0,1,0,.018.364,70.727,70.727,0,0,1,8.323.078.909.909,0,0,1,.842.8,28.389,28.389,0,0,1,0,6.624.909.909,0,0,1-.842.8c-.618.043-1.248.077-1.873.1a.182.182,0,0,0,.007.365h.008q.415-.017.832-.04l-.1.441a.182.182,0,1,0,.355.083l.126-.544h0c.224-.013.448-.027.671-.042A1.274,1.274,0,0,0,9.719,9.875,28.748,28.748,0,0,0,9.719,3.166Z" transform="translate(2.531)"/><path class="n" d="M.189.868a22.029,22.029,0,0,0,0,5.76.835.835,0,0,0,.768.721c1.422.1,2.854.147,4.286.147s2.864-.049,4.286-.147a.835.835,0,0,0,.768-.721,22.03,22.03,0,0,0,0-5.76A.835.835,0,0,0,9.529.147a62.455,62.455,0,0,0-8.572,0A.835.835,0,0,0,.189.868Zm5.054-.5C6.667.365,8.09.413,9.5.511a.469.469,0,0,1,.432.4,21.666,21.666,0,0,1,0,5.665.469.469,0,0,1-.432.4,62.09,62.09,0,0,1-8.521,0,.469.469,0,0,1-.432-.4,21.666,21.666,0,0,1,0-5.665.469.469,0,0,1,.432-.4C2.4.413,3.82.365,5.243.365Z" transform="translate(0.98 2.773)"/></g></g><path class="f" d="M465.739,188.07c3.161-.011,5.676,2.739,6.246,5.793a16.478,16.478,0,0,0,1.868,5.487c.306.381,18.272,1.754,19.84,10.287,0,0-1.519,4.875-6.261,5.106s-7.941-.457-10.988-2.666-7.009-7.468-8.3-8.992a10.8,10.8,0,0,1-2.553-5.41c-.229-1.905-.457-5.643-.61-7.091S464.958,188.074,465.739,188.07Z" transform="translate(-385.116 -135.456)"/><path class="f" d="M463.786,177.331c.4-1.284.821-2.351,2.285-2.484s3,2.691,3,4.017a16.429,16.429,0,0,1-1.805,5.388,9.537,9.537,0,0,1-1.945,2.486c-.577.614-2.553,0-2.69-2.693S462.832,180.4,463.786,177.331Z" transform="translate(-355.343 -151.569)"/><path class="f" d="M461.689,179.939c.446-1.437.914-2.626,2.551-2.781s3.354,3.012,3.354,4.5-1.26,4.569-2.018,6.017a10.811,10.811,0,0,1-2.174,2.781c-.648.685-2.857,0-3.008-3.01S460.619,183.368,461.689,179.939Z" transform="translate(-348.9 -148.754)"/><path class="f" d="M459.877,182.6c.413-1.329.843-2.427,2.358-2.571s3.094,2.779,3.094,4.152a16.974,16.974,0,0,1-1.865,5.556,9.972,9.972,0,0,1-2,2.568c-.6.634-2.639,0-2.777-2.779S458.89,185.761,459.877,182.6Z" transform="translate(-342.85 -145.26)"/><path class="f" d="M458.386,185.274c.342-1.1.7-2.012,1.95-2.127s2.56,2.3,2.56,3.433a14.075,14.075,0,0,1-1.542,4.6,8.328,8.328,0,0,1-1.659,2.123c-.495.523-2.185,0-2.3-2.3S457.572,187.889,458.386,185.274Z" transform="translate(-337.579 -141.457)"/></g><path class="p" d="M523.24,148.87c-1.67,15.695-10.662,20.3-16.91,33.694s-11.884,32.135,12.8,52.86,76.648,30.325,96.5-7.621c14.437-27.592-5.106-51.5-10.726-79.543Z" transform="translate(-485.391 -106.553)"/><path class="g" d="M551.29,288.893l-9.585,42.519H434.363l30.682-33.071,24.03-9.448Z" transform="translate(-268.103 64.741)"/><g transform="translate(119.013 213.579)"><path class="f" d="M531.151,297.715s-38.953,40.561-49.746,55.14S462.9,393.163,463.1,398.677s4.452,12.485,7.475,14.626,3.873,4.587,3.629,6.5-2.966,5.059-4.886,4.132-13.982-6.778-18.509-8.967-13.164-13.727-13.459-21.151,2.138-14.2-.646-24.183-6.04-14.446-6.137-22.278,1.329-13.923,8.173-16.868,21.659-1.362,30.5-12.991,33.86-50.646,33.86-50.646Z" transform="translate(-358.542 -175.686)"/><path class="e" d="M430.56,299.234c10.041-15.018,21.169-32.383,21.169-32.383l28.049,30.864s-17.8,18.532-32.663,35.049C442.548,326.125,434.441,313.1,430.56,299.234Z" transform="translate(-307.168 -175.686)"/><path class="j" d="M437.154,291.615s103.082-51.857,175.31-65.394a29.973,29.973,0,0,1,29.562,11.884c6.064,8.46,10.059,22.553,1.242,35.479-5.915,8.677-95.248,106.383-95.248,106.383s-23.431-24.562-28.79-46.35c0,0,31.232-39.574,36.464-45.84-18.5,7.335-47.763,22.863-47.763,22.863S430.21,338.879,400.958,334.6,437.154,291.615,437.154,291.615Z" transform="translate(-393.431 -225.749)"/></g><path class="f" d="M490.938,326.351s-17.372,53.488-20.725,71.316.914,44.343,3.5,49.22,9.449,9.3,13.1,9.9,5.487,2.44,6.1,4.268-.455,5.847-2.588,5.847H469.756c-5.028,0-17.828-6.61-21.333-13.159s-4.267-13.716-11.126-21.486-11.731-10.363-15.236-17.374-4.877-13.1,0-18.742,18.9-10.667,21.79-24.99,8.382-60.344,8.382-60.344Z" transform="translate(-175.595 91.435)"/><path class="e" d="M419.866,349.181c2.484-17.891,4.928-38.372,4.928-38.372l38.7,15.542s-7.936,24.44-14.113,45.784C442.379,368.156,429.4,359.965,419.866,349.181Z" transform="translate(-148.156 91.435)"/><path class="n" d="M474.461,264.929s160.409-17.476,170.06-17.879,17.576,2.744,22.349,11.986,8.027,19.607,5.791,29.868-43.278,151.979-43.278,151.979-31.8-11.889-46.119-29.158c0,0,17.828-79.749,19.807-87.672a47.932,47.932,0,0,1,4.573-12.19s-55.162,23.18-83.353,32.086-55.774,14.085-79.545,5.4-40.228-23.01-43.733-29.1c0,0,15.848-25.447,32.456-37.64S474.461,264.929,474.461,264.929Z" transform="translate(-316.226 13.734)"/><path class="f" d="M525.8,163.236s0,21.945-.763,28.65-2.732,14.171-12.871,14.934a51.985,51.985,0,0,0,27.805,41.142c26.818,14.326,36.757,13.869,38.644,7.315S577.3,237.3,577.3,237.3s-9.753-5.942-16-11.733-6.607-10.871-6.607-18.691V163.236Z" transform="translate(-468.593 -88.312)"/><path class="e" d="M522.831,163.236h28.9v43.635c0,4.585.16,8.218,1.517,11.614-9.4-3.857-23.314-16.234-30.713-34.741C522.831,174.834,522.831,163.236,522.831,163.236Z" transform="translate(-465.624 -88.312)"/><path class="f" d="M578.69,151.144c7.743,7.184,10.527,20.153,8.007,33.687s-2.067,14.16-2.8,18.791c-1.524,9.628-5.949,18.332-13.335,26.7-7.475,8.462-14.575,8.761-18.913,7.617s-31.5-11.341-36.668-34.313c-8.806-7.357-16.886-28.555-7.395-46.609C520.028,133.316,555.17,129.33,578.69,151.144Z" transform="translate(-457.357 -120.496)"/><path class="p" d="M506.426,150.9a42.165,42.165,0,0,1,16.646-14.53c8.264-6.827,18.958-7.6,31.775-6.5,35.528,3.048,42.925,27.124,43.994,39.771a49.18,49.18,0,0,1-2.591,21.182s-13.714-9.478-31.148-20.408c3.267,5.492,7.976,12.594,12.388,16.254-15.355-3.119-28.839-17.631-33.687-23.4l-.009,0c-3.784,26.355-14.592,32.283-25.563,31.343,0,0-8.841-1.231-12.649-6.774S496.3,165.829,506.426,150.9Z" transform="translate(-462.853 -129.456)"/><path class="f" d="M550.59,163.635s-2.245-7.022-8.4-7.807-7.659,7.178-5.758,12.461c3.558,9.906,13.237,12.226,13.237,12.226Z" transform="translate(-492.092 -97.4)"/><path class="p" d="M519.4,160.818c-.506,2.531.39,4.84,2,5.161s3.32-1.466,3.831-4-.384-4.846-2-5.166S519.906,158.278,519.4,160.818Z" transform="translate(-430.482 -96.183)"/><path class="p" d="M506.363,163.613c-.379,1.885.328,3.613,1.579,3.864s2.564-1.073,2.941-2.961-.326-3.615-1.575-3.866S506.74,161.723,506.363,163.613Z" transform="translate(-387.266 -91.499)"/><path class="p" d="M529.252,160.9a2.813,2.813,0,0,0-.295-.468,10.711,10.711,0,0,0-.978-1.14,12.153,12.153,0,0,0-1.65-1.337,5.505,5.505,0,0,0-1.071-.588,6.91,6.91,0,0,0-1.18-.486,7.972,7.972,0,0,0-2.535-.459,5.129,5.129,0,0,0-2.236.355,7.088,7.088,0,0,0-1.9,1.058.954.954,0,0,0-.093,1.355.927.927,0,0,0,.552.319l.3.055a5.485,5.485,0,0,0,1.715-.009c.468-.115,1.02.1,1.592.018a9.422,9.422,0,0,1,1.825.142,4.164,4.164,0,0,1,.932.257c.3.115.628.153.923.268a14.25,14.25,0,0,1,1.624.7,17.911,17.911,0,0,1,1.6.818l.266.018a.626.626,0,0,0,.668-.577A.608.608,0,0,0,529.252,160.9Z" transform="translate(-429.583 -96.634)"/><path class="p" d="M505.5,164.531s.537-.282,1.349-.645a13.753,13.753,0,0,1,2.795-1.007,6.256,6.256,0,0,1,1.346-.075c.4.007.763.027,1.111.051.665.075,1.286.177,1.286.177l.091-.018a1.039,1.039,0,0,0,1.156-.907,1.066,1.066,0,0,0-.115-.619,2.479,2.479,0,0,0-.331-.417,3.112,3.112,0,0,0-1.116-.887,4,4,0,0,0-2.005-.537,6.069,6.069,0,0,0-2.262.415,7.8,7.8,0,0,0-4.19,3.615.644.644,0,0,0,.865.867Z" transform="translate(-387.117 -92.694)"/><path class="p" d="M529.232,158.137a3.563,3.563,0,0,0-.393-.506,13.67,13.67,0,0,0-1.2-1.273,16.242,16.242,0,0,0-1.943-1.488,12.447,12.447,0,0,0-2.524-1.249,11.38,11.38,0,0,0-2.726-.781,8.75,8.75,0,0,0-2.464-.151,13.969,13.969,0,0,0-2.362.386.93.93,0,0,0-.643,1.147.92.92,0,0,0,.67.65l.184.047a12.033,12.033,0,0,0,2.094.271,12.987,12.987,0,0,1,2.067.286,10.438,10.438,0,0,1,2.333.523,19.83,19.83,0,0,1,2.251.872c.685.348,1.333.7,1.861,1.034a12.993,12.993,0,0,1,1.244.843,3.763,3.763,0,0,1,.457.373.733.733,0,0,0,1.038,0,.747.747,0,0,0,.111-.909Z" transform="translate(-424.925 -101.225)"/><path class="p" d="M505.441,160.345a5.192,5.192,0,0,1,1.023-.546,7.5,7.5,0,0,1,1.031-.415,4.127,4.127,0,0,1,.574-.118c.191-.022.377-.138.559-.089a2.728,2.728,0,0,1,1.038.146,3.275,3.275,0,0,1,.9.264,3.571,3.571,0,0,0,1.051.317l.357.036a.927.927,0,0,0,1.023-.823.985.985,0,0,0-.142-.6,5.3,5.3,0,0,0-1.082-1.12,3.556,3.556,0,0,0-1.524-.683,4.752,4.752,0,0,0-1.95-.044,3.493,3.493,0,0,0-.925.248,3.943,3.943,0,0,0-.832.37,7.093,7.093,0,0,0-1.233.916,6.1,6.1,0,0,0-.932,1.113.736.736,0,1,0,1.058,1.023Z" transform="translate(-384.659 -96.404)"/><g transform="translate(110.025 72.259)"><path class="q" d="M511.682,179.429a10.336,10.336,0,0,0,4.766-.907.814.814,0,0,0,.45-.8l-1.215-14.938a.829.829,0,0,0-.887-.747.817.817,0,0,0-.752.881l1.176,14.342a8.253,8.253,0,0,1-5.368.164.821.821,0,0,0-.535,1.553A8.883,8.883,0,0,0,511.682,179.429Z" transform="translate(-508.767 -162.035)"/></g><g transform="translate(93.611 90.438)"><path class="q" d="M524.428,178.651c.453.091.736.118.79.124a.817.817,0,0,0,.894-.734.865.865,0,0,0-.732-.892,12.556,12.556,0,0,1-9.16-6.477.818.818,0,1,0-1.451.754A13.97,13.97,0,0,0,524.428,178.651Z" transform="translate(-514.677 -170.23)"/></g><path class="r" d="M594.1,218.092c2.571,7.577,2.952,21.062-8.859,18.547s-27.734-19.124-36.877-30.933-16.3-25.6-30.857-27.659-24.456,4.192-28.723,17.221,8.582,66.669,25.447,111.773,26.006,65.017,26.006,65.017.617,8.129,1.528,10.769,9.85,6.3,9.85,6.3-.306,2.848,2.231,6.3,11.072,9.646,13.716,11.68S576,408.427,576,408.427s11.822-19.971,41.55-41.5c22.934-16.609,34.59-16.915,34.59-16.915a2.4,2.4,0,0,0-1.142-2.9c-1.828-1.065-8.457-5.1-8.457-5.1s1.144-4.343-1.3-6.1-9.677-7.847-9.677-7.847,2.591-22.708,3.2-28.648,4.724-24.383-.151-31.849-25.676-37.03-28.191-41.144S594.1,218.092,594.1,218.092Z" transform="translate(-487.962 -70.74)"/><path class="i" d="M535.055,204.482s11.884,36.44,18.793,47.173,21.739,19.969,29.863,33.026c7.275,11.682,41.2,21.865,50.154,42.508-3.229,1.952-6.756,4.261-10.635,7.069-29.728,21.53-41.55,41.5-41.55,41.5s-5.791.71-8.433-1.322-11.172-8.229-13.716-11.68-2.231-6.3-2.231-6.3-8.939-3.655-9.85-6.3-1.528-10.769-1.528-10.769-9.143-19.911-26.006-65.017a566.936,566.936,0,0,1-21.1-69.892Z" transform="translate(-493.642 -38.073)"/></g><path class="h" d="M560.473,250.846H514.15c-13.206,0-22.349,8.1-16.254,22.93s28.848,60.137,34.335,70.7,19.3,33.275,52.01,33.275H683.6s-76.426-99.583-84.518-111.291S577.339,250.846,560.473,250.846Z" transform="translate(-447.945 18.399)"/><path class="g" d="M664.426,335.252l-22.661,11.276-32.05,31.243H586.755c-18.132,0-41.142-2.291-55.923-32s-38.095-72.221-47.543-82.51-18.441-12.425-20.876-12.425H500.2c10.059,0,21.335,1.22,32.762,17.372s20.605,38.86,29.5,48.916,20.481,18.132,40.137,18.132Z" transform="translate(-354.352 18.382)"/><path class="s" d="M532.83,258.91c-2.469-3.121-2.808-5.348-3.285-8.047h40.1a5.565,5.565,0,0,0-.566-.031h37.788c4.862,0,10.014.3,15.324,2.424-.284.133-25.259,11.984-29.65,13.157-4.414,1.182-17.673,12.3-24.531,11.086s-12.494-5.028-16.458-7.313S536.206,263.175,532.83,258.91Z" transform="translate(-461.013 18.382)"/><g transform="translate(71.817 115.653)"><path class="e" d="M497.385,229.484s10.944-2.231,13.282-2.741a5,5,0,0,1,5.079,1.371c1.016,1.169,5.079,7.06,5.079,7.06v2.642h-23.44Z" transform="translate(-360.137 -126.817)"/><g transform="translate(148.297 98.575)"><path class="t" d="M509.713,279.757l2.937.237.59-7.291-2.934-.237c-7.189-.583-9.493-3-10.265-10.782-.308-6.3-1.207-23.125-1.207-23.125a6.062,6.062,0,0,1,1.4-4.627,1.694,1.694,0,0,1,1.417-.57l14.7,1.191.592-7.291-14.7-1.191a9.044,9.044,0,0,0-7.115,2.622,13.2,13.2,0,0,0-3.591,10.263s.892,16.8,1.218,23.269C493.883,273.693,498.949,278.883,509.713,279.757Z" transform="translate(-491.507 -226.041)"/></g><path class="f" d="M499.187,248.649s43.888-6.856,49.526-8.686,13.818-11.429,15.213-12.037,19.275,2.744,22.932,3.453,4.877,3.045,6,5.281a7.325,7.325,0,0,1-.712,7.417,47.468,47.468,0,0,0-4.063,7.417c-.51,1.42-3.862,10.363-5.385,13.916s-3.857,3.351-5.789,2.946-12.09-2.846-15.24-3.354-7.415-1.113-11.988.408-46.519,13.441-46.519,13.441-6.918-2.371-8.337-12.933A23.072,23.072,0,0,1,499.187,248.649Z" transform="translate(-426.679 -125.26)"/><path class="r" d="M553.46,190.474c-5.556,29.036-16,105.371-16.458,117.1s-4.267,28.04,1.526,33.375,8.686,6.63,14.932,8.307,8.457,2.968,9.83,3.731,4.8,2.666,7.009,2.666,11.658-6.246,12.647-7.313a11.976,11.976,0,0,0,1.6-2.211,12.834,12.834,0,0,0,3.655.612c1.524-.075,21.107-8.841,22.021-9.3s1.606-2.254,1.606-2.254a26.6,26.6,0,0,1-5.8-14.2c-.532-8.151-.153-12.649,1.828-16,0,0-.151-1.6-1.446-1.675s-20.5.683-20.5.683,1.448-1.522,1.067-2.97a23.752,23.752,0,0,0-1.14-3.125,353.332,353.332,0,0,0,7.391-47.259c1.978-24.587.759-53.39-7.772-62.53S555.62,179.182,553.46,190.474Z" transform="translate(-535.351 -181.598)"/><path class="p" d="M473.676,283.237a2.824,2.824,0,0,0,2.584,3.041l38.05,3.085a2.818,2.818,0,0,0,3.041-2.58l4.558-56.142a2.819,2.819,0,0,0-2.582-3.043l-38.05-3.09a2.822,2.822,0,0,0-3.043,2.584Z" transform="translate(-308.623 -129.345)"/></g></g><g transform="translate(0 192.99)"><g transform="translate(0)"><g transform="translate(54.301)"><path class="u" d="M648.316,454.633V216.466c-26.423,13.588-41.155,69.251-42.508,83.9-16.431,23.027-11.691,77.6-.852,99.283C599.535,402.7,604.619,450.569,648.316,454.633Z" transform="translate(-595.104 -216.466)"/><path class="v" d="M571.114,454.633V216.466c26.421,13.588,41.155,69.251,42.51,83.9,16.429,23.027,11.687,77.6.847,99.283C619.892,402.7,614.811,450.569,571.114,454.633Z" transform="translate(-517.901 -216.466)"/></g><g transform="translate(0 70.62)"><path class="u" d="M687.053,415.7l-69.8-167.4c-14.588,17.292-8.63,60.736-5.286,71.431-4.8,21,14.521,57.968,28.495,70.03C637.545,393.5,655.147,425.654,687.053,415.7Z" transform="translate(-607.882 -248.305)"/><path class="v" d="M668.64,415.7l-69.8-167.4c22.551,1.805,49.224,36.611,54.47,46.514,18.3,11.37,30.955,51.116,29.693,69.533C687.7,364.906,698.16,400.044,668.64,415.7Z" transform="translate(-589.469 -248.305)"/></g><g transform="translate(113.082 103.409)"><path class="u" d="M570.922,396.895l66.09-133.806c-18.609.3-42.337,27.488-47.162,35.344-15.619,8.375-28.107,40.352-28.029,55.541C557.927,354.182,547.5,382.484,570.922,396.895Z" transform="translate(-556.124 -263.088)"/><path class="v" d="M553.443,396.895l66.09-133.806c11.072,14.965,3.906,50.329.6,58.935,2.843,17.5-14.969,46.84-27.075,56.016C595.261,381.255,579.119,406.738,553.443,396.895Z" transform="translate(-538.644 -263.088)"/></g></g><path class="g" d="M586.888,416.176h100.8l21.911-102.7H564.931Z" transform="translate(-535.16 -98.302)"/><rect class="f" width="128.015" height="18.591" transform="translate(38.097 278.894)"/><g transform="translate(45.418 297.485)"><path class="f" d="M579.434,418.454H591.8V350.588h-19.81Z" transform="translate(-478.423 -350.588)"/><path class="e" d="M591.8,369.408l-18.389-5.9-1.421-12.923H591.8Z" transform="translate(-478.423 -350.588)"/><path class="f" d="M626.53,418.454H614.169V350.588h19.808Z" transform="translate(-614.169 -350.588)"/><path class="e" d="M614.169,369.408l18.392-5.9,1.417-12.923H614.169Z" transform="translate(-614.169 -350.588)"/></g></g><path class="w" d="M611.27,334.432c-10.629,0-10.629,9.75-21.255,9.75s-10.631-9.75-21.262-9.75-10.635,9.75-21.271,9.75-10.631-9.75-21.262-9.75-10.635,9.75-21.273,9.75-10.64-9.75-21.277-9.75" transform="translate(-256.595 120.209)"/></g><g class="x" transform="translate(255.46 1886.333)"><circle class="ad" cx="41.5" cy="41.5" r="41.5"/><circle class="ae" cx="41.5" cy="41.5" r="41"/></g><g class="y" transform="translate(606.46 2059.333)"><circle class="ad" cx="41.5" cy="41.5" r="41.5"/><circle class="ae" cx="41.5" cy="41.5" r="41"/></g><g class="z" transform="translate(565.46 1917.333)"><circle class="ad" cx="41.5" cy="41.5" r="41.5"/><circle class="ae" cx="41.5" cy="41.5" r="41"/></g><g class="aa" transform="translate(437.46 1824.333)"><ellipse class="ad" cx="41.5" cy="41" rx="41.5" ry="41"/><ellipse class="ae" cx="41.5" cy="41" rx="41" ry="40.5"/></g><g transform="translate(274.777 1899.68)"><g transform="translate(0)"><path class="u" d="M232.947,5.662a.944.944,0,0,0,.944-.944V.944a.944.944,0,0,0-1.887,0V4.718A.944.944,0,0,0,232.947,5.662Z" transform="translate(-210.3)"/><path class="u" d="M140.1,26.029l1.887,3.268a.944.944,0,0,0,1.641-.933l-.006-.011-1.887-3.268a.944.944,0,0,0-1.641.933Z" transform="translate(-129.127 -21.705)"/><path class="u" d="M73.078,93.73l.011.006,3.268,1.887A.944.944,0,1,0,77.311,94l-.011-.006L74.032,92.1a.944.944,0,0,0-.954,1.628Z" transform="translate(-69.709 -81.124)"/><path class="u" d="M53.665,184.944a.944.944,0,0,0-.944-.944H48.947a.944.944,0,0,0,0,1.887h3.774A.944.944,0,0,0,53.665,184.944Z" transform="translate(-48.003 -162.297)"/><path class="u" d="M76.367,260.1l-.011.006-3.268,1.887a.944.944,0,0,0,.933,1.641l.011-.006,3.268-1.887a.944.944,0,1,0-.933-1.641Z" transform="translate(-69.708 -229.308)"/><path class="u" d="M368.294,262l-.011-.006-3.268-1.887a.944.944,0,1,0-.955,1.628l.011.006,3.268,1.887a.944.944,0,1,0,.955-1.628Z" transform="translate(-326.37 -229.308)"/><path class="u" d="M388.721,184h-3.774a.944.944,0,1,0,0,1.887h3.774a.944.944,0,1,0,0-1.887Z" transform="translate(-344.371 -162.297)"/><path class="u" d="M364.593,95.75a.944.944,0,0,0,.472-.126l3.268-1.887A.944.944,0,0,0,367.4,92.1l-.011.006-3.268,1.887a.944.944,0,0,0,.472,1.761Z" transform="translate(-326.418 -81.124)"/><path class="u" d="M308.469,29.642h0a.944.944,0,0,0,1.289-.346h0l1.887-3.268a.944.944,0,0,0-1.628-.955l-.006.011-1.887,3.268A.944.944,0,0,0,308.469,29.642Z" transform="translate(-277.331 -21.705)"/><path class="u" d="M178.383,178.872a.944.944,0,0,0,.944-.944v-10.38h1.887a3.774,3.774,0,1,0-3.774-3.774v1.887h-1.887v-1.887a3.774,3.774,0,1,0-3.774,3.774h1.887v10.38a.944.944,0,0,0,1.887,0v-10.38h1.887v10.38A.944.944,0,0,0,178.383,178.872Zm.944-15.1a1.887,1.887,0,1,1,1.887,1.887h-1.887Zm-5.662,1.887h-1.887a1.887,1.887,0,1,1,1.887-1.887Z" transform="translate(-153.849 -141.128)"/><path class="u" d="M127.9,64.02a15.1,15.1,0,0,0-10.3,26.75,2.812,2.812,0,0,1,1.078,2.158v2.213A2.831,2.831,0,0,0,120.56,97.8v1.117a2.813,2.813,0,0,0,.736,1.887,2.788,2.788,0,0,0,0,3.774,2.819,2.819,0,0,0,2.095,4.718.92.92,0,0,0,.776-1.45,1,1,0,0,0-.106-.163.975.975,0,0,0-.262-.172c-.027-.014-.055-.025-.083-.037a1,1,0,0,0-.3-.059c-.009,0-.018-.006-.027-.006a.944.944,0,0,1,0-1.887h3.774a.944.944,0,1,0,0-1.887h-3.774a.944.944,0,0,1,0-1.887h3.774a.944.944,0,1,0,0-1.887h-3.774a.944.944,0,0,1-.944-.944v-.944h4.718a.944.944,0,1,0,0-1.887H121.5a.944.944,0,0,1-.944-.944V92.928a4.691,4.691,0,0,0-1.769-3.619,13.211,13.211,0,0,1,9.018-23.4,13.362,13.362,0,0,1,12.567,13.111,13.133,13.133,0,0,1-4.9,10.345,4.678,4.678,0,0,0-1.7,3.673v2.1a.944.944,0,0,1-.944.944H130a.944.944,0,1,0,0,1.887h1.887v.944a.944.944,0,0,1-.944.944H130a.944.944,0,0,0,0,1.887h.944a.944.944,0,0,1,0,1.887H130a.944.944,0,1,0,0,1.887h.944a.944.944,0,0,1,0,1.887h-4.718a.944.944,0,0,0,0,1.887h3.613a2.831,2.831,0,0,1-4.785.937.944.944,0,1,0-1.41,1.255,4.708,4.708,0,0,0,8.163-2.341,2.8,2.8,0,0,0,1.231-4.569,2.788,2.788,0,0,0,0-3.774,2.813,2.813,0,0,0,.736-1.887V97.8a2.831,2.831,0,0,0,1.887-2.657v-2.1a2.837,2.837,0,0,1,1-2.205,15.008,15.008,0,0,0,5.6-11.827A15.273,15.273,0,0,0,127.9,64.02Z" transform="translate(-104.519 -56.453)"/></g></g><g transform="translate(455.959 1839.994)"><path class="e" d="M35.808,2.829V21.238a1.529,1.529,0,0,0-1.531,1.531l0,6.907H3.6A3.062,3.062,0,0,0,.529,32.746v7.665A3.065,3.065,0,0,0,3.6,43.481h.764v2.3a.767.767,0,0,0,.77.77H10.5a.77.77,0,0,0,.767-.77v-2.3H35.808v2.3a.767.767,0,0,0,.772.77h5.366a.767.767,0,0,0,.771-.77v-2.3h.764a3.061,3.061,0,0,0,3.068-3.069V32.746a3.06,3.06,0,0,0-3.068-3.069H41.946V22.769a1.532,1.532,0,0,0-1.532-1.531l0-18.409a2.3,2.3,0,0,0-4.6,0Zm2.305-.764a.757.757,0,0,1,.764.764l0,18.409H37.345l0-18.409a.762.762,0,0,1,.77-.764ZM16.3,9.2A19.706,19.706,0,0,0,2.285,15.081c-.748.7.4,1.837,1.092,1.076a18.121,18.121,0,0,1,25.847,0c.694.766,1.834-.383,1.092-1.076A19.717,19.717,0,0,0,16.3,9.2Zm0,4.825A14.959,14.959,0,0,0,5.654,18.489c-.793.674.44,1.85,1.086,1.076a13.4,13.4,0,0,1,19.115,0,.767.767,0,0,0,1.094-1.076A14.98,14.98,0,0,0,16.3,14.028Zm0,4.818a10.22,10.22,0,0,0-7.274,3.046c-.745.687.389,1.843,1.086,1.082a8.688,8.688,0,0,1,12.383,0,.769.769,0,1,0,1.092-1.082A10.245,10.245,0,0,0,16.3,18.846Zm19.514,3.926h4.6v6.9h-4.6ZM16.3,23.663A5.5,5.5,0,0,0,12.386,25.3a.769.769,0,1,0,1.092,1.082,3.957,3.957,0,0,1,5.645,0A.767.767,0,1,0,20.21,25.3,5.5,5.5,0,0,0,16.3,23.663ZM3.6,31.212H43.481a1.522,1.522,0,0,1,1.534,1.534v7.665a1.527,1.527,0,0,1-1.534,1.534H3.6a1.521,1.521,0,0,1-1.534-1.534V32.746A1.521,1.521,0,0,1,3.6,31.212ZM5.9,43.481H9.733v1.534H5.9Zm31.448,0H41.18v1.534H37.345Z" transform="translate(-0.529 -0.529)"/><rect class="e" width="11.642" height="1.94" rx="0.97" transform="translate(25.42 35.374)"/><circle class="e" cx="2" cy="2" r="2" transform="translate(4.501 34.339)"/><ellipse class="e" cx="1.5" cy="2" rx="1.5" ry="2" transform="translate(10.501 34.339)"/><circle class="e" cx="2" cy="2" r="2" transform="translate(16.501 34.339)"/></g><g transform="translate(580.071 1934.247)"><path class="g" d="M44.4,74.922H39.562V72.745a.788.788,0,0,0-.789-.789h-5.25v-2.1a.788.788,0,0,0-.789-.789H30.7V67a9.157,9.157,0,1,0-12.942-8.338c0,.134,0,.264.01.384a.789.789,0,0,0,1.576-.065c0-.12-.008-.22-.008-.319a7.58,7.58,0,1,1,.5,2.7.789.789,0,0,0-1.474.562A9.18,9.18,0,0,0,23.131,67v2.069H21.094a.788.788,0,0,0-.789.789v2.1h-5.25a.788.788,0,0,0-.789.789v2.177H9.428A9.439,9.439,0,0,0,0,84.35v7.782a.789.789,0,1,0,1.577,0V84.35A7.86,7.86,0,0,1,9.428,76.5h4.839V81.23H9.428a3.124,3.124,0,0,0-3.12,3.12v7.782a.789.789,0,1,0,1.577,0V84.35a1.545,1.545,0,0,1,1.543-1.543h4.839v2.177a.788.788,0,0,0,.789.789h3.223v2.513a.788.788,0,0,0,.789.789H29.148a.789.789,0,1,0,0-1.577H19.856V85.772H33.974V87.5h-2.2a.789.789,0,1,0,0,1.577h2.986a.788.788,0,0,0,.789-.789V85.772h3.223a.788.788,0,0,0,.789-.789V82.807H44.4a1.545,1.545,0,0,1,1.543,1.543v7.782a.789.789,0,1,0,1.577,0V84.35a3.124,3.124,0,0,0-3.12-3.12H39.562V76.5H44.4a7.86,7.86,0,0,1,7.851,7.851v7.782a.789.789,0,1,0,1.577,0V84.35A9.439,9.439,0,0,0,44.4,74.922ZM24.708,67.546a9.341,9.341,0,0,0,2.207.269,9.155,9.155,0,0,0,2.207-.269v1.522H24.708Zm-2.826,3.1H31.947v1.312H21.882ZM37.985,84.2H15.844V73.534H37.985Z" transform="translate(0 -49.5)"/><path class="g" d="M238.871,84.628a.788.788,0,0,0-.789.789v2.825a2.012,2.012,0,1,0,1.577,0V85.417A.788.788,0,0,0,238.871,84.628Zm0,5.9a.435.435,0,1,1,.436-.435A.436.436,0,0,1,238.871,90.528Z" transform="translate(-211.956 -80.935)"/><path class="g" d="M234.37,298.192c-1.651,0-2.541,2.765-2.541,3.895a2.541,2.541,0,0,0,5.082,0C236.911,300.957,236.021,298.192,234.37,298.192Zm0,4.859a.965.965,0,0,1-.964-.964,3.73,3.73,0,0,1,.964-2.31,3.731,3.731,0,0,1,.964,2.31A.965.965,0,0,1,234.37,303.051Z" transform="translate(-207.456 -272.046)"/></g><g transform="translate(630.857 2075.671)"><path class="ab" d="M146.826,112.8H125a2.195,2.195,0,0,0-2.2,2.2v12.327a2.195,2.195,0,0,0,2.2,2.2H146.9a2.195,2.195,0,0,0,2.2-2.2V114.92A2.25,2.25,0,0,0,146.826,112.8Z" transform="translate(-118.56 -101.729)"/><g transform="translate(3.847 32.035)"><circle class="ab" cx="3.141" cy="3.141" r="3.141" transform="translate(20.65)"/><circle class="ab" cx="3.141" cy="3.141" r="3.141"/></g><g transform="translate(0)"><path class="ac" d="M109.672,6.988H99.386l2.277-5.418h.628A2.48,2.48,0,0,1,104.8,4.083a.787.787,0,0,0,.785.785.742.742,0,0,0,.785-.785A4.055,4.055,0,0,0,102.292,0H91.535a4.055,4.055,0,0,0-4.083,4.083.785.785,0,1,0,1.57,0A2.48,2.48,0,0,1,91.535,1.57h.707l2.277,5.5H84.233A4.641,4.641,0,0,0,79.6,11.7V36.432a6.3,6.3,0,0,0,6.281,6.281h2.905l-4.868,6.36a.776.776,0,0,0,.157,1.1,1.116,1.116,0,0,0,.471.157.714.714,0,0,0,.628-.314l2.356-3.062h18.923l2.356,3.062a.714.714,0,0,0,.628.314,1.116,1.116,0,0,0,.471-.157.83.83,0,0,0,.157-1.1l-4.868-6.36H108.1a6.3,6.3,0,0,0,6.281-6.281V11.621A4.816,4.816,0,0,0,109.672,6.988ZM93.89,1.57h6.046l-2.277,5.5H96.167Zm9.265,41.143,2.041,2.67H88.63l2.041-2.67Zm9.579-6.281a4.725,4.725,0,0,1-4.711,4.711H85.881a4.725,4.725,0,0,1-4.711-4.711V11.621a3.066,3.066,0,0,1,3.062-3.062h25.44a3.066,3.066,0,0,1,3.062,3.062Z" transform="translate(-79.6)"/><rect class="ac" width="9.658" height="1.021" transform="translate(12.563 33.998)"/><rect class="ac" width="9.658" height="1.021" transform="translate(12.563 36.589)"/><rect class="ac" width="1.57" height="1.57" transform="translate(12.406 30.308)"/><rect class="ac" width="1.57" height="1.57" transform="translate(16.567 30.308)"/><rect class="ac" width="1.57" height="1.57" transform="translate(20.729 30.308)"/></g></g></g></svg>