<svg xmlns="http://www.w3.org/2000/svg" width="23.549" height="18.957" viewBox="0 0 23.549 18.957"><defs><style>.a{fill:#003844;stroke:#fff;stroke-width:0.3px;}</style></defs><g transform="translate(2.15 0.15)"><path class="a" d="M19.111,59.77H.138A2.14,2.14,0,0,1-2,57.632V44.806A2.14,2.14,0,0,1,.138,42.668H19.111a2.14,2.14,0,0,1,2.138,2.138V57.632A2.14,2.14,0,0,1,19.111,59.77ZM.138,43.834a.973.973,0,0,0-.972.972V57.632a.973.973,0,0,0,.972.972H19.111a.973.973,0,0,0,.972-.972V44.806a.973.973,0,0,0-.972-.972Zm0,0" transform="translate(0 -41.113)"/><path class="a" d="M18.074,171.834H.583a.583.583,0,1,1,0-1.166H18.074a.583.583,0,1,1,0,1.166Zm0,0" transform="translate(0.296 -164.449)"/><path class="a" d="M15.319,171.834H.494a.591.591,0,0,1,0-1.166H15.319a.591.591,0,0,1,0,1.166Zm0,0" transform="translate(1.718 -161.005)"/><path class="a" d="M13.183,171.834H.425c-.235,0-.425-.261-.425-.583s.191-.583.425-.583H13.183c.235,0,.425.261.425.583S13.418,171.834,13.183,171.834Zm0,0" transform="translate(2.82 -157.562)"/><path class="a" d="M107.251,4.664a.583.583,0,0,1-.583-.583V.583a.583.583,0,1,1,1.166,0v3.5A.583.583,0,0,1,107.251,4.664Zm0,0" transform="translate(-102.485)"/><path class="a" d="M373.915,4.664a.583.583,0,0,1-.583-.583V.583a.583.583,0,0,1,1.166,0v3.5A.583.583,0,0,1,373.915,4.664Zm0,0" transform="translate(-359.432)"/></g></svg>