<svg xmlns="http://www.w3.org/2000/svg" width="532.505" height="275.083" viewBox="0 0 532.505 275.083"><defs><style>.a{fill:#dde8fd;}.b{fill:#bed2fa;}.c{fill:#93b3f4;}.d{fill:#3a49cd;}.e{fill:#e75755;}.f{fill:#fff;}.g{fill:#3662c1;}.h{fill:#6d89cf;}.i{fill:#fa7269;}.j{fill:#ed6966;}.k{fill:#fc9290;}.l{fill:#060632;}.m{fill:#0b0754;}.n{fill:#ea8888;}.o{fill:#0b0b36;}</style></defs><g transform="translate(0 0.001)"><g transform="translate(0 -0.001)"><path class="a" d="M69.447,274.944S8.436,209.438,59.129,138.517c44.979-62.925,97.419-58.624,135.894-33.089,16.387,10.876,63.632,1.34,103.844-62.688C353.7-44.578,543.792,8.381,509.133,142.722c-16.773,65.012,51.045,67.374,16.489,132.36Z" transform="translate(-28.863 0.001)"/><path class="b" d="M482.736,462.838s-30.183-42.963-41.978-37.393,41.978,37.393,41.978,37.393" transform="translate(-324.985 -314.533)"/><path class="b" d="M561.221,437.832s-4.61-32.3-11.878-31.037,11.878,31.037,11.878,31.037" transform="translate(-405.39 -301.072)"/><path class="c" d="M353.688,867.748s2.9-14.375-8.366-16.181c0,0-7.642-.267-12.141,2.615,0,0,12.778,7.377,11.259,9.67s-13.646-9.247-13.646-9.247-13.7,6-16.756,10.345c0,0,16.187,2.885,14.15,4.733s-19.021-.371-19.021-.371-10.944,8.815-6.178,15.833,10.207,6.968,11.929,5.748,10.151-11.3,11.223-9.925-2.637,9.878-7.025,12.631c0,0,13.78,4.64,17.931-1.24s2.231-10.452,4.862-14.04,5.649-5.268,5.11-2.807-6.039,7.631-6.063,12.334-.49,8.125,4.88,3.967,12.5-13.772,10.177-18.919Z" transform="translate(-223.374 -630.301)"/><path class="d" d="M329.714,925.511s32.142-19.618,44.645-14.276a27.216,27.216,0,0,0,11.67,5.526l1.941,1.667s-9.045-2.821-11.285-2.047c0,0-3.317-13.418-46.971,9.13" transform="translate(-244.045 -673.788)"/><path class="d" d="M539.945,935.1A23.627,23.627,0,0,1,555.6,945.416l-1.216.829s-7.634-8.376-13.809-9.869-.634-1.279-.634-1.279" transform="translate(-397.961 -692.125)"/><path class="b" d="M295.523,580.257s23.34-13.07,12.448-30.809c0,0-8.713-10.892-18.049-13.693,0,0,4.979,26.452,0,27.075s-3.423-29.875-3.423-29.875-24.585-11.826-34.232-10.892c0,0,15.249,25.83,10.27,25.207s-22.1-26.763-22.1-26.763-25.207-4.668-29.253,10.269,2.49,22.406,6.224,23.34,27.7.622,27.074,3.734-16.8,8.091-25.83,5.29c0,0,9.959,24.585,23.029,23.34s17.116-9.336,25.207-9.958,14,1.556,9.958,3.734-17.738.714-24.274,6.27-11.826,8.979.311,11.469,33.921.934,38.278-8.4Z" transform="translate(-155.371 -384.753)"/><path class="d" d="M259.139,579.964s65.352,21.161,72.821,44.813c0,0-.311,10.581,6.224,22.718v4.668s-6.847-15.871-10.581-18.05c0,0,14.626-20.539-68.464-54.149" transform="translate(-191.807 -429.273)"/><path class="d" d="M554.464,831.592s10.078,15.3,4.333,33.934l-2.593-.7s2.517-20.52-2.756-30.84,1.016-2.4,1.016-2.4" transform="translate(-408.087 -613.37)"/><path class="e" d="M530.909,331.562,495.988,512.1a5.951,5.951,0,0,0,5.843,7.082h18.417Z" transform="translate(-367.035 -245.413)"/><path class="c" d="M1496.077,417.8s-15.708-10.02-7.426-21.92c0,0,6.494-7.226,13.1-8.8,0,0-4.518,18.195-1.08,18.827s3.573-20.638,3.573-20.638,17.568-7.242,24.239-6.208c0,0-11.634,17.352-8.147,17.118s16.432-17.728,16.432-17.728,17.714-2.24,19.932,8.309-2.626,15.481-5.26,15.982-19.284-.673-18.976,1.516,11.363,6.3,17.75,4.71c0,0-7.906,16.7-16.945,15.311s-11.529-7.175-17.131-7.931-9.8.523-7.074,2.2,12.306,1.2,16.629,5.329,7.864,6.716-.674,7.962-23.625-.7-26.281-7.371Z" transform="translate(-1100.073 -279.972)"/><path class="c" d="M1561.084,421.721s-46.288,12.106-52.426,28.254a34.578,34.578,0,0,1-5.235,15.549l-.186,3.246s5.394-10.763,8.078-12.129c0,0-9.351-14.866,49.769-34.92" transform="translate(-1112.654 -312.146)"/><path class="c" d="M1489.212,584.886s-7.619,10.24-4.368,23.424l1.831-.381s-.931-14.369,3.148-21.335-.611-1.708-.611-1.708" transform="translate(-1098.443 -431.508)"/><path class="f" d="M1304.611,157.771s-24.135-5.3-19.26-23.9c0,0,4.784-11.963,12.287-16.941,0,0,2.687,24.717,7.255,23.933s-4.98-27.326-4.98-27.326,18.563-17.041,27.342-18.8c0,0-6.558,26.919-2.323,25.034s12.36-29.579,12.36-29.579,21.032-10.881,28.611,1.239,3.8,20.474.753,22.3-24.317,7.972-22.932,10.556,17.023,2.649,24.25-2.245c0,0-2.215,24.4-14.1,26.8s-17.632-3.666-24.951-2.048-11.962,5.128-7.8,5.97,15.872-4.122,23.137-.962,12.859,4.768,2.8,10.221-29.735,9.915-36.088,2.83Z" transform="translate(-950.9 -63.436)"/><path class="f" d="M1413.692,135.507s-52.1,36.218-52.364,59.127a45.859,45.859,0,0,1,.586,21.75l1.251,4.126s1.8-15.864,4.516-18.79c0,0-18.433-14.237,46.011-66.212" transform="translate(-1007.617 -100.298)"/><path class="f" d="M1360.314,437.184s-4.808,16.229,5.263,31.158l2.105-1.311s-7.723-17.465-5.827-28-1.541-1.847-1.541-1.847" transform="translate(-1006.018 -321.099)"/><path class="g" d="M566.14,326.926l-23.146,177.26a9.819,9.819,0,0,0,9.736,11.09h33.956l-19.145-188.99Z" transform="translate(-401.847 -241.508)"/><path class="h" d="M602.742,328.75,592.381,504.88A11.542,11.542,0,0,0,603.9,517.1h50.642Z" transform="translate(-438.449 -243.331)"/><path class="d" d="M630.821,334.283l5.038,174.692a11.542,11.542,0,0,0,11.522,12.22h50.642Z" transform="translate(-466.916 -247.427)"/><path class="f" d="M879.1,514.9H679.424a10.324,10.324,0,0,1-10.156-8.467l-30.384-166.16a12.284,12.284,0,0,1,12.084-14.494H848.3a10.325,10.325,0,0,1,10.156,8.467l30.806,168.473A10.324,10.324,0,0,1,879.1,514.9" transform="translate(-472.733 -241.134)"/><path class="i" d="M636.931,361.854h220.8l-5.661-31.372a5.717,5.717,0,0,0-5.626-4.7H632.573a1.872,1.872,0,0,0-1.841,2.209Z" transform="translate(-466.827 -241.134)"/><path class="g" d="M647.276,289.448a9.582,9.582,0,0,0-9.573,9.571h1.839a7.735,7.735,0,1,1,10.263,7.309,7.652,7.652,0,0,1-2.089.414v1.839a9.467,9.467,0,0,0,2.446-.434,9.572,9.572,0,0,0-2.887-18.7" transform="translate(-472.01 -214.241)"/><path class="g" d="M674.133,353.379a2.136,2.136,0,0,1-.074.553,2.08,2.08,0,1,1,.074-.553" transform="translate(-495.906 -260.027)"/><path class="g" d="M779.37,289.448a9.582,9.582,0,0,0-9.573,9.571h1.837a7.735,7.735,0,0,1,15.47,0,7.662,7.662,0,0,1-.4,2.448,7.762,7.762,0,0,1-4.807,4.861,7.667,7.667,0,0,1-2.091.414v1.839a9.468,9.468,0,0,0,2.446-.434,9.572,9.572,0,0,0-2.885-18.7" transform="translate(-569.782 -214.241)"/><path class="g" d="M806.218,353.379a2.131,2.131,0,0,1-.074.553,2.085,2.085,0,1,1,.074-.553" transform="translate(-593.671 -260.027)"/><path class="g" d="M911.464,289.448a9.581,9.581,0,0,0-9.573,9.571h1.837a7.735,7.735,0,0,1,15.47,0,7.665,7.665,0,0,1-.4,2.448,7.763,7.763,0,0,1-4.807,4.861,7.668,7.668,0,0,1-2.091.414v1.839a9.486,9.486,0,0,0,2.446-.434,9.572,9.572,0,0,0-2.885-18.7" transform="translate(-667.555 -214.241)"/><path class="g" d="M938.312,353.379a2.131,2.131,0,0,1-.074.553,2.085,2.085,0,1,1,.074-.553" transform="translate(-691.444 -260.027)"/><path class="g" d="M1043.555,289.448a9.58,9.58,0,0,0-9.571,9.571h1.837a7.735,7.735,0,0,1,15.47,0,7.658,7.658,0,0,1-.4,2.448,7.761,7.761,0,0,1-4.809,4.861,7.652,7.652,0,0,1-2.088.414v1.839a9.481,9.481,0,0,0,2.446-.434,9.572,9.572,0,0,0-2.886-18.7" transform="translate(-765.326 -214.241)"/><path class="g" d="M1070.406,353.379a2.136,2.136,0,0,1-.074.553,2.082,2.082,0,1,1,.074-.553" transform="translate(-789.216 -260.027)"/><path class="g" d="M1175.643,289.448a9.582,9.582,0,0,0-9.573,9.571h1.837a7.735,7.735,0,0,1,15.47,0,7.658,7.658,0,0,1-.4,2.448,7.76,7.76,0,0,1-4.809,4.861,7.64,7.64,0,0,1-2.089.414v1.839a9.467,9.467,0,0,0,2.446-.434,9.572,9.572,0,0,0-2.884-18.7" transform="translate(-863.092 -214.241)"/><path class="g" d="M1202.491,353.379a2.126,2.126,0,0,1-.074.553,2.077,2.077,0,1,1,.074-.553" transform="translate(-886.982 -260.027)"/><path class="g" d="M1307.736,289.448a9.582,9.582,0,0,0-9.573,9.571H1300a7.735,7.735,0,0,1,15.47,0,7.665,7.665,0,0,1-.4,2.448,7.76,7.76,0,0,1-4.809,4.861,7.639,7.639,0,0,1-2.089.414v1.839a9.47,9.47,0,0,0,2.446-.434,9.572,9.572,0,0,0-2.885-18.7" transform="translate(-960.864 -214.241)"/><path class="g" d="M1334.585,353.379a2.126,2.126,0,0,1-.074.553,2.079,2.079,0,1,1,.074-.553" transform="translate(-984.754 -260.027)"/><path class="g" d="M1439.828,289.448a9.58,9.58,0,0,0-9.571,9.571h1.837a7.735,7.735,0,0,1,15.47,0,7.658,7.658,0,0,1-.4,2.448,7.761,7.761,0,0,1-4.809,4.861,7.65,7.65,0,0,1-2.089.414v1.839a9.468,9.468,0,0,0,2.446-.434,9.572,9.572,0,0,0-2.887-18.7" transform="translate(-1058.637 -214.241)"/><path class="g" d="M1466.678,353.379a2.126,2.126,0,0,1-.074.553,2.078,2.078,0,1,1,.074-.553" transform="translate(-1082.526 -260.027)"/><path class="h" d="M1100.081,646.277H1088.92a2.992,2.992,0,0,1-2.8-2.346l-2.153-11.162a1.885,1.885,0,0,1,1.894-2.346h11.162a2.992,2.992,0,0,1,2.8,2.346l2.153,11.162a1.885,1.885,0,0,1-1.894,2.346" transform="translate(-802.291 -466.621)"/><path class="h" d="M1208.484,646.277h-11.162a2.992,2.992,0,0,1-2.8-2.346l-2.153-11.162a1.885,1.885,0,0,1,1.894-2.346h11.162a2.992,2.992,0,0,1,2.8,2.346l2.153,11.162a1.885,1.885,0,0,1-1.893,2.346" transform="translate(-882.527 -466.621)"/><path class="g" d="M1316.885,646.277h-11.162a2.991,2.991,0,0,1-2.8-2.346l-2.153-11.162a1.885,1.885,0,0,1,1.894-2.346h11.162a2.992,2.992,0,0,1,2.8,2.346l2.153,11.162a1.885,1.885,0,0,1-1.894,2.346" transform="translate(-962.763 -466.621)"/><path class="h" d="M774.877,646.277H763.716a2.992,2.992,0,0,1-2.8-2.346l-2.153-11.162a1.885,1.885,0,0,1,1.893-2.346h11.162a2.992,2.992,0,0,1,2.8,2.346l2.153,11.162a1.885,1.885,0,0,1-1.893,2.346" transform="translate(-561.584 -466.621)"/><path class="i" d="M754.043,543.061h-4.8a1.286,1.286,0,0,1-1.2-1.008l-.925-4.8a.81.81,0,0,1,.813-1.008h4.8a1.286,1.286,0,0,1,1.2,1.008l.925,4.8a.81.81,0,0,1-.814,1.008" transform="translate(-552.982 -396.916)"/><path class="h" d="M883.279,646.277H872.118a2.992,2.992,0,0,1-2.8-2.346l-2.153-11.162a1.885,1.885,0,0,1,1.893-2.346h11.162a2.992,2.992,0,0,1,2.8,2.346l2.153,11.162a1.885,1.885,0,0,1-1.894,2.346" transform="translate(-641.82 -466.621)"/><path class="h" d="M991.681,646.277H980.519a2.991,2.991,0,0,1-2.8-2.346l-2.153-11.162a1.885,1.885,0,0,1,1.894-2.346h11.162a2.992,2.992,0,0,1,2.8,2.346l2.153,11.162a1.885,1.885,0,0,1-1.893,2.346" transform="translate(-722.055 -466.621)"/><path class="g" d="M1425.287,646.277h-11.162a2.991,2.991,0,0,1-2.8-2.346l-2.153-11.162a1.885,1.885,0,0,1,1.893-2.346h11.162a2.992,2.992,0,0,1,2.8,2.346l2.153,11.162a1.885,1.885,0,0,1-1.893,2.346" transform="translate(-1042.999 -466.621)"/><path class="h" d="M1082.084,552.975h-11.162a2.992,2.992,0,0,1-2.8-2.346l-2.153-11.162a1.886,1.886,0,0,1,1.894-2.346h11.162a2.992,2.992,0,0,1,2.8,2.346l2.153,11.162a1.885,1.885,0,0,1-1.894,2.346" transform="translate(-788.969 -397.562)"/><path class="h" d="M1190.487,552.975h-11.162a2.992,2.992,0,0,1-2.8-2.346l-2.153-11.162a1.886,1.886,0,0,1,1.894-2.346h11.162a2.992,2.992,0,0,1,2.8,2.346l2.153,11.162a1.885,1.885,0,0,1-1.893,2.346" transform="translate(-869.206 -397.562)"/><path class="g" d="M1298.887,552.975h-11.161a2.992,2.992,0,0,1-2.8-2.346l-2.153-11.162a1.886,1.886,0,0,1,1.894-2.346h11.162a2.993,2.993,0,0,1,2.8,2.346l2.153,11.162a1.885,1.885,0,0,1-1.894,2.346" transform="translate(-949.441 -397.562)"/><path class="g" d="M1407.289,552.975h-11.162a2.991,2.991,0,0,1-2.8-2.346l-2.153-11.162a1.885,1.885,0,0,1,1.894-2.346h11.162a2.993,2.993,0,0,1,2.8,2.346l2.153,11.162a1.885,1.885,0,0,1-1.893,2.346" transform="translate(-1029.677 -397.562)"/><path class="h" d="M1119.158,745.167H1108a2.991,2.991,0,0,1-2.8-2.346l-2.154-11.162a1.886,1.886,0,0,1,1.894-2.346H1116.1a2.992,2.992,0,0,1,2.8,2.346l2.153,11.162a1.885,1.885,0,0,1-1.893,2.346" transform="translate(-816.41 -539.817)"/><path class="h" d="M1227.559,745.167H1216.4a2.992,2.992,0,0,1-2.8-2.346l-2.153-11.162a1.885,1.885,0,0,1,1.894-2.346H1224.5a2.993,2.993,0,0,1,2.8,2.346l2.153,11.162a1.885,1.885,0,0,1-1.894,2.346" transform="translate(-896.647 -539.817)"/><path class="g" d="M1335.961,745.167H1324.8a2.992,2.992,0,0,1-2.8-2.346l-2.154-11.162a1.885,1.885,0,0,1,1.894-2.346H1332.9a2.992,2.992,0,0,1,2.8,2.346l2.153,11.162a1.885,1.885,0,0,1-1.893,2.346" transform="translate(-976.882 -539.817)"/><path class="h" d="M793.953,745.167H782.791a2.992,2.992,0,0,1-2.8-2.346l-2.153-11.162a1.885,1.885,0,0,1,1.894-2.346h11.162a2.993,2.993,0,0,1,2.8,2.346l2.153,11.162a1.885,1.885,0,0,1-1.893,2.346" transform="translate(-575.703 -539.817)"/><path class="h" d="M902.355,745.167H891.193a2.992,2.992,0,0,1-2.8-2.346l-2.153-11.162a1.886,1.886,0,0,1,1.894-2.346H899.3a2.993,2.993,0,0,1,2.8,2.346l2.153,11.162a1.885,1.885,0,0,1-1.893,2.346" transform="translate(-655.939 -539.817)"/><path class="h" d="M1010.756,745.167H999.595a2.992,2.992,0,0,1-2.8-2.346l-2.153-11.162a1.885,1.885,0,0,1,1.893-2.346H1007.7a2.993,2.993,0,0,1,2.8,2.346l2.153,11.162a1.885,1.885,0,0,1-1.894,2.346" transform="translate(-736.175 -539.817)"/><path class="g" d="M1444.363,745.167H1433.2a2.992,2.992,0,0,1-2.8-2.346l-2.153-11.162a1.886,1.886,0,0,1,1.894-2.346H1441.3a2.992,2.992,0,0,1,2.8,2.346l2.153,11.162a1.885,1.885,0,0,1-1.893,2.346" transform="translate(-1057.118 -539.817)"/><path class="h" d="M1138.233,844.058h-11.161a2.992,2.992,0,0,1-2.8-2.346l-2.153-11.162a1.886,1.886,0,0,1,1.894-2.346h11.162a2.992,2.992,0,0,1,2.8,2.346l2.153,11.162a1.885,1.885,0,0,1-1.894,2.346" transform="translate(-830.53 -613.013)"/><path class="h" d="M1246.635,844.058h-11.162a2.992,2.992,0,0,1-2.8-2.346l-2.153-11.162a1.885,1.885,0,0,1,1.893-2.346h11.162a2.993,2.993,0,0,1,2.8,2.346l2.153,11.162a1.885,1.885,0,0,1-1.893,2.346" transform="translate(-910.766 -613.013)"/><path class="g" d="M1355.036,844.058h-11.162a2.992,2.992,0,0,1-2.8-2.346l-2.153-11.162a1.886,1.886,0,0,1,1.894-2.346h11.161a2.993,2.993,0,0,1,2.8,2.346l2.153,11.162a1.885,1.885,0,0,1-1.893,2.346" transform="translate(-991.001 -613.013)"/><path class="h" d="M813.029,844.058H801.867a2.992,2.992,0,0,1-2.8-2.346l-2.153-11.162a1.886,1.886,0,0,1,1.894-2.346h11.162a2.993,2.993,0,0,1,2.8,2.346l2.153,11.162a1.885,1.885,0,0,1-1.893,2.346" transform="translate(-589.822 -613.013)"/><path class="i" d="M921.43,844.058H910.269a2.992,2.992,0,0,1-2.8-2.346l-2.153-11.162a1.885,1.885,0,0,1,1.893-2.346h11.162a2.993,2.993,0,0,1,2.8,2.346l2.153,11.162a1.885,1.885,0,0,1-1.894,2.346" transform="translate(-670.058 -613.013)"/><path class="h" d="M1029.831,844.058H1018.67a2.992,2.992,0,0,1-2.8-2.346l-2.153-11.162a1.886,1.886,0,0,1,1.894-2.346h11.162a2.993,2.993,0,0,1,2.8,2.346l2.153,11.162a1.885,1.885,0,0,1-1.894,2.346" transform="translate(-750.294 -613.013)"/><path class="g" d="M1463.439,844.058h-11.162a2.992,2.992,0,0,1-2.8-2.346l-2.153-11.162a1.885,1.885,0,0,1,1.893-2.346h11.162a2.993,2.993,0,0,1,2.8,2.346l2.153,11.162a1.885,1.885,0,0,1-1.894,2.346" transform="translate(-1071.238 -613.013)"/><path class="h" d="M1156.231,937.36H1145.07a2.992,2.992,0,0,1-2.8-2.346l-2.153-11.162a1.886,1.886,0,0,1,1.894-2.346h11.162a2.992,2.992,0,0,1,2.8,2.346l2.153,11.162a1.885,1.885,0,0,1-1.894,2.346" transform="translate(-843.851 -682.073)"/><path class="h" d="M1264.633,937.36h-11.162a2.991,2.991,0,0,1-2.8-2.346l-2.154-11.162a1.885,1.885,0,0,1,1.894-2.346h11.162a2.993,2.993,0,0,1,2.8,2.346l2.153,11.162a1.885,1.885,0,0,1-1.893,2.346" transform="translate(-924.087 -682.073)"/><path class="g" d="M1373.035,937.36h-11.162a2.992,2.992,0,0,1-2.8-2.346l-2.154-11.162a1.886,1.886,0,0,1,1.894-2.346h11.161a2.993,2.993,0,0,1,2.8,2.346l2.153,11.162a1.886,1.886,0,0,1-1.894,2.346" transform="translate(-1004.323 -682.073)"/><path class="h" d="M831.027,937.36H819.865a2.992,2.992,0,0,1-2.8-2.346l-2.153-11.162a1.886,1.886,0,0,1,1.894-2.346h11.162a2.992,2.992,0,0,1,2.8,2.346l2.153,11.162a1.885,1.885,0,0,1-1.893,2.346" transform="translate(-603.144 -682.073)"/><path class="h" d="M939.428,937.36H928.266a2.992,2.992,0,0,1-2.8-2.346l-2.153-11.162a1.885,1.885,0,0,1,1.893-2.346H936.37a2.992,2.992,0,0,1,2.8,2.346l2.153,11.162a1.885,1.885,0,0,1-1.893,2.346" transform="translate(-683.38 -682.073)"/><path class="h" d="M1047.829,937.36h-11.162a2.992,2.992,0,0,1-2.8-2.346l-2.154-11.162a1.886,1.886,0,0,1,1.894-2.346h11.162a2.992,2.992,0,0,1,2.8,2.346l2.153,11.162a1.885,1.885,0,0,1-1.894,2.346" transform="translate(-763.615 -682.073)"/><path class="h" d="M817.53,541H787.959a.792.792,0,0,1,0-1.585H817.53a.792.792,0,0,1,0,1.585" transform="translate(-582.639 -399.262)"/><path class="h" d="M820.991,554.786H791.42a.792.792,0,0,1,0-1.585h29.571a.792.792,0,1,1,0,1.585" transform="translate(-585.201 -409.464)"/><path class="f" d="M748.753,434.27H738.605a1.511,1.511,0,0,1,0-3.023h10.147a1.511,1.511,0,0,1,0,3.023" transform="translate(-545.576 -319.197)"/><path class="f" d="M855.916,434.27H845.768a1.511,1.511,0,0,1,0-3.023h10.147a1.511,1.511,0,0,1,0,3.023" transform="translate(-624.895 -319.197)"/><path class="f" d="M963.078,434.27H952.93a1.511,1.511,0,0,1,0-3.023h10.148a1.511,1.511,0,0,1,0,3.023" transform="translate(-704.214 -319.197)"/><path class="f" d="M1070.241,434.27h-10.147a1.511,1.511,0,1,1,0-3.023h10.147a1.511,1.511,0,0,1,0,3.023" transform="translate(-783.533 -319.197)"/><path class="f" d="M1177.4,434.27h-10.147a1.511,1.511,0,0,1,0-3.023H1177.4a1.511,1.511,0,0,1,0,3.023" transform="translate(-862.852 -319.197)"/><path class="f" d="M1284.566,434.27h-10.147a1.511,1.511,0,1,1,0-3.023h10.147a1.511,1.511,0,0,1,0,3.023" transform="translate(-942.17 -319.197)"/><path class="f" d="M1391.729,434.27h-10.147a1.511,1.511,0,0,1,0-3.023h10.147a1.511,1.511,0,0,1,0,3.023" transform="translate(-1021.49 -319.197)"/><path class="j" d="M1162.315,542.754c-2.241,0-3.873-.711-4.762-2.092-1.705-2.647-.389-6.357,3.912-11.028a54.526,54.526,0,0,1,6.847-6.141.324.324,0,1,1,.383.522c-.143.105-14.283,10.575-10.6,16.3,1.167,1.812,3.667,1.932,5.561,1.713,3.5-.4,8.071-2.292,12.219-5.047,4.294-2.852,7.318-6.065,8.3-8.818.643-1.805.444-3.084-.592-3.8-1.337-.926-4.132-.926-7.475,0a23.591,23.591,0,0,0-8.41,4.159.324.324,0,0,1-.418-.495,24.274,24.274,0,0,1,8.656-4.289c3.578-.99,6.5-.955,8.016.094.9.621,1.772,1.915.833,4.551-1.026,2.881-4.142,6.213-8.549,9.14-4.229,2.809-8.9,4.734-12.5,5.151a12.337,12.337,0,0,1-1.418.086" transform="translate(-856.254 -387.121)"/><path class="k" d="M1379.506,503.455l-1.152-2.173s.572-3.873-4.281-6.322a2.368,2.368,0,0,0-2.775.724c-.922,1.332,1.758,1.091,1.614,3.371a4.191,4.191,0,0,0,2.444,4.359l1.244,1.442Z" transform="translate(-1014.854 -366.221)"/><path class="l" d="M1436.016,506.037s-4.167,20.453-27.1,27.135c-7.158,2.086-23.421-21.481-23.421-21.481s.572-2.173,4.154-1.674c0,0,15.834,10.483,17.828,11.622,1.769,1.01,13.4-12.989,18.7-15.247a13.535,13.535,0,0,1,9.833-.355" transform="translate(-1025.506 -373.999)"/><path class="l" d="M1655.936,999.5s2.844,2.6,2.29,4.441-3.122,3.075-3.469,5.329-1.735,3.484-2.983,3.484h-5.954s-.92-1.587,1.3-2.065,3.058-3.128,2.919-5.587a43.311,43.311,0,0,1,.208-5.739l4.718-1.093Z" transform="translate(-1218.05 -738.892)"/><path class="l" d="M1503.34,1022.333s.511,5.908-.739,6.523l-15.983-.033s0-1.844,2.567-2.254,7.077-1.913,7.84-5.261,6.314,1.025,6.314,1.025" transform="translate(-1100.353 -755.01)"/><path class="i" d="M1499.038,703.547s.843,10.357,1.834,22.806c1.346,16.911,2.966,37.684,3.126,41.619.277,6.833,1.388,17.764,1.388,17.764s2.635,2.6,7.91,1.5a176.389,176.389,0,0,0,6.043-32.113c.021-.27.042-.543.063-.816,1.249-16.807,3.191-52.2,3.191-52.2Z" transform="translate(-1109.546 -519.683)"/><path class="e" d="M1499.038,703.547s.843,10.357,1.834,22.806l18.467,28.772c.021-.27.042-.543.063-.816,1.249-16.807,3.191-52.2,3.191-52.2Z" transform="translate(-1109.546 -519.683)"/><path class="i" d="M1513.855,693.1s15.195,37.508,25.187,55.134,13.113,22.546,13.113,22.546,5.725-2.255,6.245-3.792c0,0-3.821-34.029-10.511-42.324-3.781-4.687-8.222-18.754-8.43-23.673s-1.353-14.654-1.353-14.654Z" transform="translate(-1120.513 -508.007)"/><path class="k" d="M1544.628,454.415s-10.281,4.961-16.209,3.12a13.985,13.985,0,0,1,4.012-3.21c-.2-1.19-.365-2.222-.456-3.1a28.587,28.587,0,0,1-.251-3.165l3.966-3.12,3.762-2.985a15.157,15.157,0,0,0,5.175,12.458" transform="translate(-1131.293 -327.124)"/><path class="m" d="M1495.954,540.689a.925.925,0,0,0,.617.246c2.233-.045,8.73,1.189,14.223.628a42.021,42.021,0,0,0,13.154-3.724c.593-.27,1.939-.988,1.915-1.616-.024-.719-.091-1.728-.182-3.032-.184-2.565-.443-6.206-.526-10.523-.062-3.2-.027-6.772.206-10.554.013-.254.026-.511.037-.767.067-1.387.1-2.784.1-4.149a71.986,71.986,0,0,0-.932-12.345c-1.119-6.51-3.217-11.6-6.315-13.873-.412-.315-2.966.919-5.335,2.065a9.858,9.858,0,0,1-6.382.764l-2.052,1.8a20.264,20.264,0,0,0-6.43,10.1c-1,4-1.594,11.223-1.915,18.721-.157,3.411-.272,6.823-.318,10.077v.112c-.024.336-.024.675-.024,1.012-.112,8.327,0,14.949.16,15.062" transform="translate(-1107.111 -355.97)"/><path class="n" d="M1548.937,453.673s-2.6,4.736-7.545,6.06a28.585,28.585,0,0,1-.251-3.165l3.967-3.12Z" transform="translate(-1140.709 -335.629)"/><path class="k" d="M1528.729,419.415s9.808,1.6,10.729-4.425,2.806-9.883-3.417-11.162-7.794.841-8.6,2.78-1.241,12.235,1.286,12.808" transform="translate(-1130.106 -298.613)"/><path class="o" d="M1533.992,392.67c.089-.1.294-.184.751-.209a1.852,1.852,0,0,0-.854-.24,2.3,2.3,0,0,0-1.527-2.034,1.371,1.371,0,0,1,.665.989c-1.267-1.3-3.981-2.248-11.5-1.655-9.906.782-6.641,7.125-5.359,7.881s4.51-1.317,6.9-1.127,2.844,3.643,3.654,4.116.492-.364,1.589-.86,1.2,1.321.884,2.5,1.19,2.74,1.19,2.74l1.522-1.64c1.523-1.64,2.958-8.587,2.266-10.068l-.184-.4" transform="translate(-1121.075 -288.178)"/><path class="k" d="M1390.3,508.126s.337-1.333-.588-1.932-1.775-2.229-2.165-2.008c-.807.457.442,1.879.213,3.653-.08.621,1.366,2.248,2.539.287" transform="translate(-1026.82 -373.169)"/><path class="l" d="M1591.816,584.1c-.061-3.2-.027-6.772.206-10.555.013-.254.027-.51.037-.767-.932-4.619-2.343-8.717-4.418-8.851,0,0-6.185,9.719,4.175,20.172" transform="translate(-1173.772 -417.404)"/><path class="k" d="M1622.425,703.139s-.515,5.012-1.081,5.96a21.352,21.352,0,0,1-4,4.571c-1.026.594.626-3.992.417-4.884s-.844,1.629-1.3,1.688-.336-2.209-.352-3.035,2.2-2.864,2.981-4.622,3.33.322,3.33.322" transform="translate(-1196.2 -519.683)"/><path class="m" d="M1568.95,480.93s6.206,2.939,9.181,7.456c4.615,7.008,9.965,32.546,10.064,34.912s-3.9,19.061-3.9,19.061-4.06-.268-5.107-2.317c0,0,.811-17.155.3-18.258s-16.927-23.012-15.082-27.687,4.553-13.167,4.553-13.167" transform="translate(-1157.817 -355.971)"/><path class="d" d="M1778.708,997.1h-17.884c-.958-.813.663-2.659,2.357-2.783a10.454,10.454,0,0,1,2.729.323c.246-3.269,1.652-17.963,6.948-17.372,5.956.661,0,6.471-1.684,9.911a81.826,81.826,0,0,0-3.164,7.926c.483.1.984.208,1.5.3.789-2.424,3.727-10.577,7.461-10.1,4.385.556,2.623,3.825-.486,5.765-2.28,1.427-5.08,3.455-6.411,4.434a18.972,18.972,0,0,0,3.5.28c3.063-.073,4.559.83,5.138,1.316" transform="translate(-1303.102 -723.336)"/><path class="d" d="M232.513,1000.485c-.948-1.489-3.8-5.353-7.6-4.841-4.139.557,4.572,3.286,7.239,4.853a4.418,4.418,0,0,1-1.476-.172c-1.783-.635-4.836.583-5.813,1.011h16.974a2.689,2.689,0,0,0-1.214-1.552,3.031,3.031,0,0,0-1.562-.139c1.009-1.19,1.71-4.99-1.1-4.013-2.053.715-2.047,3.037-1.846,4.411-.437.069-.879.137-1.317.2-.845-4.307-3.834-16.929-9.892-17.266-6.142-.341,5.208,13.091,8.987,17.386-.484.058-.95.1-1.382.122" transform="translate(-165.147 -727.567)"/><path class="d" d="M531.8,1054.374H.706a.708.708,0,0,1-.706-.706H0a.708.708,0,0,1,.706-.706H531.8a.706.706,0,0,1,0,1.412" transform="translate(0 -779.372)"/></g></g></svg>