<svg xmlns="http://www.w3.org/2000/svg" width="20.073" height="20.073" viewBox="0 0 20.073 20.073"><defs><style>.a{fill:#003844;stroke:#003844;stroke-width:0.1px;}</style></defs><g transform="translate(-153.95 -153.95)"><path class="a" d="M172.775,154H155.2a1.2,1.2,0,0,0-1.2,1.2v17.576a1.2,1.2,0,0,0,1.2,1.2h17.576a1.2,1.2,0,0,0,1.2-1.2V155.2A1.2,1.2,0,0,0,172.775,154Zm-17.576.8h17.576a.4.4,0,0,1,.4.4v2.027L154.8,157.2v-2A.4.4,0,0,1,155.2,154.8Zm17.576,18.375H155.2a.4.4,0,0,1-.4-.4v-14.78l18.375.029v14.751A.4.4,0,0,1,172.775,173.174Z" transform="translate(0 0)"/><path class="a" d="M163.039,163.439h.8a.4.4,0,1,0,0-.8h-.8a.4.4,0,0,0,0,.8Z" transform="translate(-7.042 -7.042)"/><path class="a" d="M178.159,163.439h.8a.4.4,0,1,0,0-.8h-.8a.4.4,0,1,0,0,.8Z" transform="translate(-19.366 -7.042)"/><path class="a" d="M193.279,163.439h.8a.4.4,0,1,0,0-.8h-.8a.4.4,0,1,0,0,.8Z" transform="translate(-31.69 -7.042)"/><path class="a" d="M178.213,197.9a.365.365,0,0,0-.292-.146H171.2a3.463,3.463,0,1,0,0,3.646h1.1l1.043.672a.365.365,0,0,0,.4,0l1-.669h.109l1.043.672a.365.365,0,0,0,.4,0l1-.669h.62a.365.365,0,0,0,.292-.146l1.094-1.458a.365.365,0,0,0,0-.438Zm-.474,2.771h-.547a.369.369,0,0,0-.2.061l-.895.6-.932-.6a.37.37,0,0,0-.2-.058h-.325a.364.364,0,0,0-.2.061l-.9.6-.932-.6a.369.369,0,0,0-.2-.058h-1.419a.365.365,0,0,0-.322.192,2.734,2.734,0,1,1,0-2.573.364.364,0,0,0,.322.193h6.745l.82,1.094Z" transform="translate(-8.102 -33.997)"/><path class="a" d="M177.124,206.11a1.055,1.055,0,0,0-.781-.28,1.823,1.823,0,1,0,0,3.646,1.055,1.055,0,0,0,.781-.28c.322-.324.313-1.543.313-1.543s.009-1.219-.313-1.543Zm-.517,2.573a.412.412,0,0,1-.263.064,1.094,1.094,0,0,1,0-2.187.412.412,0,0,1,.263.064,3.627,3.627,0,0,1,.1,1.03A3.683,3.683,0,0,1,176.606,208.683Z" transform="translate(-16.184 -42.069)"/><path class="a" d="M205.922,214.48h-6.2a.365.365,0,0,0,0,.729h6.2a.365.365,0,0,0,0-.729Z" transform="translate(-36.832 -49.26)"/></g></svg>