<svg xmlns="http://www.w3.org/2000/svg" width="20.175" height="20.175" viewBox="0 0 20.175 20.175"><defs><style>.a,.b{fill:#003844;}.a{stroke:#003844;stroke-width:0.2px;}</style></defs><g transform="translate(-172.538 -392.725)"><g transform="translate(172.638 392.825)"><path class="a" d="M172.777,154H155.2a1.2,1.2,0,0,0-1.2,1.2v17.578a1.2,1.2,0,0,0,1.2,1.2h17.578a1.2,1.2,0,0,0,1.2-1.2V155.2A1.2,1.2,0,0,0,172.777,154Zm-17.578.8h17.578a.4.4,0,0,1,.4.4v2.027L154.8,157.2v-2A.4.4,0,0,1,155.2,154.8Zm17.578,18.377H155.2a.4.4,0,0,1-.4-.4V158l18.377.029v14.752A.4.4,0,0,1,172.777,173.176Z" transform="translate(-154 -154)"/><path class="a" d="M163.039,163.439h.8a.4.4,0,1,0,0-.8h-.8a.4.4,0,0,0,0,.8Z" transform="translate(-161.042 -161.042)"/><path class="a" d="M178.16,163.439h.8a.4.4,0,1,0,0-.8h-.8a.4.4,0,1,0,0,.8Z" transform="translate(-173.365 -161.042)"/><path class="a" d="M193.28,163.439h.8a.4.4,0,0,0,0-.8h-.8a.4.4,0,1,0,0,.8Z" transform="translate(-185.689 -161.042)"/></g><g transform="translate(175.263 401.674)"><path class="b" d="M3.91,235.506H.434a.434.434,0,1,1,0-.869H3.91a.434.434,0,1,1,0,.869Z" transform="translate(0 -233.147)"/><path class="b" d="M21.768,201.918a.435.435,0,0,1-.376-.652l1.738-3.011a.434.434,0,0,1,.752.434L22.144,201.7A.434.434,0,0,1,21.768,201.918Z" transform="translate(-20.465 -198.054)"/><path class="b" d="M23.709,201.919a.434.434,0,0,1-.376-.217L21.6,198.69a.434.434,0,0,1,.752-.434l1.738,3.011a.434.434,0,0,1-.376.652Z" transform="translate(-20.668 -198.055)"/><path class="b" d="M131.91,235.505h-3.476a.435.435,0,0,1,0-.869h3.476a.435.435,0,0,1,0,.869Z" transform="translate(-122.786 -233.146)"/><path class="b" d="M149.768,201.918a.435.435,0,0,1-.376-.652l1.738-3.011a.434.434,0,0,1,.752.434l-1.738,3.011A.434.434,0,0,1,149.768,201.918Z" transform="translate(-143.251 -198.054)"/><path class="b" d="M151.709,201.919a.434.434,0,0,1-.376-.217L149.6,198.69a.434.434,0,0,1,.752-.434l1.738,3.011a.434.434,0,0,1-.376.652Z" transform="translate(-143.454 -198.055)"/><path class="b" d="M259.91,235.505h-3.476a.435.435,0,1,1,0-.869h3.476a.435.435,0,0,1,0,.869Z" transform="translate(-245.572 -233.146)"/><path class="b" d="M277.768,201.918a.435.435,0,0,1-.376-.652l1.738-3.011a.434.434,0,0,1,.752.434l-1.738,3.011A.435.435,0,0,1,277.768,201.918Z" transform="translate(-266.038 -198.054)"/><path class="b" d="M279.709,201.919a.434.434,0,0,1-.376-.217L277.6,198.69a.434.434,0,0,1,.752-.434l1.738,3.011a.434.434,0,0,1-.376.652Z" transform="translate(-266.24 -198.055)"/></g></g></svg>