<svg xmlns="http://www.w3.org/2000/svg" xmlns:xlink="http://www.w3.org/1999/xlink" width="210" height="278" viewBox="0 0 210 278"><defs><style>.a{fill:none;}.b{clip-path:url(#a);}.c{opacity:0.1;}.d{fill:#003844;}</style><clipPath id="a"><rect class="a" width="210" height="278" rx="6" transform="translate(1569 203)"/></clipPath></defs><g class="b" transform="translate(-1569 -203)"><g class="c" transform="translate(1574.179 208.179)"><path class="d" d="M143.212,125.61a13.971,13.971,0,0,0-10.491-3.82,14.083,14.083,0,0,0-10.915,21.846v10.258a11.737,11.737,0,0,0,23.474,0V143.636a13.97,13.97,0,0,0,2.347-7.785A14.143,14.143,0,0,0,143.212,125.61Zm-4.619,13.939a5.88,5.88,0,0,0-1.138,3.512v10.832a3.912,3.912,0,0,1-7.825,0V143.061a5.886,5.886,0,0,0-1.138-3.512,6.2,6.2,0,0,1-1.185-4.271,6.268,6.268,0,0,1,5.86-5.676q.188-.011.374-.011a6.259,6.259,0,0,1,5.051,9.958Zm69.807,5.29h31.3a3.912,3.912,0,1,0,0-7.825H208.4a3.912,3.912,0,0,0,0,7.825Zm-42.933,83.123a3.912,3.912,0,1,0,0-7.825H150.508a3.912,3.912,0,1,0,0,7.825Zm-106.78,15.65h106.78a3.912,3.912,0,1,0,0-7.825H58.686a3.912,3.912,0,1,0,0,7.825Zm0-15.65H73.643a3.912,3.912,0,0,0,0-7.825H58.686a3.912,3.912,0,1,0,0,7.825Zm45.566,0a3.912,3.912,0,0,0,0-7.825H89.293a3.912,3.912,0,1,0,0,7.825ZM208.4,160.488h31.3a3.912,3.912,0,1,0,0-7.825H208.4a3.912,3.912,0,0,0,0,7.825Zm39.124-46.951H235.786V19.562A19.584,19.584,0,0,0,216.224,0H19.562A19.584,19.584,0,0,0,0,19.562V133.986a19.584,19.584,0,0,0,19.562,19.562H31.3v27.8a3.912,3.912,0,0,0,7.825,0V133.1a11.75,11.75,0,0,1,11.737-11.737H78.248V166.39a19.584,19.584,0,0,0,19.562,19.562h71.466a19.584,19.584,0,0,0,19.562-19.562V121.362h58.686A11.75,11.75,0,0,1,259.26,133.1V247.523a11.75,11.75,0,0,1-11.737,11.737H50.861a11.75,11.75,0,0,1-11.737-11.737V199.609a3.912,3.912,0,0,0-7.825,0v47.914a19.584,19.584,0,0,0,19.562,19.562H247.523a19.584,19.584,0,0,0,19.562-19.562V133.1A19.584,19.584,0,0,0,247.523,113.537Zm-167.784,0H50.861A19.584,19.584,0,0,0,31.3,133.1v12.624H19.562A11.75,11.75,0,0,1,7.825,133.986V53.657H98.408A45.059,45.059,0,0,0,88.268,82.176v21.763A19.683,19.683,0,0,0,79.739,113.537ZM154.488,61.23a29.622,29.622,0,0,0-50.57,20.946v19.269H97.809c-.578,0-1.15.03-1.716.08V82.176a37.449,37.449,0,1,1,74.9,0v19.349c-.566-.05-1.138-.08-1.716-.08h-6.109V82.176a29.427,29.427,0,0,0-8.679-20.946Zm.854,20.946v19.269h-43.6V82.176a21.8,21.8,0,0,1,43.6,0Zm25.67,84.215a11.75,11.75,0,0,1-11.737,11.737H97.809A11.75,11.75,0,0,1,86.072,166.39V121.007A11.75,11.75,0,0,1,97.809,109.27h71.466a11.75,11.75,0,0,1,11.737,11.737Zm46.949-52.853H187.346a19.685,19.685,0,0,0-8.53-9.6V82.176a45.058,45.058,0,0,0-10.139-28.519h59.284Zm0-92.286H139.818a3.912,3.912,0,1,0,0,7.825h88.143V45.832H160.51a45.182,45.182,0,0,0-53.935,0H7.825V29.076H121.561a3.912,3.912,0,0,0,0-7.825H7.825v-1.69A11.75,11.75,0,0,1,19.562,7.825H216.224a11.75,11.75,0,0,1,11.737,11.737Zm-93.1,206.71a3.912,3.912,0,1,0,0-7.825H119.9a3.912,3.912,0,0,0,0,7.825Z"/></g></g></svg>