<svg xmlns="http://www.w3.org/2000/svg" xmlns:xlink="http://www.w3.org/1999/xlink" width="228" height="293" viewBox="0 0 228 293"><defs><style>.a{fill:none;}.b{clip-path:url(#a);}.c{opacity:0.1;}.d{fill:#fff;fill-rule:evenodd;}.e{fill:#003844;}</style><clipPath id="a"><rect class="a" width="228" height="293" transform="translate(1551 204)"/></clipPath></defs><g class="b" transform="translate(-1551 -204)"><g class="c" transform="translate(1557.301 208.292)"><g transform="translate(5.538 63.864)"><path class="d" d="M56.452,239.674a89.787,89.787,0,1,1,166.4,46.844h47.393a12.274,12.274,0,0,0,12.229-12.229V115.312H10V274.289a12.264,12.264,0,0,0,12.229,12.229H69.622a89.3,89.3,0,0,1-13.17-46.844Z" transform="translate(-10 -115.312)"/></g><g transform="translate(0 0.007)"><path class="e" d="M383.262,63.722a5.538,5.538,0,1,0,0-11.076h-.032a5.538,5.538,0,1,0,.032,11.076Z" transform="translate(-168.529 -23.494)"/><path class="e" d="M437.233,63.722a5.538,5.538,0,0,0,0-11.076H437.2a5.538,5.538,0,1,0,.032,11.076Z" transform="translate(-192.61 -23.494)"/><path class="e" d="M329.292,63.722a5.538,5.538,0,0,0,0-11.076h-.032a5.538,5.538,0,1,0,.032,11.076Z" transform="translate(-144.448 -23.494)"/><path class="e" d="M65.8,63.722h83.217a5.538,5.538,0,0,0,0-11.076H65.8a5.538,5.538,0,0,0,0,11.076Z" transform="translate(-26.889 -23.494)"/><path class="e" d="M265.785.007H17.767A17.787,17.787,0,0,0,0,17.774V222.841a17.787,17.787,0,0,0,17.767,17.767H62.091a96.277,96.277,0,0,0,12.277,15.018A95.371,95.371,0,0,0,221.43,240.608h44.355a17.787,17.787,0,0,0,17.767-17.767V17.774A17.787,17.787,0,0,0,265.785.007ZM17.767,11.083H265.785a6.7,6.7,0,0,1,6.691,6.691V58.326H11.076V17.774a6.7,6.7,0,0,1,6.691-6.691ZM265.785,229.532h-38.1a95.481,95.481,0,0,0-18.5-108.706,94.465,94.465,0,0,0-54.708-27.075,96.044,96.044,0,0,0-58.825,11.028,5.538,5.538,0,0,0,5.36,9.693A84.261,84.261,0,0,1,201.352,247.794a84.244,84.244,0,0,1-119.152,0A84.617,84.617,0,0,1,68.013,147.47a5.538,5.538,0,1,0-9.692-5.361,96.022,96.022,0,0,0-11.028,58.818,94.911,94.911,0,0,0,8.519,28.6H17.767a6.7,6.7,0,0,1-6.691-6.691V69.4h261.4V222.841a6.7,6.7,0,0,1-6.691,6.691Z" transform="translate(0 -0.007)"/><path class="e" d="M251.524,377.916a5.538,5.538,0,0,0,5.538-5.538V359.16a5.538,5.538,0,1,0-11.076,0v13.218A5.538,5.538,0,0,0,251.524,377.916Z" transform="translate(-109.756 -157.786)"/><path class="e" d="M217.755,351.977a47.506,47.506,0,0,0,47.452-47.453V283.347A14.728,14.728,0,0,0,253.262,268.9V254.384a29.685,29.685,0,0,0-29.651-29.651H211.9a29.684,29.684,0,0,0-29.651,29.651v14.523a14.732,14.732,0,0,0-11.946,14.44v21.177A47.506,47.506,0,0,0,217.755,351.977Zm-24.43-97.593A18.6,18.6,0,0,1,211.9,235.809h11.711a18.6,18.6,0,0,1,18.575,18.574v14.257h-48.86Zm-11.947,28.963a3.686,3.686,0,0,1,3.646-3.63H250.5a3.678,3.678,0,0,1,3.63,3.63v21.177a36.376,36.376,0,1,1-72.753,0Z" transform="translate(-75.987 -100.277)"/><path class="e" d="M132.977,216.856a5.538,5.538,0,1,0,7.832,7.833l.016-.015a5.538,5.538,0,0,0-7.848-7.817Z" transform="translate(-58.609 -96.037)"/></g></g></g></svg>