<svg xmlns="http://www.w3.org/2000/svg" width="16.045" height="19.755" viewBox="0 0 16.045 19.755"><defs><style>.a{fill:#666;}</style></defs><g transform="translate(0.003 0.001)"><path class="a" d="M222.861,154.7a.463.463,0,0,0-.463.463v8.744a.463.463,0,1,0,.925,0v-8.744A.463.463,0,0,0,222.861,154.7Zm0,0" transform="translate(-212.112 -147.547)"/><path class="a" d="M104.861,154.7a.463.463,0,0,0-.463.463v8.744a.463.463,0,1,0,.925,0v-8.744A.463.463,0,0,0,104.861,154.7Zm0,0" transform="translate(-99.571 -147.547)"/><path class="a" d="M1.311,5.88v11.4a2.553,2.553,0,0,0,.679,1.76,2.278,2.278,0,0,0,1.653.715H12.4a2.278,2.278,0,0,0,1.653-.715,2.553,2.553,0,0,0,.679-1.76V5.88A1.767,1.767,0,0,0,14.274,2.4H11.905V1.826A1.817,1.817,0,0,0,10.073,0H5.965A1.817,1.817,0,0,0,4.133,1.826V2.4H1.764A1.767,1.767,0,0,0,1.311,5.88ZM12.4,18.829H3.642a1.465,1.465,0,0,1-1.406-1.55V5.921H13.8V17.279a1.465,1.465,0,0,1-1.406,1.55Zm-7.338-17a.891.891,0,0,1,.907-.9h4.108a.891.891,0,0,1,.907.9V2.4H5.058ZM1.764,3.33h12.51a.833.833,0,1,1,0,1.666H1.764a.833.833,0,1,1,0-1.666Zm0,0" transform="translate(0 0)"/><path class="a" d="M163.861,154.7a.463.463,0,0,0-.463.463v8.744a.463.463,0,1,0,.925,0v-8.744A.463.463,0,0,0,163.861,154.7Zm0,0" transform="translate(-155.841 -147.547)"/></g></svg>