<svg xmlns="http://www.w3.org/2000/svg" width="17.077" height="20.174" viewBox="0 0 17.077 20.174"><defs><style>.a{fill:#003844;stroke:#003844;stroke-width:0.4px;}</style></defs><g transform="translate(-39.897 0.2)"><g transform="translate(40.097)"><g transform="translate(0)"><path class="a" d="M55.821,2.621H54.153V.953A.956.956,0,0,0,53.2,0H41.05A.956.956,0,0,0,40.1.953V16.2a.956.956,0,0,0,.953.953h1.668v1.668a.956.956,0,0,0,.953.953h8.1a2.781,2.781,0,0,0,1.647-.653l2.662-2.506a2.53,2.53,0,0,0,.694-1.606V3.574A.956.956,0,0,0,55.821,2.621Zm-13.1.953V16.439H41.05a.241.241,0,0,1-.238-.238V.953A.241.241,0,0,1,41.05.715H53.2a.242.242,0,0,1,.238.238V2.621H43.671A.956.956,0,0,0,42.718,3.574ZM55.59,16.1,52.928,18.6a1.265,1.265,0,0,1-.2.149V16.558a.6.6,0,0,1,.6-.6H55.7A1,1,0,0,1,55.59,16.1Zm.469-1.086a1.112,1.112,0,0,1-.032.238H53.319a1.313,1.313,0,0,0-1.31,1.31v2.473a1.246,1.246,0,0,1-.238.029h-8.1a.241.241,0,0,1-.238-.238V3.574a.241.241,0,0,1,.238-.238H55.821a.241.241,0,0,1,.238.238Z" transform="translate(-40.097)"/></g></g><g transform="translate(45.934 5.956)"><g transform="translate(0)"><path class="a" d="M198.5,154.216h-6.909a.357.357,0,1,0,0,.715H198.5a.357.357,0,0,0,0-.715Z" transform="translate(-191.235 -154.216)"/></g></g><g transform="translate(45.934 10.721)"><g transform="translate(0)"><path class="a" d="M198.5,277.59h-6.909a.357.357,0,1,0,0,.715H198.5a.357.357,0,1,0,0-.715Z" transform="translate(-191.235 -277.59)"/></g></g><g transform="translate(45.934 13.103)"><path class="a" d="M195.405,339.277h-3.812a.357.357,0,0,0,0,.715h3.812a.357.357,0,0,0,0-.715Z" transform="translate(-191.236 -339.277)"/></g><g transform="translate(45.934 8.339)"><g transform="translate(0)"><path class="a" d="M198.5,215.9h-6.909a.357.357,0,1,0,0,.715H198.5a.357.357,0,0,0,0-.715Z" transform="translate(-191.235 -215.903)"/></g></g></g></svg>