<svg xmlns="http://www.w3.org/2000/svg" viewBox="0 0 512 512" width="512" height="512">
	<style>
		tspan { white-space:pre }
		.shp0 { fill: #4285f4 } 
	</style>
	<g id="layer_copy">
		<g id="Layer">
			<path id="Layer" class="shp0" d="M260 415C257.95 415 255.91 414.22 254.34 412.66C252.78 411.1 252 409.05 252 407C252 404.95 252.78 402.9 254.34 401.34L399.69 256L254.34 110.66C251.22 107.53 251.22 102.47 254.34 99.34C257.47 96.22 262.53 96.22 265.66 99.34L416.66 250.34C418.22 251.91 419 253.95 419 256C419 258.05 418.22 260.1 416.66 261.66L265.66 412.66C264.1 414.22 262.05 415 260 415Z" />
		</g>
		<g id="Layer">
			<path id="Layer" class="shp0" d="M101 415C98.95 415 96.91 414.22 95.34 412.66C93.78 411.1 93 409.05 93 407C93 404.95 93.78 402.9 95.34 401.34L240.69 256L95.34 110.66C92.22 107.53 92.22 102.47 95.34 99.34C98.47 96.22 103.53 96.22 106.66 99.34L257.66 250.34C259.22 251.91 260 253.95 260 256C260 258.05 259.22 260.1 257.66 261.66L106.66 412.66C105.09 414.22 103.05 415 101 415Z" />
		</g>
	</g>
</svg>