<svg xmlns="http://www.w3.org/2000/svg" width="17.961" height="17.871" viewBox="0 0 17.961 17.871"><defs><style>.a{fill:#666;}</style></defs><g transform="translate(0 -0.261)"><path class="a" d="M16.578,48.647a.447.447,0,0,0-.447.447v3.972a1.343,1.343,0,0,1-1.342,1.342H2.237A1.343,1.343,0,0,1,.895,53.066V41.409a1.344,1.344,0,0,1,1.342-1.342H6.208a.447.447,0,1,0,0-.895H2.237A2.239,2.239,0,0,0,0,41.409V53.066A2.239,2.239,0,0,0,2.237,55.3H14.788a2.239,2.239,0,0,0,2.237-2.237V49.094a.447.447,0,0,0-.447-.447Zm0,0" transform="translate(0 -37.171)"/><path class="a" d="M120.2.85a2.013,2.013,0,0,0-2.847,0l-7.981,7.981a.447.447,0,0,0-.115.2l-1.049,3.789a.447.447,0,0,0,.55.551l3.789-1.05a.447.447,0,0,0,.2-.115l7.98-7.981a2.015,2.015,0,0,0,0-2.847Zm-9.853,8.271,6.532-6.532L118.984,4.7l-6.532,6.532Zm-.421.844,1.683,1.683-2.328.645ZM120.091,3.59l-.474.474L117.51,1.957l.475-.474a1.118,1.118,0,0,1,1.581,0l.525.525A1.12,1.12,0,0,1,120.091,3.59Zm0,0" transform="translate(-103.351)"/></g></svg>