<svg xmlns="http://www.w3.org/2000/svg" xmlns:xlink="http://www.w3.org/1999/xlink" width="605.666" height="666.155" viewBox="0 0 605.666 666.155"><defs><style>.a{fill:#90c3cc;opacity:0.16;}.b{fill:#464a57;}.c{fill:#545966;}.d{fill:#70747e;}.e,.g,.h,.j{fill:#fff;}.f,.n,.r,.s,.u,.w,.y{fill:#003844;}.g,.i,.j{opacity:0.24;}.h{font-size:18px;opacity:0.77;}.h,.p,.q,.s,.x{font-family:Poppins-Medium, Poppins;font-weight:500;}.j{font-size:16px;font-family:Coves-Bold, Coves;font-weight:700;}.k,.m,.t,.x{fill:#2b7787;}.l{fill:#dcdcdc;}.m,.o{stroke:#2b7787;}.m,.t,.u{stroke-width:0.1px;}.n{stroke:#003844;stroke-width:0.2px;}.o{fill:none;}.p,.q,.v{fill:#202126;}.p,.w{font-size:14px;}.q{font-size:13px;}.r{font-size:15px;}.r,.w{font-family:Poppins-SemiBold, Poppins;font-weight:600;}.s{font-size:11px;}.t,.u{stroke:#f2f5f5;}.v{font-size:7px;font-family:Poppins-Regular, Poppins;}.x{font-size:12px;opacity:0.74;}.y{opacity:0.15;}.z{fill:#d9e1e3;}.aa{opacity:0.5;}.ab{fill:#267c9a;}.ac{fill:#74b34b;}.ad{fill:#8ccc62;}.ae{fill:#5c85ff;}.af{fill:#ffd0bf;}.ag{fill:#f28f7e;}.ah{filter:url(#e);}.ai{filter:url(#c);}.aj{filter:url(#a);}</style><filter id="a" x="149.178" y="144.478" width="299.416" height="302.643" filterUnits="userSpaceOnUse"><feOffset input="SourceAlpha"/><feGaussianBlur stdDeviation="4" result="b"/><feFlood flood-opacity="0.102"/><feComposite operator="in" in2="b"/><feComposite in="SourceGraphic"/></filter><filter id="c" x="176.302" y="156.54" width="348.449" height="141.888" filterUnits="userSpaceOnUse"><feOffset input="SourceAlpha"/><feGaussianBlur stdDeviation="5" result="d"/><feFlood flood-opacity="0.161"/><feComposite operator="in" in2="d"/><feComposite in="SourceGraphic"/></filter><filter id="e" x="76.248" y="327.599" width="279.596" height="141.888" filterUnits="userSpaceOnUse"><feOffset input="SourceAlpha"/><feGaussianBlur stdDeviation="5" result="f"/><feFlood flood-opacity="0.161"/><feComposite operator="in" in2="f"/><feComposite in="SourceGraphic"/></filter></defs><g transform="translate(-1074 -1026.519)"><circle class="a" cx="255" cy="255" r="255" transform="translate(1074 1104)"/><g transform="translate(13671.248 -817.033)"><g transform="translate(-12464.529 1843.553)"><g transform="translate(0 0)"><path class="b" d="M368.274,42.275a37.969,37.969,0,0,1,37.916,37.9l.258,590.243a37.92,37.92,0,0,1-37.872,37.922l-247.391.088A37.916,37.916,0,0,1,83.27,670.548L83.018,80.323A37.925,37.925,0,0,1,120.89,42.395Z" transform="translate(-80.238 -42.275)"/><g transform="translate(0 133.441)"><path class="b" d="M133.907,134.246c.013,2.477,1.267,4.513,2.793,4.5,1.538.025,2.786-2.023,2.767-4.526l-.025-66.257c.013-2.49-1.248-4.526-2.78-4.52s-2.767,2.03-2.78,4.52Z" transform="translate(-133.882 -63.444)"/></g><g transform="translate(324.338 182.18)"><path class="b" d="M82.506,114.053c0,2.477,1.16,4.5,2.616,4.5,1.425-.013,2.616-2.023,2.616-4.5l-.025-38.364c0-2.484-1.172-4.513-2.616-4.513s-2.616,2.03-2.616,4.526Z" transform="translate(-82.481 -71.176)"/></g><g transform="translate(324.326 128.795)"><path class="b" d="M82.5,105.565c0,2.49,1.179,4.52,2.616,4.52s2.6-2.042,2.616-4.52L87.7,67.214c.013-2.484-1.172-4.507-2.616-4.507s-2.6,2.023-2.6,4.507Z" transform="translate(-82.485 -62.707)"/></g><g transform="translate(324.288 84.43)"><path class="b" d="M82.516,85.744c0,2.471,1.179,4.5,2.616,4.5s2.616-2.036,2.6-4.5l-.013-25.567c.013-2.484-1.173-4.52-2.622-4.507-1.425,0-2.6,2.023-2.61,4.507Z" transform="translate(-82.491 -55.669)"/></g></g><path class="c" d="M83.555,669.015a36.21,36.21,0,0,0,36.12,36.1L367.053,705a36.2,36.2,0,0,0,36.088-36.126l-.265-590.243a36.192,36.192,0,0,0-36.113-36.063l-247.384.1A36.179,36.179,0,0,0,83.3,78.778Z" transform="translate(-78.726 -40.742)"/><path class="d" d="M192.035,151.951a11.756,11.756,0,0,1-11.756,11.756H112.957a11.759,11.759,0,0,1-11.75-11.756h0a11.752,11.752,0,0,1,11.75-11.744h67.322a11.75,11.75,0,0,1,11.756,11.744Z" transform="translate(19.519 477.117)"/><rect class="e" width="301.316" height="540.93" transform="translate(14.844 56.122)"/><g transform="translate(103.963 27.704)"><rect class="d" width="110.178" height="4.794" rx="0.38" transform="translate(0)"/><rect class="d" width="6.93" height="4.794" rx="0.38" transform="translate(112.826)"/></g></g><path class="f" d="M0,0H302.312a0,0,0,0,1,0,0V124.784a14,14,0,0,1-14,14H14a14,14,0,0,1-14-14V0A0,0,0,0,1,0,0Z" transform="translate(-12450.057 1898.902)"/><circle class="g" cx="18.289" cy="18.289" r="18.289" transform="translate(-12436.07 1917.191)"/><text class="h" transform="translate(-12383.354 1941.57)"><tspan x="0" y="0">Paymish</tspan></text><g class="i" transform="translate(-12237.626 1924.222)"><g transform="translate(0 0)"><g transform="translate(45.759)"><g transform="translate(0 0)"><g transform="translate(0 0)"><path class="e" d="M188.815,469.333a4.283,4.283,0,0,0,7.754,0Z" transform="translate(-180.381 -442.247)"/><path class="e" d="M67.21,24.922,65.1,21.4A10.466,10.466,0,0,1,63.6,16.014V12.927a8.629,8.629,0,0,0-6.156-8.255V2.462a2.462,2.462,0,1,0-4.925,0v2.21a8.629,8.629,0,0,0-6.156,8.255v3.087A10.473,10.473,0,0,1,44.877,21.4l-2.114,3.524a.617.617,0,0,0,.527.933H66.682a.615.615,0,0,0,.528-.932Z" transform="translate(-42.675)"/></g></g></g><g transform="translate(0 0.745)"><path class="e" d="M1.477,1.477h4.43V0H0V5.906H1.477Zm0,0"/><path class="e" d="M392,0V1.477h4.43v4.43h1.477V0Zm0,0" transform="translate(-372.706)"/><path class="e" d="M396.43,396.43H392v1.477h5.906V392H396.43Zm0,0" transform="translate(-372.706 -372.706)"/><path class="e" d="M1.477,392H0v5.906H5.906V396.43H1.477Zm0,0" transform="translate(0 -372.706)"/><path class="e" d="M61,60v7.383h7.383v-4.43h1.477V61.477H68.383V60Zm5.906,5.906h-4.43v-4.43h4.43Zm0,0" transform="translate(-57.998 -57.047)"/><path class="e" d="M279.859,278.859v-7.383h-2.953V270H275.43v1.477H271v1.477h1.477v1.477H271v1.477h1.477v2.953Zm-5.906-5.906h4.43v4.43h-4.43Zm0,0" transform="translate(-257.662 -256.711)"/><path class="e" d="M65.43,241.477h2.953V240H61v1.477h2.953v1.477H62.477v1.477h1.477v2.953H62.477v1.477h1.477v1.477h7.383v-1.477H69.859v-1.477H68.383v1.477H65.43v-1.477h1.477v-1.477H65.43Zm0,0" transform="translate(-57.998 -228.188)"/><path class="e" d="M121,120h1.477v1.477H121Zm0,0" transform="translate(-115.045 -114.094)"/><path class="e" d="M361,120h1.477v1.477H361Zm0,0" transform="translate(-343.232 -114.094)"/><path class="e" d="M305.43,67.383h2.953V60H301v7.383h2.953v1.477h1.477Zm-2.953-1.477v-4.43h4.43v4.43Zm0,0" transform="translate(-286.185 -57.047)"/><path class="e" d="M393.953,241.477V240H391v1.477Zm0,0" transform="translate(-371.756 -228.188)"/><path class="e" d="M361,360h1.477v1.477H361Zm0,0" transform="translate(-343.232 -342.281)"/><path class="e" d="M241,330h1.477v1.477H241Zm0,0" transform="translate(-229.138 -313.758)"/><path class="e" d="M181,302.953h1.477V300H181Zm0,0" transform="translate(-172.091 -285.234)"/><path class="e" d="M211,270h1.477v1.477H211Zm0,0" transform="translate(-200.615 -256.711)"/><path class="e" d="M62.477,330H61v2.953h1.477Zm0,0" transform="translate(-57.998 -313.758)"/><path class="e" d="M61,420h1.477v1.477H61Zm0,0" transform="translate(-57.998 -399.328)"/><path class="e" d="M241,60h1.477v1.477H241Zm0,0" transform="translate(-229.138 -57.047)"/><path class="e" d="M241,122.953h1.477V120H241Zm0,0" transform="translate(-229.138 -114.094)"/><path class="e" d="M242.477,211.477V210H241v2.953h5.906v-1.477Zm0,0" transform="translate(-229.138 -199.664)"/></g></g></g><text class="j" transform="translate(-12436.07 1981.832)"><tspan x="0" y="0">Utility Bill Payment Categories </tspan></text><g class="aj" transform="matrix(1, 0, 0, 1, -12597.25, 1843.55)"><rect class="e" width="275.416" height="278.643" rx="14" transform="translate(161.18 156.48)"/></g><g transform="translate(-12405.946 2015.093)"><g class="ai" transform="matrix(1, 0, 0, 1, -191.3, -171.54)"><rect class="e" width="318.45" height="111.888" rx="4" transform="translate(191.3 171.54)"/></g><g transform="translate(18.289 30.074)"><g transform="translate(0 6.534)"><g transform="translate(15.586 8.834)"><g transform="translate(0 0)"><path class="f" d="M170.058,196.909a.786.786,0,0,0-1.206,1.007,9.288,9.288,0,0,1,1.044,10.356,8.2,8.2,0,0,0-1.883-4.372,3,3,0,0,0,.476-5,10.865,10.865,0,0,0-13.545,0,3.005,3.005,0,0,0,.475,5,8.2,8.2,0,0,0-1.883,4.371A9.292,9.292,0,0,1,167,196.221a.786.786,0,0,0,.895-1.292,10.872,10.872,0,1,0,2.166,1.979Zm-14.134,3.222a9.294,9.294,0,0,1,11.584,0,1.423,1.423,0,0,1-.792,2.53,8.209,8.209,0,0,0-10,0,1.423,1.423,0,0,1-.791-2.53Zm12.331,10.331a9.276,9.276,0,0,1-13.08,0,6.663,6.663,0,1,1,13.08,0Z" transform="translate(-150.852 -193.004)"/></g></g><g transform="translate(37.175 18.912)"><path class="k" d="M373.141,290.548H361.417a.786.786,0,0,0,0,1.571h11.723a.828.828,0,0,1,.077,1.653l-12.688,1.191a.786.786,0,0,0,.072,1.568c.025,0,.05,0,.074,0l.755-.071a3.75,3.75,0,1,0,5.742-.539l6.19-.581a2.4,2.4,0,0,0-.224-4.789Zm-8.614,10.2a2.179,2.179,0,1,1,2.179-2.179A2.181,2.181,0,0,1,364.527,300.75Z" transform="translate(-359.817 -290.548)"/></g><g transform="translate(0 18.912)"><path class="k" d="M15.011,294.964,2.322,293.772a.829.829,0,0,1,.078-1.653H4.661a.786.786,0,1,0,0-1.571H2.4a2.4,2.4,0,0,0-.224,4.789l6.19.581a3.75,3.75,0,1,0,5.743.54l.755.071c.025,0,.05,0,.074,0a.786.786,0,0,0,.073-1.568Zm-4,5.786a2.179,2.179,0,1,1,2.179-2.179A2.181,2.181,0,0,1,11.013,300.749Z" transform="translate(0 -290.547)"/></g><g transform="translate(6.494 18.912)"><path class="k" d="M70.488,290.548H63.645a.786.786,0,1,0,0,1.571h6.843a.786.786,0,0,0,0-1.571Z" transform="translate(-62.859 -290.548)"/></g><g transform="translate(23.935 0)"><path class="k" d="M234.181,107.5a2.517,2.517,0,0,0-2.514,2.514v4.737a.786.786,0,0,0,1.571,0V110.01a.943.943,0,1,1,1.886,0v4.737a.786.786,0,1,0,1.571,0V110.01A2.517,2.517,0,0,0,234.181,107.5Z" transform="translate(-231.667 -107.496)"/></g></g><g transform="translate(89.295 1.633)"><g transform="translate(21.618 3.079)"><g transform="translate(0)"><path class="f" d="M326.825,40a.77.77,0,1,0,.77.77A.77.77,0,0,0,326.825,40Z" transform="translate(-326.055 -40)"/></g></g><g transform="translate(9.303 3.079)"><g transform="translate(0)"><path class="f" d="M166.825,40a.77.77,0,1,0,.77.77A.77.77,0,0,0,166.825,40Z" transform="translate(-166.055 -40)"/></g></g><g transform="translate(0 0)"><g transform="translate(0 0)"><path class="f" d="M77.423,38.106,72.33,32.785a3.852,3.852,0,0,0,3.709-3.845V6.1A5.386,5.386,0,0,0,71.7.817,42.812,42.812,0,0,0,63.386,0H59.32a41.9,41.9,0,0,0-8.2.812A5.4,5.4,0,0,0,46.791,6.1V28.94a3.852,3.852,0,0,0,3.761,3.846L45.4,38.1a.77.77,0,0,0,.553,1.305h5.5a.77.77,0,0,0,.623-.318l2.335-3.222H68.483l2.335,3.223a.77.77,0,0,0,.623.318h5.426a.77.77,0,0,0,.556-1.3ZM48.33,28.94V6.1a3.859,3.859,0,0,1,3.093-3.774,40.369,40.369,0,0,1,7.9-.782h4.066a41.276,41.276,0,0,1,8.014.787A3.847,3.847,0,0,1,74.5,6.1V28.94a2.312,2.312,0,0,1-2.309,2.309H50.639A2.312,2.312,0,0,1,48.33,28.94Zm2.734,8.928H47.772l4.922-5.08h2.052Zm4.466-3.541,1.115-1.539h9.606l1.115,1.539Zm16.3,3.541-3.681-5.08H70.2l4.863,5.08Z" transform="translate(-45.184 0)"/></g></g><g transform="translate(4.685 6.158)"><path class="k" d="M128.376,80H106.825a.77.77,0,0,0-.77.77V93.547a.77.77,0,0,0,.77.77h21.551a.77.77,0,0,0,.77-.77V80.77A.77.77,0,0,0,128.376,80ZM116.831,92.777h-9.236V81.539h9.236Zm10.776,0H118.37V81.539h9.236Z" transform="translate(-106.055 -80)"/></g><g transform="translate(12.382 3.079)"><g transform="translate(0)"><path class="f" d="M212.982,40h-6.158a.77.77,0,0,0,0,1.539h6.158a.77.77,0,0,0,0-1.539Z" transform="translate(-206.055 -40)"/></g></g><g transform="translate(21.618 22.783)"><g transform="translate(0)"><path class="k" d="M329.134,296a3.079,3.079,0,1,0,3.079,3.079A3.082,3.082,0,0,0,329.134,296Zm0,4.618a1.539,1.539,0,1,1,1.539-1.539A1.541,1.541,0,0,1,329.134,300.618Z" transform="translate(-326.055 -296)"/></g></g><g transform="translate(4.685 22.783)"><path class="k" d="M109.134,296a3.079,3.079,0,1,0,3.079,3.079A3.082,3.082,0,0,0,109.134,296Zm0,4.618a1.539,1.539,0,1,1,1.539-1.539A1.541,1.541,0,0,1,109.134,300.618Z" transform="translate(-106.055 -296)"/></g><g transform="translate(12.382 23.553)"><g transform="translate(0)"><path class="f" d="M212.982,306h-6.158a.77.77,0,1,0,0,1.539h6.158a.77.77,0,1,0,0-1.539Z" transform="translate(-206.055 -306)"/></g></g><g transform="translate(12.382 26.631)"><g transform="translate(0)"><path class="f" d="M212.982,346h-6.158a.77.77,0,1,0,0,1.539h6.158a.77.77,0,1,0,0-1.539Z" transform="translate(-206.055 -346)"/></g></g></g><g transform="translate(237.761 3.267)"><path class="l" d="M92.806,289.709a3.26,3.26,0,0,1-1.966-3v-7.255A4.225,4.225,0,0,1,88.5,278v8.713a3.26,3.26,0,0,0,1.966,3,.451.451,0,0,1,.3.117,3.275,3.275,0,0,0,.983.156h2.34a3.2,3.2,0,0,1-.983-.156A.424.424,0,0,0,92.806,289.709Z" transform="translate(-82.938 -257.055)"/><path class="l" d="M90.84,96.866v-9.2a3.494,3.494,0,0,1,.039-.5.455.455,0,0,0,.047-.2v-.023A3.27,3.27,0,0,1,94.109,84.4h-2.34a3.27,3.27,0,0,0-3.183,2.535v.023a.455.455,0,0,1-.047.2,3.588,3.588,0,0,0-.039.5v9.2a3.259,3.259,0,0,0,3.261,3.261h.577a3.256,3.256,0,0,1,.078-.468A3.259,3.259,0,0,1,90.84,96.866Z" transform="translate(-82.938 -78.557)"/><g transform="translate(7.06 25.937)"><path class="m" d="M110.477,439.436h-.445A2.334,2.334,0,0,1,107.7,437.1v-3h.936v3a1.4,1.4,0,0,0,1.4,1.4h.445a1.4,1.4,0,0,0,1.4-1.4V434.4h.936V437.1A2.334,2.334,0,0,1,110.477,439.436Z" transform="translate(-107.7 -426.916)"/><path class="m" d="M341.577,439.436h-.445A2.334,2.334,0,0,1,338.8,437.1V434.4h.936V437.1a1.4,1.4,0,0,0,1.4,1.4h.445a1.4,1.4,0,0,0,1.4-1.4v-3h.936v3A2.334,2.334,0,0,1,341.577,439.436Z" transform="translate(-320.773 -426.916)"/><path class="k" d="M113.006,342a2.106,2.106,0,1,0,2.106,2.106A2.107,2.107,0,0,0,113.006,342Zm0,3.276a1.17,1.17,0,1,1,1.17-1.17A1.169,1.169,0,0,1,113.006,345.276Z" transform="translate(-110.65 -342)"/><path class="k" d="M349.206,342a2.106,2.106,0,1,0,2.106,2.106A2.107,2.107,0,0,0,349.206,342Zm0,3.276a1.17,1.17,0,1,1,1.17-1.17A1.169,1.169,0,0,1,349.206,345.276Z" transform="translate(-328.425 -342)"/><path class="k" d="M185.714,348.5H175.448a1.252,1.252,0,0,0-1.248,1.248v.975a1.252,1.252,0,0,0,1.248,1.248h10.266a1.252,1.252,0,0,0,1.248-1.248v-.975A1.247,1.247,0,0,0,185.714,348.5Zm-6.638.936h1.037v1.6h-1.037Zm-.936,1.591H177.1v-1.6h1.037Zm2.91-1.591h1.037v1.6h-1.037Zm1.974,0h1.038v1.6h-1.038Zm-7.886,1.279v-.975a.313.313,0,0,1,.312-.312h.725v1.6h-.725A.308.308,0,0,1,175.136,350.715Zm10.89,0a.313.313,0,0,1-.312.312h-.725v-1.6h.725a.313.313,0,0,1,.312.312Z" transform="translate(-169.012 -347.993)"/></g><path class="n" d="M66.868,17.433H65.433a4.221,4.221,0,0,0-3.495-3V10.811A1.308,1.308,0,0,0,60.627,9.5H41.882a1.308,1.308,0,0,0-1.311,1.311v3.768a4.209,4.209,0,0,0-2.816,2.847H36.32a2.021,2.021,0,0,0-2.02,2.02v3.206h.936V19.446a1.082,1.082,0,0,1,1.084-1.084H37.6L37.592,27.8V39.15a4.2,4.2,0,0,0,4.2,4.2H61.4a4.2,4.2,0,0,0,4.2-4.2V27.808l-.008-9.439h1.279a1.082,1.082,0,0,1,1.084,1.084V22.66h.936V19.454A2.021,2.021,0,0,0,66.868,17.433Zm-25.2-6.623a.218.218,0,0,1,.218-.218H60.627a.218.218,0,0,1,.218.218V14.4H41.664Zm23,28.348A3.259,3.259,0,0,1,61.4,42.419H41.789a3.259,3.259,0,0,1-3.261-3.261V30.445a4.2,4.2,0,0,0,3.261,1.56H61.4a4.181,4.181,0,0,0,3.261-1.56ZM43.31,31.069a3.755,3.755,0,0,1,7.442,0ZM64.66,27.808A3.259,3.259,0,0,1,61.4,31.069H51.7a4.692,4.692,0,0,0-9.33,0h-.577a3.259,3.259,0,0,1-3.261-3.261V18.6a3.259,3.259,0,0,1,3.261-3.261H61.4A3.259,3.259,0,0,1,64.66,18.6Z" transform="translate(-32.966 -9.5)"/><path class="m" d="M447.3,177.105H446.01a1.308,1.308,0,0,1-1.311-1.311v-2.184a1.308,1.308,0,0,1,1.311-1.311H447.3a1.308,1.308,0,0,1,1.311,1.311v2.184A1.3,1.3,0,0,1,447.3,177.105Zm-1.287-3.877a.374.374,0,0,0-.374.374v2.184a.374.374,0,0,0,.374.374H447.3a.374.374,0,0,0,.374-.374V173.6a.374.374,0,0,0-.374-.374Z" transform="translate(-411.352 -159.6)"/><path class="m" d="M19.8,177.105H18.511a1.308,1.308,0,0,1-1.311-1.311v-2.184a1.308,1.308,0,0,1,1.311-1.311H19.8a1.308,1.308,0,0,1,1.311,1.311v2.184A1.308,1.308,0,0,1,19.8,177.105Zm-1.287-3.877a.374.374,0,0,0-.374.374v2.184a.374.374,0,0,0,.374.374H19.8a.375.375,0,0,0,.374-.374V173.6a.374.374,0,0,0-.374-.374Z" transform="translate(-17.2 -159.6)"/></g><g transform="translate(169.983)"><path class="o" d="M143.582,112.8H124.7a1.9,1.9,0,0,0-1.9,1.9v10.662a1.9,1.9,0,0,0,1.9,1.9H143.65a1.9,1.9,0,0,0,1.9-1.9v-10.73A1.946,1.946,0,0,0,143.582,112.8Z" transform="translate(-119.133 -103.224)"/><g transform="translate(3.328 27.709)"><ellipse class="o" cx="2.717" cy="2.717" rx="2.717" ry="2.717" transform="translate(17.861)"/><ellipse class="o" cx="2.717" cy="2.717" rx="2.717" ry="2.717"/></g><g transform="translate(0)"><path class="f" d="M105.611,6.044h-8.9l1.97-4.686h.543A2.145,2.145,0,0,1,101.4,3.532a.681.681,0,0,0,.679.679.642.642,0,0,0,.679-.679A3.507,3.507,0,0,0,99.227,0h-9.3a3.507,3.507,0,0,0-3.532,3.532.679.679,0,0,0,1.358,0,2.145,2.145,0,0,1,2.173-2.173h.611L92.5,6.112h-8.9A4.014,4.014,0,0,0,79.6,10.119V31.512a5.449,5.449,0,0,0,5.433,5.433h2.513l-4.211,5.5a.671.671,0,0,0,.136.951.965.965,0,0,0,.407.136.618.618,0,0,0,.543-.272l2.037-2.649h16.367l2.037,2.649a.618.618,0,0,0,.543.272.965.965,0,0,0,.408-.136.718.718,0,0,0,.136-.951l-4.211-5.5h2.513a5.449,5.449,0,0,0,5.433-5.433V10.051A4.165,4.165,0,0,0,105.611,6.044ZM91.96,1.358H97.19L95.22,6.112H93.93Zm8.014,35.587,1.766,2.309H87.41l1.766-2.309Zm8.286-5.433a4.087,4.087,0,0,1-4.075,4.075H85.033a4.087,4.087,0,0,1-4.075-4.075V10.051A2.652,2.652,0,0,1,83.607,7.4h22a2.652,2.652,0,0,1,2.649,2.649Z" transform="translate(-79.6)"/><rect class="f" width="8.353" height="0.883" transform="translate(10.866 29.407)"/><rect class="f" width="8.353" height="0.883" transform="translate(10.866 31.648)"/><rect class="f" width="1.358" height="1.358" transform="translate(10.73 26.215)"/><rect class="f" width="1.358" height="1.358" transform="translate(14.33 26.215)"/><rect class="f" width="1.358" height="1.358" transform="translate(17.929 26.215)"/></g></g><text class="p" transform="translate(6.455 64.539)"><tspan x="0" y="0">Flight</tspan></text><text class="p" transform="translate(87.143 64.539)"><tspan x="0" y="0">Train</tspan></text><text class="q" transform="translate(163.528 63.539)"><tspan x="0" y="0">Metro</tspan></text><text class="q" transform="translate(244.216 64.614)"><tspan x="0" y="0">Bus</tspan></text></g><text class="r" transform="translate(12.91 23.531)"><tspan x="0" y="0">Airline</tspan></text></g><g transform="translate(-12506 2186.152)"><g transform="translate(80.688 11.834)"><text class="s" transform="translate(0 12)"><tspan x="0" y="0">Airtime</tspan></text><g transform="translate(10.768 38.718)"><path class="t" d="M29.334,18.667A1.334,1.334,0,1,0,28,17.334,1.334,1.334,0,0,0,29.334,18.667Zm0-2a.667.667,0,1,1-.667.667A.667.667,0,0,1,29.334,16.667Z" transform="translate(-19.331 -12.666)"/><path class="u" d="M21.671,20.67v-1a.333.333,0,0,0-.333-.333H21V12h.667a.333.333,0,0,0,.3-.483l-1-2a.326.326,0,0,0-.3-.183h-2.9a.345.345,0,0,0-.117-.123L15.67,8.067V6.333A.333.333,0,0,0,15.337,6H14a.333.333,0,0,0-.333.333V6.91l-1.5-.867a.348.348,0,0,0-.333,0L6.351,9.211a.345.345,0,0,0-.117.123h-2.9a.326.326,0,0,0-.3.183l-1,2a.333.333,0,0,0,.3.483H3v7.335H2.667a.333.333,0,0,0-.333.333v1A.333.333,0,0,0,2,21v1.334a.333.333,0,0,0,.333.333H21.671A.333.333,0,0,0,22,22.337V21A.333.333,0,0,0,21.671,20.67ZM17.11,10.821l.473-.82h2.881l.667,1.334H15.67v-.96l.984.57a.336.336,0,0,0,.167.043.325.325,0,0,0,.29-.167ZM20.338,12v7.335H15.67V12Zm-6-5.335H15V7.68L14.336,7.3ZM12,6.717l5.031,2.907L16.7,10.2,12.169,7.584a.342.342,0,0,0-.333,0L7.3,10.2l-.333-.577Zm3,3.274v9.346H9V9.991l3-1.734ZM2.874,11.335,3.54,10H6.421l.473.82a.333.333,0,0,0,.457.123l.984-.57v.96ZM8.335,12v7.335H3.667V12ZM3,20H21v.667H3Zm18.338,2H2.667v-.667H21.338Z" transform="translate(-2 -6)"/><path class="t" d="M45.333,32.668H48a.333.333,0,0,0,.333-.333v-4A.333.333,0,0,0,48,28H45.333a.333.333,0,0,0-.333.333v4A.333.333,0,0,0,45.333,32.668Zm.333-2h.667V32h-.667Zm2,1.334H47V30.667h.667Zm0-2H47V28.667h.667Zm-2-1.334h.667V30h-.667Z" transform="translate(-30.663 -20.665)"/><path class="t" d="M12,28H9.333A.333.333,0,0,0,9,28.333v4a.333.333,0,0,0,.333.333H12a.333.333,0,0,0,.333-.333v-4A.333.333,0,0,0,12,28Zm-.333,2H11V28.667h.667Zm-2-1.334h.667V30H9.667Zm0,2h.667V32H9.667Zm2,1.334H11V30.667h.667Z" transform="translate(-6.666 -20.665)"/><path class="t" d="M29.483,27.035l-2-1a.333.333,0,0,0-.3,0l-2,1a.333.333,0,0,0-.184.3V28.55A3.66,3.66,0,0,0,26.634,31.6l.516.344a.333.333,0,0,0,.37,0l.514-.344a3.66,3.66,0,0,0,1.634-3.051V27.333A.333.333,0,0,0,29.483,27.035ZM29,28.55a2.994,2.994,0,0,1-1.336,2.5l-.331.221L27,31.047a2.994,2.994,0,0,1-1.336-2.5v-1.01l1.667-.834L29,27.539Z" transform="translate(-17.331 -19.331)"/><path class="t" d="M28.764,31.96l-.471.471.667.667a.333.333,0,0,0,.471,0l1.334-1.334-.471-.471-1.1,1.1Z" transform="translate(-19.527 -22.86)"/></g><text class="v" transform="translate(2.152 70.475)"><tspan x="0" y="0">Insurance</tspan></text><text class="v" transform="translate(65.626 70.475)"><tspan x="0" y="0">Gas</tspan></text><text class="v" transform="translate(104.357 70.475)"><tspan x="0" y="0">Piped Gas</tspan></text><g transform="translate(65.779 37.921)"><path class="f" d="M29.157,11.9s0,0,0,0V9.69a.27.27,0,0,0-.1-.212L27.1,7.934a.27.27,0,0,0-.167-.058H25.573V5.946a1.2,1.2,0,0,0-1.2-1.2H15.646a1.2,1.2,0,0,0-1.2,1.2v15.63h-.583a.27.27,0,0,0-.27.27v.926a.27.27,0,0,0,.27.27H26.157a.27.27,0,0,0,.27-.27v-.926a.27.27,0,0,0-.27-.27h-.584V16.5h.338a.105.105,0,0,1,.1.1v2.407a1.571,1.571,0,0,0,3.141,0V12.835s0,0,0,0Zm-.54.337v.319h-.386v-.386h.386v.063Zm0-2.421v1.813h-.386V10.139a.3.3,0,0,0-.108-.216.269.269,0,0,0-.172-.062H26.627V9.087c0-.005,0-.01,0-.015V8.416h.209Zm-2.706,5.212h-.338V9.343h.514v.789a.27.27,0,0,0,.27.27h.225v.408a.734.734,0,0,0,.733.733h.375v7.469a.1.1,0,0,1-.208,0V16.6a1.573,1.573,0,0,0-1.572-1.572Zm1.78-4.631V11h-.375a.193.193,0,0,1-.193-.193V10.4Zm-1.6-1.985V8.8h-.515V8.416ZM15.646,5.29h8.731a.657.657,0,0,1,.656.656v5.036a.657.657,0,0,1-.656.652H15.646a.656.656,0,0,1-.655-.648V5.946a.657.657,0,0,1,.655-.656ZM25.887,22.5H14.137v-.386h11.75Zm-10.9-.926v-9.6a1.189,1.189,0,0,0,.655.2h8.731a1.19,1.19,0,0,0,.656-.2v9.6Zm12.6-1.534a1.032,1.032,0,0,1-1.031-1.031V16.6a.646.646,0,0,0-.645-.645h-.338v-.386h.338A1.032,1.032,0,0,1,26.942,16.6v2.407a.645.645,0,1,0,1.289,0V13.1h.386v5.91a1.032,1.032,0,0,1-1.03,1.031Z" transform="translate(-13.596 -4.75)"/><path class="k" d="M25.4,77.207a.27.27,0,0,0-.27.27v1.081a.27.27,0,0,0,.54,0V77.477a.27.27,0,0,0-.27-.27Z" transform="translate(-23.345 -66.022)"/><path class="k" d="M31.4,20.469h6.879a.27.27,0,0,0,.27-.27V17.02a.27.27,0,0,0-.27-.27H31.4a.27.27,0,0,0-.27.27V20.2A.27.27,0,0,0,31.4,20.469Zm.27-3.179H38v2.639H31.665Z" transform="translate(-28.419 -14.898)"/><path class="k" d="M41.917,70.094a2.417,2.417,0,1,0,2.417,2.417A2.417,2.417,0,0,0,41.917,70.094Zm0,4.293a1.876,1.876,0,1,1,1.876-1.876,1.876,1.876,0,0,1-1.876,1.876Z" transform="translate(-35.501 -60.007)"/><path class="k" d="M48.408,75.714a3.466,3.466,0,0,0-1,1.851,1.2,1.2,0,1,0,2.393,0,3.461,3.461,0,0,0-1-1.851A.278.278,0,0,0,48.408,75.714Zm.194,2.507a.657.657,0,0,1-.656-.656,2.521,2.521,0,0,1,.656-1.257,2.524,2.524,0,0,1,.656,1.257.657.657,0,0,1-.656.656Z" transform="translate(-42.186 -64.693)"/></g><g transform="translate(112.829 38.084)"><path class="f" d="M18.361,60.012h-2v-.9a.326.326,0,0,0-.326-.326H13.863v-.869a.326.326,0,0,0-.326-.326h-.842v-.857a3.787,3.787,0,1,0-5.352-3.448c0,.055,0,.109,0,.159A.326.326,0,1,0,8,53.419c0-.05,0-.091,0-.132A3.134,3.134,0,1,1,8.2,54.4a.326.326,0,0,0-.609.232,3.8,3.8,0,0,0,1.974,2.1v.856H8.723a.326.326,0,0,0-.326.326v.869H6.226a.326.326,0,0,0-.326.326v.9h-2a3.9,3.9,0,0,0-3.9,3.9v3.218a.326.326,0,0,0,.652,0V63.911A3.25,3.25,0,0,1,3.9,60.664h2v1.956h-2a1.292,1.292,0,0,0-1.29,1.29v3.218a.326.326,0,0,0,.652,0V63.911a.639.639,0,0,1,.638-.638h2v.9a.326.326,0,0,0,.326.326H7.558v1.039a.326.326,0,0,0,.326.326h4.169a.326.326,0,0,0,0-.652H8.211V64.5h5.838v.713H13.14a.326.326,0,0,0,0,.652h1.235a.326.326,0,0,0,.326-.326V64.5h1.333a.326.326,0,0,0,.326-.326v-.9h2a.639.639,0,0,1,.638.638v3.218a.326.326,0,0,0,.652,0V63.911a1.292,1.292,0,0,0-1.29-1.29h-2V60.664h2a3.25,3.25,0,0,1,3.247,3.247v3.218a.326.326,0,0,0,.652,0V63.911a3.9,3.9,0,0,0-3.9-3.9Zm-8.143-3.05a3.863,3.863,0,0,0,.913.111,3.786,3.786,0,0,0,.913-.111v.629H10.217ZM9.049,58.244h4.162v.543H9.049Zm6.659,5.6H6.552V59.438h9.156Z" transform="translate(0 -49.5)"/><path class="k" d="M237.69,84.628a.326.326,0,0,0-.326.326v1.168a.832.832,0,1,0,.652,0V84.954A.326.326,0,0,0,237.69,84.628Zm0,2.44a.18.18,0,1,1,.18-.18A.18.18,0,0,1,237.69,87.068Z" transform="translate(-226.561 -83.101)"/><path class="k" d="M232.88,298.192c-.683,0-1.051,1.143-1.051,1.611a1.051,1.051,0,0,0,2.1,0C233.931,299.335,233.562,298.192,232.88,298.192Zm0,2.009a.4.4,0,0,1-.4-.4.561.561,0,1,1,.8,0A.4.4,0,0,1,232.88,300.2Z" transform="translate(-221.75 -287.38)"/></g></g><g class="ah" transform="matrix(1, 0, 0, 1, -91.25, -342.6)"><rect class="e" width="249.596" height="111.888" rx="4" transform="translate(91.25 342.6)"/></g><text class="q" transform="translate(26.896 95.764)"><tspan x="0" y="0">Loan</tspan></text><text class="q" transform="translate(102.205 95.764)"><tspan x="0" y="0">Gas</tspan></text><text class="q" transform="translate(163.528 95.764)"><tspan x="0" y="0">Piped Gas</tspan></text><text class="w" transform="translate(12.91 21.455)"><tspan x="0" y="0">Airtime</tspan></text><g transform="translate(174.287 31.199)"><path class="f" d="M40.627,72.761H36.2V70.769a.721.721,0,0,0-.721-.721h-4.8V68.126a.721.721,0,0,0-.721-.721H28.089v-1.9a8.379,8.379,0,1,0-11.841-7.63c0,.122,0,.241.009.352a.721.721,0,0,0,1.442-.06c0-.11-.008-.2-.008-.292a6.935,6.935,0,1,1,.454,2.47.722.722,0,0,0-1.348.514,8.4,8.4,0,0,0,4.368,4.648V67.4H19.3a.721.721,0,0,0-.721.721v1.922h-4.8a.721.721,0,0,0-.721.721v1.992H8.627A8.636,8.636,0,0,0,0,81.388v7.121a.721.721,0,0,0,1.443,0V81.388A7.192,7.192,0,0,1,8.627,74.2h4.427v4.329H8.627a2.858,2.858,0,0,0-2.855,2.855v7.121a.721.721,0,0,0,1.443,0V81.388a1.413,1.413,0,0,1,1.412-1.412h4.427v1.991a.721.721,0,0,0,.721.721h2.949v2.3a.721.721,0,0,0,.721.721H26.67a.721.721,0,0,0,0-1.443h-8.5V82.689H31.086v1.578H29.075a.721.721,0,0,0,0,1.443h2.732a.721.721,0,0,0,.721-.721v-2.3h2.949a.721.721,0,0,0,.721-.721V79.976h4.427a1.413,1.413,0,0,1,1.412,1.412v7.121a.721.721,0,0,0,1.443,0V81.388a2.858,2.858,0,0,0-2.855-2.855H36.2V74.2h4.427a7.192,7.192,0,0,1,7.184,7.184v7.121a.721.721,0,0,0,1.443,0V81.388a8.636,8.636,0,0,0-8.627-8.627ZM22.607,66.012a8.547,8.547,0,0,0,2.019.246,8.377,8.377,0,0,0,2.019-.246V67.4H22.607Zm-2.586,2.835h9.21v1.2h-9.21Zm14.734,12.4H14.5V71.491H34.756Z" transform="translate(0 -49.5)"/><path class="k" d="M238.7,84.628a.721.721,0,0,0-.722.721v2.584a1.841,1.841,0,1,0,1.443,0V85.349A.721.721,0,0,0,238.7,84.628Zm0,5.4a.4.4,0,1,1,.4-.4A.4.4,0,0,1,238.7,90.026Z" transform="translate(-214.073 -81.249)"/><path class="k" d="M234.154,298.192c-1.51,0-2.325,2.53-2.325,3.564a2.325,2.325,0,0,0,4.65,0C236.479,300.722,235.665,298.192,234.154,298.192Zm0,4.446a.883.883,0,0,1-.882-.882,3.413,3.413,0,0,1,.882-2.113,3.413,3.413,0,0,1,.882,2.113A.883.883,0,0,1,234.154,302.638Z" transform="translate(-209.527 -274.268)"/></g><g transform="translate(98.978 33.07)"><path class="f" d="M48.562,20.825s0-.007,0-.01V15.85a.607.607,0,0,0-.231-.477L43.936,11.9a.607.607,0,0,0-.376-.13H40.507V7.438A2.691,2.691,0,0,0,37.819,4.75H18.2a2.691,2.691,0,0,0-2.688,2.688v35.12H14.2a.607.607,0,0,0-.607.607v2.081a.607.607,0,0,0,.607.607H41.819a.607.607,0,0,0,.607-.607V43.165a.607.607,0,0,0-.607-.607H40.507V31.15h.76a.236.236,0,0,1,.236.236v5.408a3.529,3.529,0,0,0,7.059,0V22.916s0-.007,0-.01Zm-1.214.758V22.3H46.48v-.867h.867v.141Zm0-5.439v4.074H46.48V16.859a.664.664,0,0,0-.243-.486.605.605,0,0,0-.385-.139H42.876V14.5c0-.011,0-.022,0-.035V12.988h.469ZM41.267,27.855h-.76V15.069h1.155v1.772a.607.607,0,0,0,.607.607h.506v.916a1.65,1.65,0,0,0,1.648,1.648h.843V36.794a.234.234,0,0,1-.468,0V31.386a3.535,3.535,0,0,0-3.531-3.531Zm4-10.406V18.8h-.843a.434.434,0,0,1-.434-.434v-.916Zm-3.6-4.461v.867H40.508v-.867ZM18.2,5.964H37.82a1.476,1.476,0,0,1,1.474,1.474V18.754a1.475,1.475,0,0,1-1.473,1.464H18.2a1.475,1.475,0,0,1-1.472-1.457V7.438A1.476,1.476,0,0,1,18.2,5.964ZM41.212,44.64h-26.4v-.867h26.4ZM16.73,42.558V20.99a2.671,2.671,0,0,0,1.472.442H37.82a2.674,2.674,0,0,0,1.473-.442V42.558Zm28.3-3.448a2.32,2.32,0,0,1-2.317-2.317V31.386a1.452,1.452,0,0,0-1.45-1.45h-.76v-.867h.76a2.319,2.319,0,0,1,2.317,2.317v5.408a1.448,1.448,0,0,0,2.9,0V23.513h.867v13.28a2.318,2.318,0,0,1-2.314,2.317Z" transform="translate(-13.596 -4.75)"/><path class="k" d="M25.732,77.207a.607.607,0,0,0-.607.607v2.428a.607.607,0,1,0,1.214,0V77.814a.607.607,0,0,0-.607-.607Z" transform="translate(-21.126 -52.074)"/><path class="k" d="M31.732,25.107H47.188a.607.607,0,0,0,.607-.607V17.357a.607.607,0,0,0-.607-.607H31.732a.607.607,0,0,0-.607.607V24.5A.607.607,0,0,0,31.732,25.107Zm.607-7.143H46.581v5.929H32.339Z" transform="translate(-25.045 -12.588)"/><path class="k" d="M44.93,70.094a5.43,5.43,0,1,0,5.43,5.43,5.43,5.43,0,0,0-5.43-5.43Zm0,9.645a4.216,4.216,0,1,1,4.216-4.216,4.216,4.216,0,0,1-4.216,4.216Z" transform="translate(-30.515 -47.428)"/><path class="k" d="M49.658,75.812c-.231.237-2.253,2.368-2.253,4.159a2.688,2.688,0,1,0,5.376,0c0-1.791-2.023-3.922-2.255-4.159A.624.624,0,0,0,49.658,75.812Zm.435,5.633a1.476,1.476,0,0,1-1.474-1.474,5.664,5.664,0,0,1,1.474-2.825,5.672,5.672,0,0,1,1.474,2.825,1.476,1.476,0,0,1-1.475,1.474Z" transform="translate(-35.678 -51.048)"/></g><g transform="translate(24.957 34.544)"><path class="f" d="M48.012,30.024a2.639,2.639,0,0,0-3.551-.753l-.765.336a12.637,12.637,0,0,0,.755-8.136A19.628,19.628,0,0,0,39.5,12.527a.615.615,0,1,0-.906.83,18.424,18.424,0,0,1,4.652,8.38,11.017,11.017,0,0,1-1.442,8.7L34.161,33.8v-.864a.6.6,0,0,0,0-.066,3.851,3.851,0,0,0-3.3-3.439h-.015l-6.8-.783c-2.614-.371-3.288-1.938-6.827-2.832a13.226,13.226,0,0,1,.975-6.5,23.411,23.411,0,0,1,7.632-9.4c1.36.965,7.429,1.084,8.787-.168.7.528,1.36,1.072,1.978,1.624a.615.615,0,1,0,.817-.918c-.672-.6-1.407-1.2-2.173-1.777a2.185,2.185,0,0,0-.733-2.185C36.43,3.6,36.989,1.681,36.216.686A1.074,1.074,0,0,0,34.742.459.985.985,0,0,1,33.566.417a2.208,2.208,0,0,0-2.587,0,.99.99,0,0,1-1.242,0,2.208,2.208,0,0,0-2.587,0,.978.978,0,0,1-1.177.039A1.072,1.072,0,0,0,24.5.673c-.755.973-.25,2.822,1.545,5.641a2,2,0,0,0-.313.208,4.148,4.148,0,0,0-3.573-1.345A4.5,4.5,0,0,1,19.1,4.455a.615.615,0,0,0-.684,1.02,5.714,5.714,0,0,0,3.877.923,3,3,0,0,1,2.743,1.2q-.012.039-.02.079a10.543,10.543,0,0,0-1.948.212,5.77,5.77,0,0,0-4.005,2.558.615.615,0,1,0,1.061.62c1.121-1.914,3.856-2.148,4.941-2.163l.015.04a24.275,24.275,0,0,0-8.024,9.916,14.582,14.582,0,0,0-1.1,6.708,12.784,12.784,0,0,0-1.783-.138v-.371a1.785,1.785,0,0,0-1.783-1.783H9.578A1.785,1.785,0,0,0,7.8,25.059V39.367A1.785,1.785,0,0,0,9.583,41.15H12.4a1.785,1.785,0,0,0,1.783-1.782V39.2l6.152,2.289a7.36,7.36,0,0,0,2.575.464H32.08a7.372,7.372,0,0,0,3.951-1.146c12.229-7.752,11.486-7.269,11.557-7.333a2.635,2.635,0,0,0,.429-3.444ZM33.463,9.035a13.316,13.316,0,0,1-6.678,0c-.965-.244-.684-1.963.351-1.7a11.98,11.98,0,0,0,5.975,0C34.13,7.077,34.443,8.788,33.463,9.035ZM25.411,1.55h.013a2.185,2.185,0,0,0,2.4-.1c1.047-.686,1.16.413,2.535.413a2.135,2.135,0,0,0,1.294-.413.992.992,0,0,1,1.242,0,2.185,2.185,0,0,0,2.407.109c.126.455-.168,1.814-1.982,4.526a12.513,12.513,0,0,1-5.935.045C25.565,3.381,25.28,2.009,25.411,1.55ZM46.8,32.518,35.373,39.762a6.145,6.145,0,0,1-3.294.956h-9.17a6.135,6.135,0,0,1-2.146-.38l-6.575-2.456v-6.62a.615.615,0,1,0-1.229,0v8.1a.555.555,0,0,1-.555.555H9.578a.555.555,0,0,1-.555-.555V25.06a.555.555,0,0,1,.555-.555H12.4a.555.555,0,0,1,.555.555V28.4a.615.615,0,1,0,1.229,0V26.661c5.083.039,6.219,2.718,9.706,3.21H23.9l6.8.783a2.624,2.624,0,0,1,2.239,2.313l-.008,1.177H26.592a.615.615,0,0,0,0,1.229h6.948a.635.635,0,0,0,.245-.05L44.963,30.4c.8-.358,1.536-.408,2.034.323a1.4,1.4,0,0,1-.195,1.8Z" transform="translate(-7.8 0.001)"/><path class="k" d="M243.346,170.494a.615.615,0,0,0,.615-.615v-1.019a3.6,3.6,0,0,0,2.95-2.978,3.151,3.151,0,0,0-2.172-3.605c-.281-.1-.54-.195-.78-.286v-3.918a2.521,2.521,0,0,1,1.2.524.615.615,0,0,0,.83-.906,3.807,3.807,0,0,0-2.017-.859v-.874a.615.615,0,1,0-1.229,0v.923a4.516,4.516,0,0,0-.455.111,2.972,2.972,0,0,0-2.034,2.331,2.6,2.6,0,0,0,.84,2.561,7.441,7.441,0,0,0,1.646.929v4.859a3.262,3.262,0,0,1-1.911-.662.615.615,0,0,0-.672,1.029,4.5,4.5,0,0,0,2.583.862v.975a.615.615,0,0,0,.61.617Zm-1.5-9.58a1.385,1.385,0,0,1-.395-1.366,1.758,1.758,0,0,1,1.176-1.383l.1-.029v3.318a5.183,5.183,0,0,1-.882-.533Zm2.484,2.521a1.933,1.933,0,0,1,1.368,2.242,2.393,2.393,0,0,1-1.738,1.926v-4.3Z" transform="translate(-220.859 -142.619)"/></g></g><text class="x" transform="translate(-12432.843 2317.495)"><tspan x="0" y="0">Recent</tspan></text><circle class="y" cx="18.289" cy="18.289" r="18.289" transform="translate(-12422.084 2139.891)"/><circle class="y" cx="18.289" cy="18.289" r="18.289" transform="translate(-12436.07 2331.391)"/><circle class="y" cx="18.289" cy="18.289" r="18.289" transform="translate(-12436.07 2393.79)"/><circle class="y" cx="18.289" cy="18.289" r="18.289" transform="translate(-12368.292 2139.891)"/><circle class="y" cx="18.289" cy="18.289" r="18.289" transform="translate(-12377.975 2331.391)"/><circle class="y" cx="18.289" cy="18.289" r="18.289" transform="translate(-12377.975 2393.79)"/><circle class="y" cx="18.289" cy="18.289" r="18.289" transform="translate(-12314.5 2139.891)"/><circle class="y" cx="18.289" cy="18.289" r="18.289" transform="translate(-12319.879 2331.391)"/><circle class="y" cx="18.289" cy="18.289" r="18.289" transform="translate(-12319.879 2393.79)"/><circle class="y" cx="18.289" cy="18.289" r="18.289" transform="translate(-12260.708 2139.891)"/><circle class="y" cx="18.289" cy="18.289" r="18.289" transform="translate(-12262.859 2331.391)"/><circle class="y" cx="18.289" cy="18.289" r="18.289" transform="translate(-12262.859 2393.79)"/><circle class="y" cx="18.289" cy="18.289" r="18.289" transform="translate(-12204.764 2331.391)"/><circle class="y" cx="18.289" cy="18.289" r="18.289" transform="translate(-12204.764 2393.79)"/><rect class="z" width="36.579" height="3.228" rx="1.614" transform="translate(-12436.07 2375.5)"/><rect class="z" width="36.579" height="3.228" rx="1.614" transform="translate(-12377.975 2375.5)"/><rect class="z" width="36.579" height="3.228" rx="1.614" transform="translate(-12319.879 2375.5)"/><rect class="z" width="36.579" height="3.228" rx="1.614" transform="translate(-12262.859 2375.5)"/><rect class="z" width="36.579" height="3.228" rx="1.614" transform="translate(-12204.764 2375.5)"/></g><g class="aa" transform="translate(1626.527 1345.901)"><ellipse class="ab" cx="2.478" cy="2.478" rx="2.478" ry="2.478" transform="translate(44.289)"/><path class="ab" d="M20.332,97.933h0a2.478,2.478,0,1,1-2.478,2.478A2.477,2.477,0,0,1,20.332,97.933Z" transform="translate(26.435 -77.178)"/><path class="ab" d="M20.332,103.21h0a2.478,2.478,0,1,1-2.478,2.478A2.477,2.477,0,0,1,20.332,103.21Z" transform="translate(26.435 -61.703)"/><ellipse class="ab" cx="2.478" cy="2.478" rx="2.478" ry="2.478" transform="translate(44.289 62.261)"/><ellipse class="ab" cx="2.478" cy="2.478" rx="2.478" ry="2.478" transform="translate(44.289 83.013)"/><ellipse class="ab" cx="2.478" cy="2.478" rx="2.478" ry="2.478" transform="translate(44.289 103.766)"/><ellipse class="ab" cx="2.478" cy="2.478" rx="2.478" ry="2.478" transform="translate(44.289 124.52)"/><ellipse class="ab" cx="2.478" cy="2.478" rx="2.478" ry="2.478" transform="translate(22.145)"/><path class="ab" d="M25.962,97.933h0a2.48,2.48,0,1,1-2.481,2.478A2.478,2.478,0,0,1,25.965,97.933Z" transform="translate(-1.339 -77.178)"/><path class="ab" d="M25.962,103.21h0a2.48,2.48,0,1,1-2.481,2.478A2.478,2.478,0,0,1,25.965,103.21Z" transform="translate(-1.339 -61.703)"/><ellipse class="ab" cx="2.478" cy="2.478" rx="2.478" ry="2.478" transform="translate(22.145 62.261)"/><ellipse class="ab" cx="2.478" cy="2.478" rx="2.478" ry="2.478" transform="translate(22.145 83.013)"/><ellipse class="ab" cx="2.478" cy="2.478" rx="2.478" ry="2.478" transform="translate(22.145 103.766)"/><ellipse class="ab" cx="2.478" cy="2.478" rx="2.478" ry="2.478" transform="translate(22.145 124.52)"/><ellipse class="ab" cx="2.478" cy="2.478" rx="2.478" ry="2.478" transform="translate(0.001)"/><path class="ab" d="M31.6,97.933a2.48,2.48,0,1,1-2.481,2.478A2.478,2.478,0,0,1,31.6,97.933Z" transform="translate(-29.115 -77.178)"/><path class="ab" d="M31.6,103.21a2.48,2.48,0,1,1-2.481,2.478A2.478,2.478,0,0,1,31.6,103.21Z" transform="translate(-29.115 -61.703)"/><ellipse class="ab" cx="2.478" cy="2.478" rx="2.478" ry="2.478" transform="translate(0.001 62.261)"/><ellipse class="ab" cx="2.478" cy="2.478" rx="2.478" ry="2.478" transform="translate(0.001 83.013)"/><ellipse class="ab" cx="2.478" cy="2.478" rx="2.478" ry="2.478" transform="translate(0.001 103.766)"/><ellipse class="ab" cx="2.478" cy="2.478" rx="2.478" ry="2.478" transform="translate(0.001 124.52)"/></g><g transform="translate(1515.837 1393.269)"><g transform="translate(0)"><g transform="translate(44.5)"><path class="ac" d="M43.937,254.569c-8.884-17.771-12.765-62.493.7-81.362,1.109-12.01,13.178-57.625,34.835-68.762V299.621C43.662,296.29,39.493,257.063,43.937,254.569Z" transform="translate(-35.864 -104.446)"/><path class="ad" d="M60.307,254.569c8.884-17.771,12.769-62.493-.7-81.362C58.5,161.2,46.429,115.583,24.776,104.446V299.621C60.586,296.29,64.747,257.063,60.307,254.569Z" transform="translate(18.832 -104.446)"/></g><g transform="translate(0 57.864)"><path class="ac" d="M68.466,235.089C57.015,225.2,41.182,194.91,45.115,177.7c-2.737-8.762-7.621-44.364,4.334-58.537l57.2,137.189C80.5,264.505,66.079,238.153,68.466,235.089Z" transform="translate(-41.77 -119.16)"/><path class="ad" d="M106.561,214.262c1.034-15.093-9.336-47.663-24.331-56.984-4.3-8.117-26.16-36.64-44.639-38.119l57.2,137.189C118.984,243.517,110.415,214.722,106.561,214.262Z" transform="translate(-29.913 -119.16)"/></g><g transform="translate(92.67 84.74)"><path class="ac" d="M22.52,200.478c-.063-12.447,10.17-38.654,22.966-45.516,3.956-6.438,23.4-28.72,38.65-28.968L29.977,235.651C10.785,223.841,19.323,200.647,22.52,200.478Z" transform="translate(-17.848 -125.994)"/><path class="ad" d="M49.073,220.2C59,212.68,73.589,188.633,71.261,174.294c2.706-7.059,8.581-36.034-.5-48.3L16.609,235.651C37.649,243.717,50.878,222.834,49.073,220.2Z" transform="translate(-4.481 -125.994)"/></g></g><path class="ae" d="M21.918,149.285H140.474l-17.956,84.162h-82.6Z" transform="translate(2.478 27.049)"/><rect class="af" width="104.909" height="15.236" transform="translate(31.22 228.552)"/><g transform="translate(37.22 243.786)"><path class="af" d="M25.179,166.437H41.413v55.619H31.282Z" transform="translate(51.495 -166.437)"/><path class="ag" d="M41.413,166.437H25.179l1.164,10.591,15.07,4.833Z" transform="translate(51.495 -166.437)"/><path class="af" d="M60.91,166.437H44.676v55.619h10.13Z" transform="translate(-44.676 -166.437)"/><path class="ag" d="M44.676,166.437H60.91l-1.164,10.591-15.07,4.833Z" transform="translate(-44.676 -166.437)"/></g></g></g></svg>