<svg xmlns="http://www.w3.org/2000/svg" width="23.267" height="17.45" viewBox="0 0 23.267 17.45"><defs><style>.a{fill:#999;}</style></defs><path class="a" d="M14.522,24.921,15.843,23.6a4.347,4.347,0,0,1-5.336,5.336l1.321-1.321A2.9,2.9,0,0,0,14.522,24.921Zm8.653-.549A15.228,15.228,0,0,0,19.338,20.1L18.28,21.163a14.552,14.552,0,0,1,3.4,3.563c-.862,1.312-4.242,5.816-10.051,5.816a10.684,10.684,0,0,1-2.443-.289L8,31.447A12.316,12.316,0,0,0,11.633,32c7.611,0,11.385-6.635,11.542-6.918a.727.727,0,0,0,0-.706Zm-3.03-7.131-16,16a.727.727,0,1,1-1.028-1.028l2.035-2.035a15.257,15.257,0,0,1-5.065-5.1.727.727,0,0,1,0-.707c.157-.282,3.93-6.917,11.542-6.917a12.244,12.244,0,0,1,5.13,1.113l2.354-2.354a.727.727,0,0,1,1.028,1.028ZM6.241,29.089l1.841-1.841a4.356,4.356,0,0,1,6.076-6.076l1.489-1.489a10.706,10.706,0,0,0-4.012-.776c-5.809,0-9.189,4.5-10.051,5.816a14.276,14.276,0,0,0,4.658,4.366Zm2.9-2.9L13.1,22.229a2.876,2.876,0,0,0-1.468-.412,2.912,2.912,0,0,0-2.908,2.908,2.876,2.876,0,0,0,.412,1.468Z" transform="translate(0 -16)"/></svg>