<svg xmlns="http://www.w3.org/2000/svg" width="16.913" height="17.925" viewBox="0 0 16.913 17.925"><defs><style>.a{fill:#fff;}</style></defs><g transform="translate(0 0)"><g transform="translate(0)"><path class="a" d="M26.728.456a.574.574,0,0,0-1.134.077c-.041.568-.838,1.715-5.715,3.022l-.29.078a17.065,17.065,0,0,0-2.935.965,3.714,3.714,0,0,0-2.109,4.318,3.715,3.715,0,0,0,3.668,3.1,11.962,11.962,0,0,0,2.057-.147,31.929,31.929,0,0,1-.287,3.577c-.149.918-.322,1.464-1.456,1.3-.294-.042-.586-.167-.519-.771.024-.217.051-.43.077-.641a14.125,14.125,0,0,0,.157-2.554.574.574,0,1,0-1.145.059,13.221,13.221,0,0,1-.15,2.355c-.026.215-.053.432-.078.654a1.71,1.71,0,0,0,1.5,2.034,3.669,3.669,0,0,0,.524.039,2.27,2.27,0,0,0,2.228-2.291,33.375,33.375,0,0,0,.306-3.933l.172-.027a24.7,24.7,0,0,1,3.577-.332c2.124,0,2.706.5,2.864.8a.573.573,0,0,0,.507.306h.011a.574.574,0,0,0,.533-.773ZM25.169,10.2a25.764,25.764,0,0,0-3.758.346l-.274.043a16.311,16.311,0,0,1-2.866.29,2.584,2.584,0,0,1-2.6-2.2,2.584,2.584,0,0,1,1.5-3.057,16.465,16.465,0,0,1,2.716-.881l.291-.078c1.991-.533,4.467-1.322,5.734-2.514l1.761,8.382A7.683,7.683,0,0,0,25.169,10.2Z" transform="translate(-14.445 0)"/><path class="a" d="M426.444,142.4a.573.573,0,0,0,.679.443l1.237-.26a.574.574,0,1,0-.236-1.123l-1.236.26A.574.574,0,0,0,426.444,142.4Z" transform="translate(-412.008 -136.495)"/><path class="a" d="M413.651,87.494a.568.568,0,0,0,.267-.067l.964-.51a.574.574,0,1,0-.536-1.014l-.964.51a.574.574,0,0,0,.268,1.081Z" transform="translate(-399.121 -82.832)"/><path class="a" d="M435.4,198.719l-1.088-.078a.574.574,0,1,0-.082,1.144l1.088.078.042,0a.574.574,0,0,0,.04-1.146Z" transform="translate(-419.023 -191.685)"/><path class="a" d="M81.316,65.276a.582.582,0,0,0,.153-.021l1.552-.43a.574.574,0,1,0-.306-1.106l-1.552.43a.574.574,0,0,0,.153,1.127Z" transform="translate(-78.422 -61.469)"/></g></g></svg>