<svg xmlns="http://www.w3.org/2000/svg" width="19.913" height="17.922" viewBox="0 0 19.913 17.922"><defs><style>.a{opacity:0.4;}.b{fill:#222;}</style></defs><g class="a" transform="translate(47.521 37.53) rotate(180)"><g transform="translate(27.608 19.608)"><path class="b" d="M193.7,112.29a1,1,0,0,0-1.408,1.408l7.261,7.261-7.261,7.261a1,1,0,1,0,1.408,1.408l7.965-7.965a1,1,0,0,0,0-1.408Z" transform="translate(-182.042 -111.998)"/><path class="b" d="M121.663,120.255,113.7,112.29a1,1,0,0,0-1.408,1.408l7.261,7.261-7.261,7.261a1,1,0,1,0,1.408,1.408l7.965-7.965A1,1,0,0,0,121.663,120.255Z" transform="translate(-111.998 -111.998)"/></g></g></svg>