<svg xmlns="http://www.w3.org/2000/svg" width="41" height="41" viewBox="0 0 41 41"><defs><style>.a{fill:none;stroke:#999;}.b{fill:#666;}</style></defs><g transform="translate(-1609.5 -2318.5)"><circle class="a" cx="20" cy="20" r="20" transform="translate(1610 2319)"/><path class="b" d="M.7,5.823H4.136V16.146H.7V5.823ZM2.438.854A1.791,1.791,0,0,0,.5,2.636,1.773,1.773,0,0,0,2.4,4.417h.021A1.787,1.787,0,1,0,2.438.854ZM12.552,5.583A3.388,3.388,0,0,0,9.458,7.292V5.823H6.031s.042.969,0,10.323H9.458V10.385a2.614,2.614,0,0,1,.114-.843,1.879,1.879,0,0,1,1.762-1.25c1.238,0,1.738.948,1.738,2.333v5.521H16.5V10.229C16.5,7.062,14.812,5.583,12.552,5.583Z" transform="translate(1621.5 2330.146)"/></g></svg>