<svg xmlns="http://www.w3.org/2000/svg" width="18" height="18" viewBox="0 0 18 18"><defs><style>.a{fill:#003844;}</style></defs><g transform="translate(-233 -233)"><g transform="translate(233 234.87)"><g transform="translate(0 0)"><path class="a" d="M242,253.908a9.016,9.016,0,0,1-5.69-16,.578.578,0,0,1,.726.9,7.848,7.848,0,1,0,12.8,6.1,7.692,7.692,0,0,0-2.9-6.067.578.578,0,1,1,.726-.9A8.906,8.906,0,0,1,251,244.909,9.008,9.008,0,0,1,242,253.908Z" transform="translate(-233 -237.778)"/></g></g><g transform="translate(241.419 233)"><path class="a" d="M255.1,242.581a.582.582,0,0,1-.581-.581v-8.419a.581.581,0,0,1,1.161,0V242A.582.582,0,0,1,255.1,242.581Z" transform="translate(-254.516 -233)"/></g></g></svg>