<svg xmlns="http://www.w3.org/2000/svg" width="58.534" height="58.535" viewBox="0 0 58.534 58.535"><defs><style>.a{fill:#fff;}.b{fill:#5caebf;}</style></defs><g transform="translate(-0.001 0)"><path class="a" d="M155.89,170.952a12.606,12.606,0,1,0-12.606-12.606A12.62,12.62,0,0,0,155.89,170.952Zm0-23.5A10.891,10.891,0,1,1,145,158.347,10.9,10.9,0,0,1,155.89,147.456Z" transform="translate(-126.902 -129.079)"/><path class="b" d="M224.838,208.531a4.1,4.1,0,0,0,2.023.76v.5a.857.857,0,1,0,1.715,0v-.585a3.427,3.427,0,0,0,2.481-2.726,3.017,3.017,0,0,0-2.051-3.414c-.142-.05-.286-.1-.43-.155v-2.7a3.224,3.224,0,0,1,.9.334.857.857,0,0,0,.91-1.453,4.926,4.926,0,0,0-1.814-.62v-.409a.857.857,0,1,0-1.715,0v.507c-.047.012-.095.025-.142.039a2.842,2.842,0,0,0-1.949,2.227,2.527,2.527,0,0,0,.836,2.488,6.187,6.187,0,0,0,1.256.736v3.5a2.546,2.546,0,0,1-1.084-.471.857.857,0,1,0-.939,1.435Zm4.527-2.331a1.714,1.714,0,0,1-.79,1.17v-2.625a1.276,1.276,0,0,1,.79,1.455Zm-2.7-4.22a.849.849,0,0,1-.209-.821,1.238,1.238,0,0,1,.406-.713v1.674C226.791,202.074,226.725,202.028,226.664,201.98Z" transform="translate(-198.789 -174.664)"/><path class="a" d="M368.39,90.853a.857.857,0,1,0-1.34,1.07L367.91,93h-5.453a.857.857,0,1,0,0,1.715h5.453l-.86,1.076a.857.857,0,0,0,1.34,1.07l1.973-2.469a.857.857,0,0,0,0-1.07Z" transform="translate(-320.259 -80.181)"/><path class="a" d="M74.274,369.609a.857.857,0,1,0,1.34-1.07l-.86-1.076h5.453a.857.857,0,1,0,0-1.715H74.754l.86-1.076a.857.857,0,0,0-1.34-1.07L72.3,366.07a.857.857,0,0,0,0,1.071Z" transform="translate(-63.869 -321.747)"/><path class="b" d="M6.8,406.653H24.657a.857.857,0,0,0,0-1.715H7.089v-2.1a.857.857,0,0,0-1.467-.6L.249,407.664a.858.858,0,0,0,0,1.206L5.622,414.3a.857.857,0,0,0,1.467-.6v-2.1H24.657a.857.857,0,0,0,0-1.715H6.8a1.425,1.425,0,0,0-1.424,1.424v.308l-3.31-3.346,3.31-3.346v.308A1.425,1.425,0,0,0,6.8,406.653Z" transform="translate(0 -356.022)"/><path class="a" d="M123.349,109a16.808,16.808,0,0,0-13.913,26.235.857.857,0,1,0,1.419-.963,15.105,15.105,0,1,1,2.107,2.482A.857.857,0,1,0,111.781,138a16.806,16.806,0,1,0,11.568-29Z" transform="translate(-94.362 -96.539)"/><path class="b" d="M314.1,5.686,308.723.254a.858.858,0,0,0-1.467.6v2.1H303.3a.857.857,0,1,0,0,1.715h4.246a1.425,1.425,0,0,0,1.423-1.423V2.943l3.31,3.346-3.31,3.346V9.327A1.425,1.425,0,0,0,307.548,7.9H289.688a.857.857,0,1,0,0,1.715h17.568v2.1a.858.858,0,0,0,1.467.6L314.1,6.892A.858.858,0,0,0,314.1,5.686Z" transform="translate(-255.81)"/><path class="b" d="M289.688,27.6h10.185a.857.857,0,1,0,0-1.715H289.688a.857.857,0,1,0,0,1.715Z" transform="translate(-255.81 -22.93)"/></g></svg>