<svg xmlns="http://www.w3.org/2000/svg" width="19.076" height="22.555" viewBox="0 0 19.076 22.555"><defs><style>.a{fill:#4285f4;}</style></defs><g transform="translate(-5.006 -3)"><path class="a" d="M24.019,21.755a.847.847,0,0,0-.186-.284A8.071,8.071,0,0,1,21.486,15.8V14.278a.868.868,0,1,0-1.735,0V15.8A9.821,9.821,0,0,0,21.4,21.218H7.7A9.685,9.685,0,0,0,9.341,15.8V11.675a5.206,5.206,0,0,1,10.194-1.488A.867.867,0,0,0,21.2,9.693,6.875,6.875,0,0,0,15.413,4.8V3.868a.868.868,0,0,0-1.735,0v.927a6.947,6.947,0,0,0-6.073,6.88V15.8a7.966,7.966,0,0,1-2.347,5.668.868.868,0,0,0,.612,1.482H11.2a3.453,3.453,0,0,0,6.694,0h5.328a.875.875,0,0,0,.8-1.2ZM14.546,23.82a1.729,1.729,0,0,1-1.494-.868h2.987A1.727,1.727,0,0,1,14.546,23.82Z" transform="translate(0)"/></g></svg>