<svg xmlns="http://www.w3.org/2000/svg" width="126.195" height="126.195" viewBox="0 0 126.195 126.195"><defs><style>.a,.b{fill:#3bb54a;}.a{opacity:0.1;}.c{fill:#fff;}</style></defs><g transform="translate(-897 -266)"><path class="a" d="M63.1,0A63.1,63.1,0,1,1,0,63.1H0A62.918,62.918,0,0,1,62.739,0Z" transform="translate(897 266)"/><path class="a" d="M54.431,0A54.43,54.43,0,1,1,0,54.431H0A54.275,54.275,0,0,1,54.121,0Z" transform="translate(905 274)"/><g transform="translate(913 282)"><path class="b" d="M47.236,0A47.235,47.235,0,1,1,0,47.236H0A47.1,47.1,0,0,1,46.967,0Z" transform="translate(0 0)"/><path class="c" d="M134.359,111.483,100.812,145.03,82.025,126.378l7.649-7.515,11.138,11,25.9-25.9Z" transform="translate(-60.957 -77.264)"/></g></g></svg>