<svg xmlns="http://www.w3.org/2000/svg" width="24.116" height="20.713" viewBox="0 0 24.116 20.713"><defs><style>.a{fill:#003844;stroke:#003844;stroke-width:0.2px;}</style></defs><g transform="translate(0.101 0.101)"><path class="a" d="M2.34,16.235H13.017a4.953,4.953,0,0,0,.286.575l-.662.8a.344.344,0,0,0,.022.461l1.221,1.22a.34.34,0,0,0,.458.022l.8-.663a5.091,5.091,0,0,0,1.231.52l.1,1.036a.337.337,0,0,0,.339.3h1.731a.337.337,0,0,0,.339-.3l.1-1.038a4.92,4.92,0,0,0,1.233-.517l.8.663a.34.34,0,0,0,.457-.021l1.221-1.218a.34.34,0,0,0,.021-.458l-.663-.8a5.108,5.108,0,0,0,.52-1.23l1.033-.1a.343.343,0,0,0,.31-.339V13.422a.335.335,0,0,0-.3-.339l-.574-.056V2.326A2.347,2.347,0,0,0,20.687,0H2.34A2.336,2.336,0,0,0,0,2.326v11.6A2.323,2.323,0,0,0,2.34,16.235Zm20.894-1.393-.965.094a.342.342,0,0,0-.3.265,4.438,4.438,0,0,1-.619,1.462.34.34,0,0,0,.023.4l.621.749-.782.781-.75-.621a.34.34,0,0,0-.405-.022,4.258,4.258,0,0,1-1.46.614.336.336,0,0,0-.267.3l-.094.97H17.122l-.094-.97a.338.338,0,0,0-.268-.3,4.415,4.415,0,0,1-1.463-.615.34.34,0,0,0-.4.025l-.75.622-.782-.781.621-.749a.34.34,0,0,0,.021-.405A4.258,4.258,0,0,1,13.39,15.2a.347.347,0,0,0-.306-.266l-.982-.094v-1.11l.982-.095a.343.343,0,0,0,.3-.265,4.441,4.441,0,0,1,.62-1.462.34.34,0,0,0-.022-.4l-.621-.749.783-.781.75.622a.34.34,0,0,0,.405.022,4.257,4.257,0,0,1,1.46-.614.331.331,0,0,0,.267-.292l.094-.966h1.112l.094.966a.336.336,0,0,0,.268.3,4.4,4.4,0,0,1,1.463.614.341.341,0,0,0,.4-.025l.748-.621.771.778-.622.751a.34.34,0,0,0-.021.405,4.26,4.26,0,0,1,.616,1.458.34.34,0,0,0,.3.266l.335.032a.336.336,0,0,0,.094.013l.033,0,.52.05ZM.68,4.18h21.68V7.145H.68Zm21.378,7.572.3-.364v.963C22.262,12.144,22.172,11.945,22.058,11.752ZM2.34.68H20.687a1.666,1.666,0,0,1,1.673,1.646V3.5H.68V2.326A1.655,1.655,0,0,1,2.34.68ZM.68,7.826h21.68v2.328l-.876-.876a.346.346,0,0,0-.464-.023l-.8.664A5.1,5.1,0,0,0,18.984,9.4l-.1-1.032a.334.334,0,0,0-.34-.3H16.813a.333.333,0,0,0-.339.3l-.1,1.036a4.914,4.914,0,0,0-1.233.516l-.8-.663a.34.34,0,0,0-.458.021L12.663,10.5a.34.34,0,0,0-.022.458l.663.8a5.111,5.111,0,0,0-.52,1.229l-1.05.1a.345.345,0,0,0-.313.339V15.15a.335.335,0,0,0,.313.328l.915.077H2.34A1.642,1.642,0,0,1,.68,13.923Zm0,0" transform="translate(0 0)"/><path class="a" d="M63.478,210.906a1.814,1.814,0,0,0,1.745-1.327,1.811,1.811,0,1,0,0-.967,1.811,1.811,0,1,0-1.745,2.294Zm3.49-2.941a1.13,1.13,0,1,1-1.131,1.13,1.13,1.13,0,0,1,1.131-1.13Zm-3.49,0a1.13,1.13,0,1,1-1.13,1.13,1.13,1.13,0,0,1,1.13-1.13Zm0,0" transform="translate(-58.67 -197.208)"/><path class="a" d="M296.5,223.313a3.432,3.432,0,1,0,3.436,3.432A3.432,3.432,0,0,0,296.5,223.313Zm0,6.183a2.751,2.751,0,1,1,2.756-2.751A2.751,2.751,0,0,1,296.5,229.5Zm0,0" transform="translate(-278.825 -212.459)"/></g></svg>