<svg xmlns="http://www.w3.org/2000/svg" width="8.856" height="8.856" viewBox="0 0 8.856 8.856"><defs><style>.a{fill:#4183f2;}</style></defs><g transform="translate(0 0)"><g transform="translate(0 0)"><path class="a" d="M8.58,1.078l-.8-.8a.941.941,0,0,0-1.33,0L.477,6.246a.264.264,0,0,0-.072.136L0,8.549a.259.259,0,0,0,.3.3l2.167-.4a.264.264,0,0,0,.136-.072L8.58,2.408A.94.94,0,0,0,8.58,1.078Zm-8,7.195L.826,6.962,1.894,8.03Zm1.843-.444-1.4-1.4L6.134,1.323l1.4,1.4ZM8.213,2.041,7.9,2.355,6.5.956,6.815.642a.422.422,0,0,1,.6,0l.8.8A.421.421,0,0,1,8.213,2.041Z" transform="translate(0 0)"/></g></g></svg>