<svg xmlns="http://www.w3.org/2000/svg" width="67.122" height="57.923" viewBox="0 0 67.122 57.923"><defs><style>.a{fill:#fff;stroke:#fff;stroke-width:0.6px;}</style></defs><g transform="translate(0.3 0.3)"><g transform="translate(54.137 13.305)"><path class="a" d="M419.79,137.8a3.118,3.118,0,1,0,3.118,3.118A3.122,3.122,0,0,0,419.79,137.8Zm0,4.158a1.039,1.039,0,1,1,1.039-1.039A1.04,1.04,0,0,1,419.79,141.963Z" transform="translate(-416.672 -137.805)"/></g><g transform="translate(0 0)"><path class="a" d="M58.99,42.565H50.252a2.546,2.546,0,0,1-2.543-2.543A4.627,4.627,0,0,0,43.087,35.4H23.435a4.627,4.627,0,0,0-4.622,4.622,2.546,2.546,0,0,1-2.543,2.543H7.532A7.541,7.541,0,0,0,0,50.1V77.427a1.039,1.039,0,0,0,2.079,0V50.1a5.459,5.459,0,0,1,5.453-5.453H16.27a4.627,4.627,0,0,0,4.622-4.622,2.546,2.546,0,0,1,2.543-2.543H43.087a2.546,2.546,0,0,1,2.543,2.543,4.627,4.627,0,0,0,4.622,4.622H58.99A5.459,5.459,0,0,1,64.443,50.1V85.191a5.459,5.459,0,0,1-5.453,5.453H7.532a5.459,5.459,0,0,1-5.453-5.453,1.039,1.039,0,1,0-2.079,0,7.54,7.54,0,0,0,7.532,7.532H58.99a7.541,7.541,0,0,0,7.532-7.532V50.1A7.541,7.541,0,0,0,58.99,42.565Z" transform="translate(0 -35.4)"/></g><g transform="translate(18.862 17.75)"><path class="a" d="M172.376,179.821a1.039,1.039,0,1,0-1.847.953,12.184,12.184,0,0,1,1.364,5.64,12.32,12.32,0,1,1-4.079-9.158,1.039,1.039,0,0,0,1.391-1.545,14.372,14.372,0,1,0,3.171,4.109Z" transform="translate(-145.172 -172.015)"/></g><g transform="translate(7.113 3.174)"><path class="a" d="M60.058,59.832H55.785a1.039,1.039,0,1,0,0,2.079h4.273a1.039,1.039,0,1,0,0-2.079Z" transform="translate(-54.746 -59.832)"/></g></g></svg>