<svg xmlns="http://www.w3.org/2000/svg" width="234" height="72" viewBox="0 0 234 72"><defs><style>.a{fill:#fff;opacity:0.9;}.b{font-size:12px;font-family:SFProDisplay-Bold, SF Pro Display;font-weight:700;letter-spacing:0.08em;}.b,.c,.d{opacity:0.84;}.c{font-size:26px;font-family:SFProDisplay-Regular, SF Pro Display;}</style></defs><path class="a" d="M36,0H198a36,36,0,0,1,0,72H36A36,36,0,0,1,36,0Z" transform="translate(0 0)"/><text class="b" transform="translate(70 25)"><tspan x="0" y="0">Download on</tspan></text><text class="c" transform="translate(70 53)"><tspan x="0" y="0">Google play</tspan></text><path class="d" d="M0,33.538V2.466A2.745,2.745,0,0,1,1.522,0L19.273,18,1.514,36A2.744,2.744,0,0,1,0,33.538Zm20.8-13.99,4.1,4.159L5.5,35.067ZM22.333,18l4.509-4.571,4.1,2.4a2.765,2.765,0,0,1,.03,4.334l-4.123,2.414ZM5.506.938,24.9,12.29l-4.1,4.155Z" transform="translate(23 18)"/></svg>