<svg xmlns="http://www.w3.org/2000/svg" width="174.999" height="175" viewBox="0 0 174.999 175"><defs><style>.a{fill:#333;}</style></defs><g transform="translate(-18 -18)"><g transform="translate(18 18)"><path class="a" d="M40,43.5v28A3.5,3.5,0,0,0,43.5,75h28A3.5,3.5,0,0,0,75,71.5v-28A3.5,3.5,0,0,0,71.5,40h-28A3.5,3.5,0,0,0,40,43.5ZM47,47H68V68H47Z" transform="translate(-40 -40)"/><path class="a" d="M363.5,75h28a3.5,3.5,0,0,0,3.5-3.5v-28a3.5,3.5,0,0,0-3.5-3.5h-28a3.5,3.5,0,0,0-3.5,3.5v28A3.5,3.5,0,0,0,363.5,75ZM367,47h21V68H367Z" transform="translate(-220.001 -40)"/><path class="a" d="M71.5,360h-28a3.5,3.5,0,0,0-3.5,3.5v28a3.5,3.5,0,0,0,3.5,3.5h28a3.5,3.5,0,0,0,3.5-3.5v-28A3.5,3.5,0,0,0,71.5,360ZM68,388H47V367H68Z" transform="translate(-40 -220.001)"/><rect class="a" transform="translate(18 18)"/><rect class="a" transform="translate(157 18)"/><rect class="a" transform="translate(18 157)"/><rect class="a" width="10" transform="translate(30 18)"/><rect class="a" width="9" transform="translate(88 18)"/><path class="a" d="M280,72V86h14V79h-7V72Z" transform="translate(-175.001 -58)"/><path class="a" d="M159,54v7h7V47h56v7h7V40H152v7h7Z" transform="translate(-103 -40)"/><rect class="a" width="10" height="12" transform="translate(30 18)"/><rect class="a" width="12" height="10" transform="translate(40 30)"/><path class="a" d="M168,86v7h7v7h14V86h3.5V79H196V72H182v7h3.5v7Z" transform="translate(-112 -58)"/><rect class="a" transform="translate(88 30)"/><path class="a" d="M320,182h7v-7h7v-7H320Z" transform="translate(-197.501 -112)"/><rect class="a" width="9" height="12" transform="translate(88 18)"/><path class="a" d="M182,358v-7h-7v-7h-7v14Z" transform="translate(-112 -211)"/><rect class="a" width="10" transform="translate(135 18)"/><rect class="a" width="22" height="10" transform="translate(123 30)"/><path class="a" d="M40,283h7V255h7v-7H40Z" transform="translate(-40 -157)"/><rect class="a" width="25" height="10" transform="translate(5 30)"/><path class="a" d="M54,168H40v21h7v-7h7Z" transform="translate(-40 -112)"/><path class="a" d="M182,194v-7h7V173h7v-7h7v-7h-7v-7h-7v14h-7v-7H168v14h7v21Z" transform="translate(-112 -103)"/><path class="a" d="M136,413h7v-7h10.5v7h7v-7H164v-7H143v-7h-7Z" transform="translate(-94 -238)"/><path class="a" d="M286,236v-7h7v-7h7V208H279v14h-7v7h7v7Z" transform="translate(-170.501 -134.5)"/><path class="a" d="M271,158h7v-7h-7v-7h-7v21h7Z" transform="translate(-166 -98.5)"/><rect class="a" width="12" height="13" transform="translate(18 52)"/><rect class="a" width="10" height="13" transform="translate(30 52)"/><rect class="a" height="9" transform="translate(18 88)"/><rect class="a" width="10" height="13" transform="translate(30 97)"/><rect class="a" width="12" height="9" transform="translate(40 88)"/><rect class="a" width="12" transform="translate(40 157)"/><rect class="a" height="10" transform="translate(18 78)"/><rect class="a" width="12" height="13" transform="translate(18 65)"/><rect class="a" height="10" transform="translate(30 78)"/><rect class="a" width="9" height="13" transform="translate(88 65)"/><rect class="a" height="10" transform="translate(88 78)"/><rect class="a" width="13" height="13" transform="translate(97 97)"/><rect class="a" width="12" height="9" transform="translate(145 88)"/><rect class="a" height="13" transform="translate(157 97)"/><rect class="a" width="10" height="13" transform="translate(78 97)"/><path class="a" d="M189,264H175v7h-7v7h14v-7h7Z" transform="translate(-112 -166)"/><path class="a" d="M223,415h-7v7h14v-7h7v-7H223Z" transform="translate(-139.001 -247.001)"/><path class="a" d="M303,408v7h-7v7h14v-7h7v-7Z" transform="translate(-184 -247.001)"/><path class="a" d="M366,150v-7h7v-7H359v7h-7v7Z" transform="translate(-215.5 -94)"/><rect class="a" width="9" height="12" transform="translate(88 123)"/><rect class="a" width="9" transform="translate(88 145)"/><rect class="a" width="10" transform="translate(78 157)"/><path class="a" d="M215,311v-7h-7v14h7Z" transform="translate(-134.5 -188.5)"/><rect class="a" width="13" height="12" transform="translate(97 145)"/><path class="a" d="M358,415H344v7h21V408h-7Z" transform="translate(-211 -247.001)"/><rect class="a" transform="translate(157 157)"/><rect class="a" transform="translate(145 157)"/><rect class="a" width="12" transform="translate(123 157)"/><rect class="a" width="10" height="12" transform="translate(135 145)"/><rect class="a" height="13" transform="translate(110 157)"/><rect class="a" width="10" transform="translate(30 88)"/><path class="a" d="M415,413h7V392H408v7h7Z" transform="translate(-247.001 -238)"/><rect class="a" width="13" height="12" transform="translate(157 145)"/><path class="a" d="M422,296h-7v14h-7v7h14Z" transform="translate(-247.001 -184)"/><rect class="a" height="13" transform="translate(170 97)"/><path class="a" d="M395,136h-7v31.5H374v-7H360v14h28V185h7Z" transform="translate(-220.001 -94)"/><path class="a" d="M284,316V302h-7V288H256v14h7v14Z" transform="translate(-161.5 -179.5)"/><path class="a" d="M100,280H72v28H86v-7H79v-7H93v21h7v-7h14v-7h-7v-7h7v-7H100Z" transform="translate(-58 -175.001)"/><path class="a" d="M372,287H358v-7H344v14h7v21h7v-7h7V294h7Z" transform="translate(-211 -175.001)"/></g></g></svg>