<svg xmlns="http://www.w3.org/2000/svg" width="19.009" height="19.008" viewBox="0 0 19.009 19.008"><defs><style>.a{fill:#003844;}.b{fill:none;stroke:#003844;stroke-width:0.8px;}</style></defs><g transform="translate(-933.058 -830.058)"><g transform="translate(939.669 834.411)"><path class="a" d="M17.823,20.9a.565.565,0,0,1-.565-.565v-.3a3.57,3.57,0,0,1,1.565-2.852,1.694,1.694,0,1,0-2.694-1.367.565.565,0,1,1-1.129,0A2.823,2.823,0,1,1,19.491,18.1a2.478,2.478,0,0,0-1.1,1.941v.3a.565.565,0,0,1-.565.565Z" transform="translate(-15 -13)"/><path class="a" d="M17.565,22.129A.579.579,0,0,1,17,21.564a.458.458,0,0,1,.045-.215.4.4,0,0,1,.124-.181.39.39,0,0,1,.181-.123.56.56,0,0,1,.61.123.53.53,0,0,1,.169.4.481.481,0,0,1-.045.213.4.4,0,0,1-.124.181.527.527,0,0,1-.4.171Z" transform="translate(-14.742 -11.966)"/></g><path class="b" d="M20.1,29.208a9.1,9.1,0,1,1,9.1-9.1A9.115,9.115,0,0,1,20.1,29.208Z" transform="translate(922.458 819.458)"/></g></svg>