<svg xmlns="http://www.w3.org/2000/svg" width="19.913" height="17.922" viewBox="0 0 19.913 17.922"><defs><style>.a{fill:#003844;}</style></defs><g transform="translate(0 0)"><path class="a" d="M1.7,17.63A1,1,0,0,1,.292,16.222L7.553,8.961.292,1.7A1,1,0,1,1,1.7.292L9.665,8.257a1,1,0,0,1,0,1.408Z" transform="translate(9.956 0)"/><path class="a" d="M9.665,9.665,1.7,17.63A1,1,0,0,1,.292,16.222L7.553,8.961.292,1.7A1,1,0,1,1,1.7.292L9.665,8.257A1,1,0,0,1,9.665,9.665Z" transform="translate(0 0)"/></g></svg>