<svg xmlns="http://www.w3.org/2000/svg" width="49.127" height="52.767" viewBox="0 0 49.127 52.767"><defs><style>.a{fill:#fff;}.b{fill:#5caebf;}</style></defs><g transform="translate(0 2.26)"><path class="a" d="M32.65,9.363A24.579,24.579,0,0,0,1.48,40.98a.972.972,0,1,0,1.825-.666A22.636,22.636,0,0,1,32.01,11.2a.971.971,0,1,0,.64-1.834Zm0,0" transform="translate(0 -6.62)"/><path class="a" d="M45.283,141.135l3.076-4.175a.971.971,0,0,0-.907-1.54l-7.625.99a.972.972,0,0,0-.833,1.129l1.314,7.576a.972.972,0,0,0,1.739.41l2.082-2.826a24.337,24.337,0,0,0,14.006,4.381,24.575,24.575,0,0,0,22.673-34.027.972.972,0,1,0-1.793.75,22.626,22.626,0,0,1-33.732,27.332Zm0,0" transform="translate(-33.57 -96.574)"/><path class="b" d="M139.212,106.318l-.048,0-.048,0a4.158,4.158,0,0,1-4.106-4.153.971.971,0,1,0-1.943,0,6.106,6.106,0,0,0,5.126,6.018v2.156a.971.971,0,1,0,1.943,0v-2.156a6.1,6.1,0,0,0-.971-12.115,4.154,4.154,0,1,1,4.154-4.154.971.971,0,1,0,1.943,0,6.106,6.106,0,0,0-5.126-6.019V83.972a.971.971,0,0,0-1.943,0v1.923a6.1,6.1,0,0,0,.971,12.115,4.154,4.154,0,0,1,.048,8.307Zm0,0" transform="translate(-114.6 -71.213)"/><path class="b" d="M18.635,5.087h0L14.786,8.916a.736.736,0,0,1-1.039-1.044L16.331,5.3H.736a.736.736,0,1,1,0-1.473H16.331L13.748,1.258A.736.736,0,0,1,14.786.214l3.848,3.829h0A.737.737,0,0,1,18.635,5.087Z" transform="translate(36.218 16.591) rotate(-90)"/></g></svg>