<svg xmlns="http://www.w3.org/2000/svg" width="31.704" height="31.704" viewBox="0 0 31.704 31.704"><defs><style>.a{fill:#fff;stroke:#fff;stroke-width:0.4px;}</style></defs><g transform="translate(0.2 0.199)"><g transform="translate(0 0.001)"><g transform="translate(0 0)"><path class="a" d="M29.28,11.919l-1.311-.093a12.845,12.845,0,0,0-.907-2.184l.861-.995a2.187,2.187,0,0,0-.107-2.965l-2.2-2.2a2.186,2.186,0,0,0-2.967-.106l-.994.862a12.838,12.838,0,0,0-2.185-.905l-.095-1.311A2.186,2.186,0,0,0,17.2,0H14.091a2.186,2.186,0,0,0-2.173,2.023l-.093,1.311a12.841,12.841,0,0,0-2.175.9l-1-.862a2.186,2.186,0,0,0-2.967.106l-2.2,2.2a2.186,2.186,0,0,0-.107,2.966l.86.994a12.84,12.84,0,0,0-.907,2.184l-1.312.094A2.186,2.186,0,0,0,0,14.092V17.2a2.186,2.186,0,0,0,2.022,2.173l1.31.094a12.846,12.846,0,0,0,.905,2.185l-.862,1a2.186,2.186,0,0,0,.106,2.967h.006a.489.489,0,0,0,.691-.691H4.171a1.206,1.206,0,0,1-.059-1.636L5.2,22.038a.488.488,0,0,0,.057-.559,11.859,11.859,0,0,1-1.079-2.6.488.488,0,0,0-.435-.355L2.092,18.4A1.206,1.206,0,0,1,.977,17.2V14.092a1.205,1.205,0,0,1,1.115-1.2l1.65-.118a.488.488,0,0,0,.435-.355,11.861,11.861,0,0,1,1.081-2.6A.489.489,0,0,0,5.2,9.257L4.121,8.008a1.206,1.206,0,0,1,.059-1.636l2.2-2.2a1.206,1.206,0,0,1,1.636-.059L9.266,5.2a.488.488,0,0,0,.559.057A11.847,11.847,0,0,1,12.42,4.178a.489.489,0,0,0,.355-.436l.118-1.649a1.205,1.205,0,0,1,1.2-1.116H17.2a1.206,1.206,0,0,1,1.2,1.114l.119,1.648a.488.488,0,0,0,.355.435,11.857,11.857,0,0,1,2.6,1.079.488.488,0,0,0,.559-.057l1.25-1.084a1.205,1.205,0,0,1,1.636.058l2.2,2.2a1.206,1.206,0,0,1,.059,1.635L26.1,9.258a.489.489,0,0,0-.056.559,11.861,11.861,0,0,1,1.081,2.6.489.489,0,0,0,.436.355l1.649.118a1.205,1.205,0,0,1,1.116,1.2V17.2a1.206,1.206,0,0,1-1.115,1.2l-1.648.119a.488.488,0,0,0-.435.355,11.861,11.861,0,0,1-1.079,2.6.488.488,0,0,0,.057.559l1.084,1.25a1.206,1.206,0,0,1-.058,1.636l-2.2,2.2a1.206,1.206,0,0,1-1.635.059L22.046,26.1a.489.489,0,0,0-.559-.056,11.86,11.86,0,0,1-2.613,1.084.489.489,0,0,0-.355.435L18.4,29.213a1.206,1.206,0,0,1-1.2,1.115H14.091a1.206,1.206,0,0,1-1.2-1.115l-.118-1.65a.488.488,0,0,0-.355-.435,11.86,11.86,0,0,1-2.6-1.081.489.489,0,0,0-.559.056l-1.25,1.082a1.028,1.028,0,0,1-1.491,0,.489.489,0,0,0-.691.691,2,2,0,0,0,2.821.047l.994-.86a12.845,12.845,0,0,0,2.184.907l.094,1.312A2.186,2.186,0,0,0,14.091,31.3H17.2a2.186,2.186,0,0,0,2.173-2.022l.094-1.31a12.838,12.838,0,0,0,2.194-.91l.995.861a2.187,2.187,0,0,0,2.965-.107l2.2-2.2a2.186,2.186,0,0,0,.106-2.967l-.862-.994a12.837,12.837,0,0,0,.905-2.185l1.311-.095A2.187,2.187,0,0,0,31.3,17.2V14.092A2.186,2.186,0,0,0,29.28,11.919Z" transform="translate(0 -0.001)"/><path class="a" d="M159.481,154.172a5.312,5.312,0,0,1,1.565.234.489.489,0,0,0,.288-.934,6.291,6.291,0,1,0,1.943,1,.489.489,0,0,0-.591.778,5.309,5.309,0,1,1-3.205-1.076Z" transform="translate(-143.829 -143.829)"/></g></g></g></svg>