<svg xmlns="http://www.w3.org/2000/svg" width="39.575" height="49" viewBox="0 0 39.575 49"><defs><style>.a{fill:#fff;stroke:#fff;}.a,.b{stroke-width:0.4px;}.b{fill:#5caebf;stroke:#5caebf;}</style></defs><g transform="translate(-1002.554 -144.828)"><g transform="translate(1002.754 145.028)"><g transform="translate(0 0)"><path class="a" d="M-409.62,137.6c-.01-1.518-.03-3.035-.03-4.551q0-19.4,0-38.8V93.68h3.332V89.012h.565q14.377,0,28.753-.008a1,1,0,0,1,.786.319q2.688,2.714,5.4,5.4a1.007,1.007,0,0,1,.335.783q-.011,19.188-.006,38.378v.471h-4.777V137.6Zm38-4.436V95.813h-5.657V90.18h-27.86v42.988Zm-4.79,1.2h-29.9V94.807h-2.193v41.644h32.1Zm.228-43.334v3.631h3.636Z" transform="translate(409.65 -89.005)"/><path class="a" d="M-394.811,103.477v-1.049h16.094v1.049Z" transform="translate(413.366 -85.644)"/><path class="a" d="M-394.808,100.13V99.071h9.893v1.059Z" transform="translate(413.367 -86.484)"/></g></g><g transform="translate(1010.343 150.757)"><path class="b" d="M-397.561,98.386a2.527,2.527,0,0,0-3.723-1.578,1.744,1.744,0,0,0-1.053,1.546,1.573,1.573,0,0,0,.959,1.541,6.1,6.1,0,0,0,1.745.424,3.456,3.456,0,0,1,2.522,1.35,2.965,2.965,0,0,1-1.788,4.673c-.149.041-.3.075-.478.119v2.155h-1.108v-2.069a3.272,3.272,0,0,1-2.9-3.034h1.052c.384,1.972,2.611,2.173,3.845,1.538a1.648,1.648,0,0,0,.437-2.676,2.551,2.551,0,0,0-1.679-.727,6.76,6.76,0,0,1-1.294-.177,3.149,3.149,0,0,1-2.353-2.976,3.072,3.072,0,0,1,2.442-2.889c.382-.09.464-.242.447-.59-.026-.528-.007-1.058-.007-1.617h1.1v1.929c1.876.484,2.8,1.458,2.871,3.06h-1.036Z" transform="translate(403.777 -93.398)"/><path class="b" d="M-386.209,109v1.061h-17.448V109Z" transform="translate(403.714 -89.736)"/><path class="b" d="M-386.2,114.393h-4.759q-5.9,0-11.8,0c-1.017,0-1.017,0-.858-1.077h17.42Z" transform="translate(403.703 -88.723)"/><path class="b" d="M-386.21,117.612v1.045h-17.445v-1.045Z" transform="translate(403.714 -87.715)"/><path class="b" d="M-380.477,109v1.054h-7.269V109Z" transform="translate(407.448 -89.736)"/><path class="b" d="M-380.478,113.313v1.047h-7.264v-1.047Z" transform="translate(407.449 -88.724)"/><path class="b" d="M-386.633,118.669h-1.11v-1.022C-386.37,117.529-386.564,117.453-386.633,118.669Z" transform="translate(407.449 -87.721)"/><path class="b" d="M-384.155,117.613v1.038H-385.3v-1.038Z" transform="translate(408.023 -87.715)"/><path class="b" d="M-382.842,118.649v-1.038h1.116v1.038Z" transform="translate(408.599 -87.715)"/></g></g></svg>