<svg xmlns="http://www.w3.org/2000/svg" width="23.837" height="23.256" viewBox="0 0 23.837 23.256"><defs><style>.a{fill:#003844;stroke:#003844;stroke-width:0.2px;}</style></defs><g transform="translate(-65.768 -59.41) rotate(-42)"><path class="a" d="M20.1,192.276a.3.3,0,0,0-.3.3v.331a.259.259,0,0,1-.259.259H7.734v-.654a.3.3,0,0,0-.6,0v.654H.856a.259.259,0,0,1-.259-.259v-7.962a.3.3,0,0,0-.6,0v7.962a.857.857,0,0,0,.857.857H19.54a.857.857,0,0,0,.857-.857v-.331A.3.3,0,0,0,20.1,192.276Z" transform="translate(0 -82.714)"/><path class="a" d="M442.95,98.5h-1.674a.3.3,0,1,0,0,.6h1.674a.259.259,0,0,1,.259.259v10.363a.3.3,0,1,0,.6,0V99.357A.857.857,0,0,0,442.95,98.5Z" transform="translate(-423.41)"/><path class="a" d="M.3,102.373a.3.3,0,0,0,.3-.3V99.357A.259.259,0,0,1,.857,99.1h6.28v.654a.3.3,0,1,0,.6,0V99.1H18.826a.3.3,0,1,0,0-.6H.857A.857.857,0,0,0,0,99.357v2.718A.3.3,0,0,0,.3,102.373Z" transform="translate(0)"/><path class="a" d="M306.381,213.7a1.685,1.685,0,1,0,1.685,1.685A1.687,1.687,0,0,0,306.381,213.7Zm0,2.772a1.087,1.087,0,1,1,1.087-1.087A1.089,1.089,0,0,1,306.381,216.476Z" transform="translate(-292.558 -110.615)"/><path class="a" d="M260.226,157.247l-.553.151a.1.1,0,0,1-.076-.01l-.706-.408a.1.1,0,0,1-.047-.061l-.146-.554a.7.7,0,0,0-.674-.52H257.4a.7.7,0,0,0-.674.52l-.146.554h0a.1.1,0,0,1-.047.061l-.706.408a.1.1,0,0,1-.076.01l-.553-.151a.7.7,0,0,0-.787.324l-.311.539a.7.7,0,0,0,.113.844l.407.4a.1.1,0,0,1,.029.071v.815a.1.1,0,0,1-.029.071l-.407.4a.7.7,0,0,0-.113.844l.311.539a.7.7,0,0,0,.787.324l.553-.151a.1.1,0,0,1,.076.01l.706.408a.1.1,0,0,1,.047.061l.146.554a.7.7,0,0,0,.674.52h.622a.7.7,0,0,0,.674-.52l.146-.554a.1.1,0,0,1,.047-.061l.706-.408a.1.1,0,0,1,.076-.01l.553.151a.7.7,0,0,0,.787-.324l.311-.539a.7.7,0,0,0-.113-.844l-.407-.4a.1.1,0,0,1-.029-.071v-.815a.1.1,0,0,1,.029-.071l.407-.4a.7.7,0,0,0,.113-.844l-.311-.539A.7.7,0,0,0,260.226,157.247Zm.27.623.311.539a.1.1,0,0,1-.016.121l-.407.4a.7.7,0,0,0-.206.5v.815a.7.7,0,0,0,.206.5l.407.4a.1.1,0,0,1,.016.121l-.311.539a.1.1,0,0,1-.112.046l-.553-.151a.7.7,0,0,0-.532.069l-.706.408a.7.7,0,0,0-.326.426l-.146.554a.1.1,0,0,1-.1.074H257.4a.1.1,0,0,1-.1-.074l-.146-.554a.7.7,0,0,0-.326-.426l-.706-.408a.7.7,0,0,0-.35-.093.694.694,0,0,0-.182.024l-.553.151a.1.1,0,0,1-.112-.046l-.311-.539a.1.1,0,0,1,.016-.12l.407-.4a.7.7,0,0,0,.206-.5v-.815a.7.7,0,0,0-.206-.5l-.407-.4a.1.1,0,0,1-.016-.121l.311-.539a.1.1,0,0,1,.112-.046l.553.151a.7.7,0,0,0,.532-.069l.706-.408a.7.7,0,0,0,.326-.426l.146-.554a.1.1,0,0,1,.1-.074h.622a.1.1,0,0,1,.1.074l.146.554a.7.7,0,0,0,.326.426l.706.408a.7.7,0,0,0,.532.069l.553-.151A.1.1,0,0,1,260.5,157.869Z" transform="translate(-243.89 -55.061)"/><path class="a" d="M179.73,154.016a.3.3,0,1,0-.6,0v.953a.3.3,0,0,0,.6,0Z" transform="translate(-171.996 -53.017)"/><path class="a" d="M179.73,209.234a.3.3,0,0,0-.6,0v.953a.3.3,0,1,0,.6,0Z" transform="translate(-171.996 -106.036)"/><path class="a" d="M179.73,264.45a.3.3,0,0,0-.6,0v.953a.3.3,0,1,0,.6,0Z" transform="translate(-171.996 -159.052)"/><path class="a" d="M179.431,319.368a.3.3,0,0,0-.3.3v.953a.3.3,0,1,0,.6,0v-.953A.3.3,0,0,0,179.431,319.368Z" transform="translate(-171.996 -212.069)"/><path class="a" d="M43.084,133.8a.3.3,0,0,0-.3-.3H38.8a.3.3,0,0,0-.3.3v1.912a.3.3,0,0,0,.3.3h3.984a.3.3,0,0,0,.3-.3Zm-.6,1.613H39.1V134.1h3.386Z" transform="translate(-36.969 -33.606)"/><path class="a" d="M42.786,232.5H38.8a.3.3,0,0,0,0,.6h3.984a.3.3,0,0,0,0-.6Z" transform="translate(-36.969 -128.662)"/><path class="a" d="M42.786,265.833H38.8a.3.3,0,1,0,0,.6h3.984a.3.3,0,1,0,0-.6Z" transform="translate(-36.969 -160.667)"/><path class="a" d="M42.786,299.167H38.8a.3.3,0,0,0,0,.6h3.984a.3.3,0,1,0,0-.6Z" transform="translate(-36.969 -192.673)"/><path class="a" d="M42.786,332.5H38.8a.3.3,0,1,0,0,.6h3.984a.3.3,0,1,0,0-.6Z" transform="translate(-36.969 -224.678)"/></g></svg>