<svg xmlns="http://www.w3.org/2000/svg" width="23.087" height="21.637" viewBox="0 0 23.087 21.637"><defs><style>.a{fill:#003844;stroke:#fff;stroke-width:0.2px;}</style></defs><g transform="translate(-3.901 -3.9)"><g transform="translate(4.001 4)"><path class="a" d="M26.728,10.274,23.821,7.552a.572.572,0,0,0-.594-.111.511.511,0,0,0-.336.472v.851H21.8V5.871A1.94,1.94,0,0,0,19.8,4H11.084a1.94,1.94,0,0,0-2,1.871V16.93H8v-.851a.511.511,0,0,0-.336-.472.572.572,0,0,0-.594.111L4.16,18.441a.488.488,0,0,0,0,.722l2.906,2.722A.554.554,0,0,0,8,21.524v-.851h1.09v2.892a1.94,1.94,0,0,0,2,1.871H19.8a1.94,1.94,0,0,0,2-1.871V12.507h1.09v.851a.554.554,0,0,0,.93.361L26.728,11a.488.488,0,0,0,0-.722ZM11.084,5.021H19.8a.882.882,0,0,1,.908.851v.851H10.176V5.871A.882.882,0,0,1,11.084,5.021Zm8.719,19.4H11.084a.882.882,0,0,1-.908-.851v-.851H20.711v.851A.882.882,0,0,1,19.8,24.416Zm4.178-12.291V12a.529.529,0,0,0-.545-.51H19.077a.511.511,0,1,0,0,1.021h1.635v9.187H10.176V20.673h1.635a.511.511,0,1,0,0-1.021H7.452a.529.529,0,0,0-.545.51v.129L5.316,18.8l1.591-1.49v.129a.529.529,0,0,0,.545.51h4.359a.511.511,0,1,0,0-1.021H10.176V7.743H20.711V8.764H19.077a.511.511,0,1,0,0,1.021h4.359a.529.529,0,0,0,.545-.51V9.145l1.591,1.49Z" transform="translate(-4.001 -4)"/><path class="a" d="M197.871,150.382h1.7a.511.511,0,0,1,.51.51.51.51,0,1,0,1.021,0,1.533,1.533,0,0,0-1.531-1.531h-.51v-.851a.51.51,0,0,0-1.021,0v.851h-.17a1.871,1.871,0,1,0,0,3.743h1.361a.851.851,0,1,1,0,1.7h-1.7a.511.511,0,0,1-.51-.51.51.51,0,1,0-1.021,0,1.533,1.533,0,0,0,1.531,1.531h.51v.851a.51.51,0,0,0,1.021,0v-.851h.17a1.871,1.871,0,0,0,0-3.743h-1.361a.851.851,0,1,1,0-1.7Z" transform="translate(-187.109 -141.875)"/></g></g></svg>