<svg xmlns="http://www.w3.org/2000/svg" width="41" height="41" viewBox="0 0 41 41"><defs><style>.a{fill:none;stroke:#999;}.b{fill:#666;}</style></defs><g transform="translate(-1547.5 -2318.5)"><circle class="a" cx="20" cy="20" r="20" transform="translate(1548 2319)"/><g transform="translate(1559.667 2284.417)"><g transform="translate(0 48)"><path class="b" d="M18.666,49.8a7.978,7.978,0,0,1-2.2.6,3.805,3.805,0,0,0,1.683-2.115,7.648,7.648,0,0,1-2.427.926A3.826,3.826,0,0,0,9.1,51.828a3.94,3.94,0,0,0,.089.873,10.832,10.832,0,0,1-7.888-4,3.828,3.828,0,0,0,1.176,5.115,3.779,3.779,0,0,1-1.729-.471v.042a3.844,3.844,0,0,0,3.066,3.76,3.819,3.819,0,0,1-1,.126,3.383,3.383,0,0,1-.724-.065A3.863,3.863,0,0,0,5.66,59.869,7.689,7.689,0,0,1,.916,61.5,7.167,7.167,0,0,1,0,61.449a10.773,10.773,0,0,0,5.87,1.717A10.817,10.817,0,0,0,16.762,52.277c0-.169-.006-.332-.014-.495A7.634,7.634,0,0,0,18.666,49.8Z" transform="translate(0 -48)"/></g></g></g></svg>