<svg xmlns="http://www.w3.org/2000/svg" width="108.111" height="82.263" viewBox="0 0 108.111 82.263"><defs><style>.a{fill:#4686f1;}</style></defs><g transform="translate(0 0)"><path class="a" d="M106.93,44.98A3.909,3.909,0,0,0,104.1,43.8H4.013A4.121,4.121,0,0,0,1.18,44.98,3.909,3.909,0,0,0,0,47.813V122.05a4,4,0,0,0,1.3,2.833,4.122,4.122,0,0,0,2.833,1.18H104.1a4.122,4.122,0,0,0,2.833-1.18,3.909,3.909,0,0,0,1.18-2.833V47.813A4.121,4.121,0,0,0,106.93,44.98Zm-2.479,77.07c0,.118,0,.118-.118.236a.412.412,0,0,1-.236.118H4.013c-.118,0-.118,0-.236-.118a.412.412,0,0,1-.118-.236V47.813h.118c0-.118,0-.118.118-.236a.412.412,0,0,1,.236-.118H104.1c.118,0,.118,0,.236.118a.412.412,0,0,1,.118.236Z" transform="translate(0 -43.8)"/><g transform="translate(10.836 11.566)"><path class="a" d="M122.2,83.944a3.3,3.3,0,0,0-2.36-.944H40.051a3.227,3.227,0,0,0-3.3,3.3v52.757a2.8,2.8,0,0,0,.944,2.361,3.3,3.3,0,0,0,2.361.944h79.785a3.227,3.227,0,0,0,3.3-3.3V86.3A3.3,3.3,0,0,0,122.2,83.944ZM92.69,138.826v-.118h-49.1l8.262-14.281,8.262-14.281,8.262,14.281v.118L71.21,129.5a2,2,0,0,0,.708.708A1.791,1.791,0,0,0,74.4,129.5l6.491-11.212,11.8-20.536,11.8,20.418v.118l11.8,20.536Zm26.91-1.888L107.679,116.4v-.118L94.225,93.15a1.9,1.9,0,0,0-2.479-.708,2,2,0,0,0-.708.708L77.7,116.4l-4.839,8.38-1.3-2.242v-.118l-9.8-17a1.9,1.9,0,0,0-2.479-.708,2,2,0,0,0-.708.708l-9.8,17.114-8.262,14.4v-50.4H119.6v50.4Z" transform="translate(-36.724 -83)"/></g><g transform="translate(39.774 19.474)"><path class="a" d="M146.485,111.806a6.842,6.842,0,0,0-9.56-.118l-.118.118a6.969,6.969,0,0,0-2.006,4.839,7.2,7.2,0,0,0,2.006,4.839,6.969,6.969,0,0,0,4.839,2.006,6.685,6.685,0,0,0,4.839-2.006,6.969,6.969,0,0,0,2.006-4.839A6.685,6.685,0,0,0,146.485,111.806Zm-2.6,7.081a3.187,3.187,0,0,1-5.429-2.242,3.022,3.022,0,0,1,.944-2.242,3.171,3.171,0,1,1,4.485,4.485Z" transform="translate(-134.8 -109.8)"/></g></g></svg>