<svg xmlns="http://www.w3.org/2000/svg" xmlns:xlink="http://www.w3.org/1999/xlink" width="204" height="274" viewBox="0 0 204 274"><defs><style>.a{fill:none;}.b{clip-path:url(#a);}.c{opacity:0.1;}.d{fill:#003844;}</style><clipPath id="a"><rect class="a" width="204" height="274" transform="translate(1575 206)"/></clipPath></defs><g class="b" transform="translate(-1575 -206)"><g class="c" transform="translate(1578.5 208.5)"><path class="d" d="M260.449,153.225A47.225,47.225,0,1,1,213.225,106,47.278,47.278,0,0,1,260.449,153.225Zm-83.955,0a36.73,36.73,0,1,0,36.73-36.73A36.772,36.772,0,0,0,176.494,153.225Z" transform="translate(-78.897 -50.38)"/><ellipse class="d" cx="5.5" cy="5.5" rx="5.5" ry="5.5" transform="translate(32.155 42.5)"/><path class="d" d="M134.328,268.655a134.393,134.393,0,0,1-114.9-204A5.247,5.247,0,1,1,28.4,70.1,123.991,123.991,0,0,0,52.2,227.036a83.971,83.971,0,0,1,164.257,0A123.855,123.855,0,0,0,134.328,10.494,122.671,122.671,0,0,0,58.393,36.466a5.247,5.247,0,0,1-6.438-8.288,134.457,134.457,0,0,1,177.38,11.147,134.357,134.357,0,0,1-95.007,229.331Zm0-97.6a73.112,73.112,0,0,0-72.79,63.494,124,124,0,0,0,145.574,0,73.1,73.1,0,0,0-72.784-63.493Z" transform="translate(0 0)"/></g></g></svg>