<svg xmlns="http://www.w3.org/2000/svg" width="18.394" height="19.969" viewBox="0 0 18.394 19.969"><defs><style>.a{fill:#003844;stroke:#f0f3f4;stroke-width:0.4px;}</style></defs><path class="a" d="M256,87.638v4.33a.731.731,0,0,0,.731.731h16.533a.731.731,0,0,0,.731-.731v-4.33a4.672,4.672,0,0,0-4.667-4.667h-.542a5.651,5.651,0,1,0-7.576,0h-.542A4.672,4.672,0,0,0,256,87.638Zm4.807-8.857a4.19,4.19,0,1,1,4.19,4.19A4.194,4.194,0,0,1,260.806,78.781Zm8.52,5.651a3.209,3.209,0,0,1,3.206,3.206v3.6H269.86V90a.731.731,0,0,0-1.461,0v1.238h-6.805V90a.731.731,0,0,0-1.461,0v1.238H257.46v-3.6a3.209,3.209,0,0,1,3.206-3.206Z" transform="translate(-255.799 -72.93)"/></svg>