<svg xmlns="http://www.w3.org/2000/svg" width="43" height="42.5" viewBox="0 0 43 42.5"><defs><style>.a{fill:#ebebeb;}.b{fill:#677079;}.b,.c,.d,.e,.f,.g,.h{fill-rule:evenodd;}.c{fill:#f9dca4;}.d{opacity:0.11;}.e{fill:#ffe8be;}.f{fill:#8a5c42;}.g{fill:#434955;}.h{fill:#e6e6e6;}</style></defs><g transform="translate(-0.5 -0.5)"><ellipse class="a" cx="21.5" cy="21" rx="21.5" ry="21" transform="translate(0.5 0.5)"/><path class="b" d="M39.844,46.3A22.872,22.872,0,0,1,8.92,46.107a6.239,6.239,0,0,1,2.859-3.218,14.277,14.277,0,0,1,2.886-1.546c-1.557-5.03,2.675-7.5,4.294-8.215,0,2.322,2.312.781,5.182.81,2.362.025,7.034,2.261,7.034-.689,2.6.723,5.432,5.381,3.482,8.243a12.607,12.607,0,0,1,2.253,1.333A6.877,6.877,0,0,1,39.844,46.3Z" transform="translate(-2.979 -9.223)"/><path class="c" d="M24.031,38.68l9.936.06v2.289l0,.035a1.854,1.854,0,0,1-.047.308l-.033.227-.02.047c-.643,3.379-3.458,4.685-5.2,5.595-1.831-1-4.421-2.8-4.627-5.975l-.009-.039v-.133q0-.069,0-.138c0,.024,0,.047,0,.071Z" transform="translate(-7.081 -11.464)"/><path class="d" d="M33.863,38.617v2.667a4.774,4.774,0,0,1-.063.738,4,4,0,0,1-.253.88c-3.452,2.607-8.953.469-9.832-3.985Z" transform="translate(-6.983 -11.573)"/><path class="c" d="M17.345,25.235c-3.29.846-.493,4.855,1.576,4.838a13.19,13.19,0,0,1-1.576-4.838Z" transform="translate(-4.778 -7.576)"/><path class="c" d="M43.046,25.235c3.29.846.493,4.855-1.577,4.837a13.186,13.186,0,0,0,1.577-4.837Z" transform="translate(-12.515 -7.576)"/><path class="e" d="M26.61,11.361c13.668,0,8.341,21.608,0,21.608C18.731,32.969,12.942,11.361,26.61,11.361Z" transform="translate(-5.224 -3.082)"/><path class="f" d="M19.544,15.979a1.157,1.157,0,0,1-.276,1.782c-.966.795-1,3.565-1,3.565-.373-.37-.364-2.354-1.173-3.5S15.742,8.661,20.263,5.744a2.841,2.841,0,0,0-.621,2.4s3.141-4.5,8.351-4.374a3.349,3.349,0,0,0-1.656,2.171s4.555-1.879,8.351.356a9.041,9.041,0,0,0-2.76,1.3A7.531,7.531,0,0,1,36.9,9.179,2.272,2.272,0,0,0,35.447,12.1c.57,2.333.623,4.5.071,5.67s-.812.414-1.158,2.86a1.072,1.072,0,0,1-.513.809c-.013.177.254-2.5-.436-3.215a1.705,1.705,0,0,1,.019-2.106c1.925-3.614-3.839-5.252-6.99-5.248-2.733,0-9.324,1.245-6.9,5.113Z" transform="translate(-4.552 -1.258)"/><path class="g" d="M19.79,49.1c.02.025,6.938,8.979,15.071-.133-.982,2.7-5.219,4.842-7.643,4.835a8.23,8.23,0,0,1-7.428-4.7Z" transform="translate(-5.679 -14.512)"/><path class="h" d="M32.643,58.229c-.273.048-.547.09-.824.128V52.405a.419.419,0,0,1,.824,0Zm-6.54.111q-.414-.059-.824-.133v-5.8a.419.419,0,0,1,.824,0Z" transform="translate(-7.526 -15.547)"/></g></svg>