<svg xmlns="http://www.w3.org/2000/svg" width="42.333" height="48.381" viewBox="0 0 42.333 48.381"><defs><style>.a{fill:#5caebf;}.b{fill:#fff;}</style></defs><g transform="translate(-1012 -145.333)"><path class="a" d="M59.23,11.087a.806.806,0,0,1,.806.806v.34a2.423,2.423,0,0,1,1.613,2.28.806.806,0,1,1-1.613,0,.806.806,0,0,0-1.613,0v.326a.8.8,0,0,0,.566.77l.962.3a2.409,2.409,0,0,1,1.7,2.309v.326a2.423,2.423,0,0,1-1.915,2.366v.255a.806.806,0,0,1-1.613,0v-.472a2.421,2.421,0,0,1-1.31-2.149.806.806,0,1,1,1.613,0,.806.806,0,0,0,1.613,0V18.22a.8.8,0,0,0-.566-.77l-.962-.3a2.409,2.409,0,0,1-1.7-2.309v-.326a2.423,2.423,0,0,1,1.613-2.28v-.34A.806.806,0,0,1,59.23,11.087ZM37.056,21.671a.806.806,0,0,1,.806-.806h6.854a.806.806,0,1,1,0,1.613H37.862A.806.806,0,0,1,37.056,21.671Zm0-9.071a.806.806,0,0,1,.806-.806h6.854a.806.806,0,1,1,0,1.613H37.862A.806.806,0,0,1,37.056,12.6ZM55.6,30.742a.806.806,0,0,1-.806.806H37.862a.806.806,0,1,1,0-1.613H54.8A.806.806,0,0,1,55.6,30.742Zm0,8.467a.806.806,0,0,1-.806.806H37.862a.806.806,0,1,1,0-1.613H54.8A.806.806,0,0,1,55.6,39.209Z" transform="translate(982 145.333)"/><path class="b" d="M48.647,16.53A10.583,10.583,0,1,0,59.23,5.947,10.6,10.6,0,0,0,48.647,16.53Zm19.554,0A8.971,8.971,0,1,1,59.23,7.56,8.981,8.981,0,0,1,68.2,16.53Zm4.133,15.925V42.737a5.651,5.651,0,0,1-5.644,5.644H35.644A5.651,5.651,0,0,1,30,42.737V3.225A3.229,3.229,0,0,1,33.225,0H59.432a3.229,3.229,0,0,1,3.225,3.225.806.806,0,0,1-1.613,0,1.615,1.615,0,0,0-1.613-1.613H33.225a1.615,1.615,0,0,0-1.613,1.613V42.737a4.036,4.036,0,0,0,4.032,4.032h27.1a5.626,5.626,0,0,1-1.7-4.032v-12.6a.806.806,0,0,1,1.613,0v12.6a4.032,4.032,0,1,0,8.063,0c0-11.17-.723-11.894-1.613-11.894H65.681a.806.806,0,0,1,0-1.613h3.427A3.229,3.229,0,0,1,72.333,32.456Z" transform="translate(982 145.333)"/></g></svg>