<svg xmlns="http://www.w3.org/2000/svg" width="53.333" height="40.727" viewBox="0 0 53.333 40.727"><defs><style>.a{fill:#5caebf;}.b{fill:#fff;}</style></defs><g transform="translate(-382 -153.4)"><path class="a" d="M-165.026,114.368c.7,0,.728,0,.7-.694a4.543,4.543,0,0,1,.859-2.932,4.512,4.512,0,0,1,3.926-1.927c.761.013.761,0,.761-.769q0-5.747,0-11.494c0-.886.055-.809-.8-.821a4.659,4.659,0,0,1-2.473-.641A4.549,4.549,0,0,1-164.321,91c0-.943.079-.869-.882-.869h-14.039v0q-7.13,0-14.258,0c-.661,0-.684.008-.658.655a4.686,4.686,0,0,1-.566,2.535,4.591,4.591,0,0,1-4.321,2.41c-.659,0-.66,0-.661.647q0,5.4,0,10.793c0,.41.011.819,0,1.228-.01.3.125.429.418.417.117-.005.234,0,.351,0a4.737,4.737,0,0,1,4.293,2.634,4.356,4.356,0,0,1,.486,2.418c-.013.264,0,.5.375.5,1.331-.008,2.662-.005,3.992,0,.259,0,.376-.112.374-.368,0-.38-.011-.761,0-1.14.013-.328-.136-.439-.447-.435-.673.011-1.346-.006-2.018.005a.457.457,0,0,1-.514-.41,6.624,6.624,0,0,0-4.862-4.931.6.6,0,0,1-.514-.706q.02-4.1,0-8.2a.594.594,0,0,1,.519-.7,6.47,6.47,0,0,0,4.82-4.845c.121-.448.293-.574.735-.573q12.46.018,24.919,0a.614.614,0,0,1,.715.547,6.5,6.5,0,0,0,5.017,4.911c.271.065.4.176.4.47q-.011,4.3,0,8.6a.4.4,0,0,1-.36.455,6.449,6.449,0,0,0-5.073,4.951.5.5,0,0,1-.583.438c-.643-.017-1.287.005-1.93-.008-.33-.006-.49.106-.471.456a9.365,9.365,0,0,1,0,1.008c-.019.36.126.49.487.485C-167.4,114.358-166.211,114.369-165.026,114.368Z" transform="translate(587.909 72.696)"/><g transform="translate(592.322 79.401)"><path class="b" d="M-156.992,81.53a3.083,3.083,0,0,0-1.349-2.789,1.415,1.415,0,0,1-.71-1.358,3.137,3.137,0,0,0-2.427-3.247A6.331,6.331,0,0,0-162.915,74q-20.744,0-41.488,0c-.129,0-.258,0-.386,0a3.182,3.182,0,0,0-3.45,3.1,8.233,8.233,0,0,0-.041.867.492.492,0,0,1-.257.479,3.412,3.412,0,0,0-1.785,3.333q.016,9.78,0,19.561c0,2.737-.005,5.473,0,8.21a3.317,3.317,0,0,0,1.173,2.741,3.773,3.773,0,0,0,2.5.713q5.555.01,11.109,0c.081,0,.161-.005.241,0,.3.013.445-.121.436-.431-.01-.354,0-.709,0-1.063,0-.624-.019-.64-.66-.64h-11.109c-1.326,0-1.554-.224-1.554-1.527V93.411q0-5.965,0-11.93c0-.848.359-1.2,1.2-1.215.161,0,.322,0,.483,0h46.027c.963,0,1.332.318,1.332,1.176q0,14.151,0,28.3c0,.762-.36,1.11-1.132,1.129-.258.007-.515,0-.773,0h-10.77c-.627,0-.64.016-.644.656,0,.322.015.645,0,.966-.021.37.125.518.5.517,3.832-.008,7.663,0,11.494-.012a3.364,3.364,0,0,0,2.652-1.053,3.537,3.537,0,0,0,.813-2.506q.005-10.795,0-21.589C-156.99,85.747-156.986,83.639-156.992,81.53Zm-4.168-3.8c-.015.283-.112.419-.4.4-.161-.008-.322,0-.483,0h-21.63q-10.791,0-21.582-.013c-.293,0-.765.266-.876-.288a1.33,1.33,0,0,1,.662-1.6,2.346,2.346,0,0,1,.858-.093h41.956C-161.474,76.137-161.1,76.55-161.16,77.726Z" transform="translate(0 0)"/><path class="b" d="M-163.921,101.557a7.255,7.255,0,0,0-11.238-.61,6.725,6.725,0,0,0-1.789,4.425c-.011.33.12.474.448.467.37-.008.741-.014,1.111,0s.494-.134.531-.5a4.836,4.836,0,0,1,2.251-3.851,5.512,5.512,0,0,1,3.474-.751,4.857,4.857,0,0,1,4.362,4.224c.085.877.085.877.973.877h.145c.129,0,.258,0,.386,0,.643-.005.685-.04.643-.7A6.751,6.751,0,0,0-163.921,101.557Z" transform="translate(-13.875 -10.215)"/></g><path class="a" d="M-168.786,124.685V107.1h-2V124.81l-4.824-4.825-1.373,1.328,7.175,7.175,7.183-7.183-1.363-1.416Z" transform="translate(578.464 65.639)"/></g></svg>